<svg width="43" height="18" viewBox="0 0 43 18" fill="none" xmlns="http://www.w3.org/2000/svg">
<g clip-path="url(#clip0_71_41785)">
<path d="M30.4802 4.62363C31.6622 4.62363 32.5757 4.94605 33.2743 5.59088C33.9728 6.23563 34.2952 7.09538 34.2952 8.17004V13.3284H32.7907V12.1464H32.7369C32.0922 13.1136 31.1787 13.5972 30.104 13.5972C29.1905 13.5972 28.3845 13.3284 27.7398 12.7912C27.1487 12.2539 26.7725 11.5016 26.7725 10.6956C26.7725 9.83584 27.0949 9.13729 27.7398 8.59996C28.3845 8.06263 29.298 7.84771 30.3727 7.84771C31.3398 7.84771 32.0922 8.00896 32.6832 8.38504V8.00896C32.6832 7.50741 32.496 7.00594 32.1215 6.67915L32.0383 6.61188C31.6085 6.23571 31.0712 6.0208 30.4802 6.0208C29.5667 6.0208 28.8681 6.39694 28.3845 7.14921L26.9875 6.2893C27.8472 5.16088 28.9756 4.62363 30.4802 4.62363ZM22.9038 0.969727C23.8679 0.969727 24.7842 1.30524 25.5168 1.93093L25.6442 2.04431C26.3964 2.68914 26.7725 3.65639 26.7725 4.6773C26.7725 5.69822 26.3964 6.61171 25.6442 7.31021C24.8919 8.00871 23.9784 8.38487 22.9038 8.38487L20.3246 8.33113V13.3284H18.7125V0.969727H22.9038ZM30.695 9.13721C30.0502 9.13721 29.5129 9.2984 29.0831 9.62079C28.6532 9.88943 28.4383 10.2655 28.4383 10.7491C28.4383 11.179 28.6533 11.5551 28.9756 11.7701C29.3517 12.0388 29.7816 12.1999 30.2115 12.1999C30.8132 12.1999 31.4151 11.9659 31.8858 11.5415L31.9847 11.4477C32.522 10.9641 32.7907 10.373 32.7907 9.7282C32.3071 9.35212 31.6085 9.13712 30.6951 9.13712M23.0113 2.47414H20.3247V6.77305H23.0113C23.6023 6.77305 24.1934 6.55813 24.5696 6.1283C25.4293 5.3223 25.4293 3.97897 24.6233 3.17289L24.5696 3.11914C24.1397 2.68931 23.6023 2.42064 23.0113 2.47439M43 4.8923L37.6804 17.0898H36.0684L38.0565 12.8449L34.5638 4.94605H36.2833L38.8087 11.0179H38.8625L41.3342 4.94605H43V4.8923Z" fill="#5F6368"/>
<path d="M13.9302 7.25641C13.9302 6.77283 13.8764 6.28925 13.8227 5.80566H7.1062V8.54607H10.9212C10.76 9.40574 10.2764 10.2117 9.5242 10.6954V12.4686H11.8347C13.178 11.2327 13.9303 9.40574 13.9303 7.25649" fill="#4285F4"/>
<path d="M7.10617 14.1889C9.0405 14.1889 10.6525 13.5441 11.8347 12.4694L9.52416 10.6963C8.87933 11.1261 8.07333 11.3948 7.10617 11.3948C5.27917 11.3948 3.66718 10.1589 3.12985 8.43945H0.765686V10.2664C2.00152 12.6844 4.41951 14.1889 7.10617 14.1889Z" fill="#34A853"/>
<path d="M3.12997 8.43939C2.80764 7.57964 2.80764 6.61248 3.12997 5.69898V3.87207H0.76581C-0.255188 5.86023 -0.255188 8.22448 0.76581 10.2663L3.12997 8.43939Z" fill="#FFD723"/>
<path d="M7.10622 2.79704C8.12713 2.79704 9.09429 3.17321 9.84663 3.87171L11.8885 1.82988C10.5988 0.647716 8.87938 -0.050782 7.15988 0.00288406C4.47322 0.00288406 2.00156 1.50746 0.819397 3.92546L3.18364 5.75237C3.66722 4.03287 5.27922 2.79704 7.10622 2.79704Z" fill="#EA4335"/>
</g>
<defs>
<clipPath id="clip0_71_41785">
<rect width="43" height="17.1328" fill="white"/>
</clipPath>
</defs>
</svg>
