<svg width="91" height="29" viewBox="0 0 91 29" fill="none" xmlns="http://www.w3.org/2000/svg">
<path d="M12.25 19.5H10.374V15.384C10.374 14.8053 10.2713 14.3807 10.066 14.11C9.87 13.83 9.59467 13.69 9.24 13.69C8.876 13.69 8.526 13.8347 8.19 14.124C7.86333 14.404 7.63 14.7727 7.49 15.23V19.5H5.614V15.384C5.614 14.796 5.51133 14.3667 5.306 14.096C5.11 13.8253 4.83467 13.69 4.48 13.69C4.116 13.69 3.766 13.83 3.43 14.11C3.10333 14.39 2.87 14.7587 2.73 15.216V19.5H0.854V12.164H2.548V13.522C2.828 13.046 3.20133 12.682 3.668 12.43C4.13467 12.1687 4.67133 12.038 5.278 12.038C5.88467 12.038 6.356 12.1873 6.692 12.486C7.03733 12.7847 7.25667 13.1533 7.35 13.592C7.64867 13.088 8.02667 12.7053 8.484 12.444C8.95067 12.1733 9.47333 12.038 10.052 12.038C10.5093 12.038 10.878 12.122 11.158 12.29C11.4473 12.4487 11.6713 12.668 11.83 12.948C11.9887 13.2187 12.096 13.5267 12.152 13.872C12.2173 14.2173 12.25 14.5673 12.25 14.922V19.5ZM17.2713 19.64C16.674 19.64 16.1373 19.542 15.6613 19.346C15.1853 19.1407 14.7793 18.8607 14.4433 18.506C14.1166 18.1513 13.8646 17.7453 13.6873 17.288C13.51 16.8307 13.4213 16.35 13.4213 15.846C13.4213 15.3327 13.51 14.8473 13.6873 14.39C13.8646 13.9327 14.1166 13.5267 14.4433 13.172C14.7793 12.8173 15.1853 12.542 15.6613 12.346C16.1373 12.1407 16.674 12.038 17.2713 12.038C17.8686 12.038 18.4006 12.1407 18.8673 12.346C19.3433 12.542 19.7493 12.8173 20.0853 13.172C20.4213 13.5267 20.6733 13.9327 20.8413 14.39C21.0186 14.8473 21.1073 15.3327 21.1073 15.846C21.1073 16.35 21.0186 16.8307 20.8413 17.288C20.6733 17.7453 20.4213 18.1513 20.0853 18.506C19.7586 18.8607 19.3573 19.1407 18.8813 19.346C18.4053 19.542 17.8686 19.64 17.2713 19.64ZM15.3533 15.846C15.3533 16.2753 15.4373 16.658 15.6053 16.994C15.7733 17.3207 16.002 17.5773 16.2913 17.764C16.5806 17.9507 16.9073 18.044 17.2713 18.044C17.626 18.044 17.948 17.9507 18.2373 17.764C18.5266 17.568 18.7553 17.3067 18.9233 16.98C19.1006 16.644 19.1893 16.2613 19.1893 15.832C19.1893 15.412 19.1006 15.034 18.9233 14.698C18.7553 14.362 18.5266 14.1007 18.2373 13.914C17.948 13.7273 17.626 13.634 17.2713 13.634C16.9073 13.634 16.5806 13.732 16.2913 13.928C16.002 14.1147 15.7733 14.376 15.6053 14.712C15.4373 15.0387 15.3533 15.4167 15.3533 15.846ZM29.1915 19.5H27.3155V15.384C27.3155 14.796 27.2129 14.3667 27.0075 14.096C26.8022 13.8253 26.5175 13.69 26.1535 13.69C25.9015 13.69 25.6449 13.7553 25.3835 13.886C25.1315 14.0167 24.9029 14.1987 24.6975 14.432C24.4922 14.656 24.3429 14.9173 24.2495 15.216V19.5H22.3735V12.164H24.0675V13.522C24.2542 13.2047 24.4922 12.9387 24.7815 12.724C25.0709 12.5 25.4022 12.332 25.7755 12.22C26.1582 12.0987 26.5595 12.038 26.9795 12.038C27.4369 12.038 27.8102 12.122 28.0995 12.29C28.3982 12.4487 28.6222 12.668 28.7715 12.948C28.9302 13.2187 29.0375 13.5267 29.0935 13.872C29.1589 14.2173 29.1915 14.5673 29.1915 14.922V19.5ZM34.2108 19.64C33.6134 19.64 33.0768 19.542 32.6008 19.346C32.1248 19.1407 31.7188 18.8607 31.3828 18.506C31.0561 18.1513 30.8041 17.7453 30.6268 17.288C30.4494 16.8307 30.3608 16.35 30.3608 15.846C30.3608 15.3327 30.4494 14.8473 30.6268 14.39C30.8041 13.9327 31.0561 13.5267 31.3828 13.172C31.7188 12.8173 32.1248 12.542 32.6008 12.346C33.0768 12.1407 33.6134 12.038 34.2108 12.038C34.8081 12.038 35.3401 12.1407 35.8068 12.346C36.2828 12.542 36.6888 12.8173 37.0248 13.172C37.3608 13.5267 37.6128 13.9327 37.7808 14.39C37.9581 14.8473 38.0468 15.3327 38.0468 15.846C38.0468 16.35 37.9581 16.8307 37.7808 17.288C37.6128 17.7453 37.3608 18.1513 37.0248 18.506C36.6981 18.8607 36.2968 19.1407 35.8208 19.346C35.3448 19.542 34.8081 19.64 34.2108 19.64ZM32.2928 15.846C32.2928 16.2753 32.3768 16.658 32.5448 16.994C32.7128 17.3207 32.9414 17.5773 33.2308 17.764C33.5201 17.9507 33.8468 18.044 34.2108 18.044C34.5654 18.044 34.8874 17.9507 35.1768 17.764C35.4661 17.568 35.6948 17.3067 35.8628 16.98C36.0401 16.644 36.1288 16.2613 36.1288 15.832C36.1288 15.412 36.0401 15.034 35.8628 14.698C35.6948 14.362 35.4661 14.1007 35.1768 13.914C34.8874 13.7273 34.5654 13.634 34.2108 13.634C33.8468 13.634 33.5201 13.732 33.2308 13.928C32.9414 14.1147 32.7128 14.376 32.5448 14.712C32.3768 15.0387 32.2928 15.4167 32.2928 15.846Z" fill="white"/>
<rect x="46" width="45" height="29" rx="8" fill="white"/>
<path d="M57.036 19V9.06H61.25C61.7073 9.06 62.1273 9.15333 62.51 9.34C62.8927 9.52667 63.224 9.77867 63.504 10.096C63.7933 10.4133 64.0173 10.768 64.176 11.16C64.3347 11.552 64.414 11.9533 64.414 12.364C64.414 12.924 64.2833 13.456 64.022 13.96C63.7607 14.464 63.4013 14.8747 62.944 15.192C62.4867 15.5093 61.9453 15.668 61.32 15.668H58.968V19H57.036ZM58.968 13.974H61.208C61.4413 13.974 61.6513 13.9087 61.838 13.778C62.0247 13.6473 62.174 13.4607 62.286 13.218C62.398 12.966 62.454 12.6813 62.454 12.364C62.454 12.0187 62.3887 11.7247 62.258 11.482C62.1367 11.2393 61.9733 11.0573 61.768 10.936C61.572 10.8147 61.3573 10.754 61.124 10.754H58.968V13.974ZM64.977 16.83C64.977 16.354 65.1076 15.9387 65.369 15.584C65.6396 15.22 66.013 14.94 66.489 14.744C66.965 14.548 67.511 14.45 68.127 14.45C68.435 14.45 68.7476 14.4733 69.065 14.52C69.3823 14.5667 69.6576 14.6413 69.891 14.744V14.352C69.891 13.8853 69.751 13.526 69.471 13.274C69.2003 13.022 68.7943 12.896 68.253 12.896C67.8516 12.896 67.469 12.966 67.105 13.106C66.741 13.246 66.3583 13.4513 65.957 13.722L65.355 12.49C65.8403 12.1727 66.335 11.9347 66.839 11.776C67.3523 11.6173 67.889 11.538 68.449 11.538C69.4943 11.538 70.3063 11.7993 70.885 12.322C71.473 12.8447 71.767 13.5913 71.767 14.562V16.9C71.767 17.096 71.7996 17.236 71.865 17.32C71.9396 17.404 72.0563 17.4553 72.215 17.474V19C72.047 19.028 71.893 19.0513 71.753 19.07C71.6223 19.0887 71.5103 19.098 71.417 19.098C71.0436 19.098 70.759 19.014 70.563 18.846C70.3763 18.678 70.2596 18.4727 70.213 18.23L70.171 17.852C69.8536 18.2627 69.457 18.58 68.981 18.804C68.505 19.028 68.0196 19.14 67.525 19.14C67.0396 19.14 66.601 19.042 66.209 18.846C65.8263 18.6407 65.523 18.3653 65.299 18.02C65.0843 17.6653 64.977 17.2687 64.977 16.83ZM69.541 17.208C69.6436 17.096 69.7276 16.984 69.793 16.872C69.8583 16.76 69.891 16.6573 69.891 16.564V15.822C69.667 15.7287 69.4243 15.6587 69.163 15.612C68.9016 15.556 68.6543 15.528 68.421 15.528C67.9356 15.528 67.5343 15.6353 67.217 15.85C66.909 16.0553 66.755 16.3307 66.755 16.676C66.755 16.8627 66.8063 17.04 66.909 17.208C67.0116 17.376 67.161 17.5113 67.357 17.614C67.553 17.7167 67.7863 17.768 68.057 17.768C68.337 17.768 68.6123 17.7167 68.883 17.614C69.1536 17.502 69.373 17.3667 69.541 17.208ZM73.4006 20.428C73.5686 20.4653 73.7226 20.498 73.8626 20.526C74.0119 20.554 74.1379 20.568 74.2406 20.568C74.4179 20.568 74.5626 20.5213 74.6746 20.428C74.7959 20.344 74.9126 20.1853 75.0246 19.952C75.1366 19.728 75.2532 19.4107 75.3746 19L72.4766 11.664H74.4226L76.3966 17.082L78.1326 11.664H79.9246L76.8446 20.456C76.7326 20.7827 76.5599 21.0767 76.3266 21.338C76.1026 21.6087 75.8179 21.8187 75.4726 21.968C75.1366 22.1267 74.7586 22.206 74.3386 22.206C74.1892 22.206 74.0399 22.192 73.8906 22.164C73.7412 22.1453 73.5779 22.108 73.4006 22.052V20.428Z" fill="black"/>
</svg>
