<svg width="28" height="29" viewBox="0 0 28 29" fill="none" xmlns="http://www.w3.org/2000/svg">
<path d="M13.9997 2.83301C7.57134 2.83301 2.33301 8.07134 2.33301 14.4997C2.33301 20.928 7.57134 26.1663 13.9997 26.1663C20.428 26.1663 25.6663 20.928 25.6663 14.4997C25.6663 8.07134 20.428 2.83301 13.9997 2.83301ZM19.5763 11.8163L12.9613 18.4313C12.798 18.5947 12.5763 18.688 12.343 18.688C12.1097 18.688 11.888 18.5947 11.7247 18.4313L8.42301 15.1297C8.08467 14.7913 8.08467 14.2313 8.42301 13.893C8.76134 13.5547 9.32134 13.5547 9.65967 13.893L12.343 16.5763L18.3397 10.5797C18.678 10.2413 19.238 10.2413 19.5763 10.5797C19.9147 10.918 19.9147 11.4663 19.5763 11.8163Z" fill="#181616"/>
</svg>
