<svg width="317" height="318" viewBox="0 0 317 318" fill="none" xmlns="http://www.w3.org/2000/svg">
<path d="M19.2324 293H311" stroke="#A0A0A0" stroke-width="1.5" stroke-linecap="round"/>
<path fill-rule="evenodd" clip-rule="evenodd" d="M20 293.148H317V159.717C307.551 149.43 298.569 134.718 290.014 120.705C271.142 89.7931 254.35 62.2885 239.217 93.2251C211.059 150.789 190.134 123.59 174.502 103.27C167.218 93.8018 161.083 85.827 155.9 88.6163C140.208 97.0618 113.609 90.9517 83.3025 83.9898C63.1368 79.3574 41.3292 74.3479 20 72.998V293.148Z" fill="#FFAECF"/>
<path fill-rule="evenodd" clip-rule="evenodd" d="M20 293H316.891V273.5C250.125 257.607 202.762 203.892 160.074 155.478C122.724 113.118 88.9517 74.8163 48.891 69.4575C38.7702 68.1037 29.1944 69.8011 20 73.9315V293Z" fill="#ECFFBC"/>
<line x1="19.6113" y1="293" x2="19.6113" y2="69" stroke="#A0A0A0" stroke-dasharray="6 6"/>
<line x1="259.865" y1="293" x2="259.865" y2="69" stroke="#A0A0A0" stroke-dasharray="6 6"/>
<circle cx="24.0801" cy="66" r="9.5" fill="#A9CD50" stroke="#FAFFEE" stroke-width="3"/>
<circle cx="260" cy="262" r="9.5" fill="#A9CD50" stroke="#FAFFEE" stroke-width="3"/>
<circle cx="260" cy="84" r="9.5" fill="#FF7CB2" stroke="#FAFFEE" stroke-width="3"/>
<path fill-rule="evenodd" clip-rule="evenodd" d="M215 169C209.477 169 205 173.477 205 179V217.583C205 223.106 209.477 227.583 215 227.583H250.816L260.188 243L269.559 227.583H307C312.523 227.583 317 223.106 317 217.583V179C317 173.477 312.523 169 307 169H215Z" fill="#A9CD50"/>
<path d="M220.12 190.168C219.364 190.168 218.659 190.047 218.006 189.804C217.362 189.552 216.802 189.197 216.326 188.74C215.85 188.283 215.476 187.746 215.206 187.13C214.944 186.514 214.814 185.837 214.814 185.1C214.814 184.363 214.944 183.686 215.206 183.07C215.476 182.454 215.85 181.917 216.326 181.46C216.811 181.003 217.376 180.653 218.02 180.41C218.664 180.158 219.368 180.032 220.134 180.032C220.983 180.032 221.748 180.181 222.43 180.48C223.12 180.769 223.699 181.199 224.166 181.768L222.71 183.112C222.374 182.729 222 182.445 221.59 182.258C221.179 182.062 220.731 181.964 220.246 181.964C219.788 181.964 219.368 182.039 218.986 182.188C218.603 182.337 218.272 182.552 217.992 182.832C217.712 183.112 217.492 183.443 217.334 183.826C217.184 184.209 217.11 184.633 217.11 185.1C217.11 185.567 217.184 185.991 217.334 186.374C217.492 186.757 217.712 187.088 217.992 187.368C218.272 187.648 218.603 187.863 218.986 188.012C219.368 188.161 219.788 188.236 220.246 188.236C220.731 188.236 221.179 188.143 221.59 187.956C222 187.76 222.374 187.466 222.71 187.074L224.166 188.418C223.699 188.987 223.12 189.421 222.43 189.72C221.748 190.019 220.978 190.168 220.12 190.168ZM224.29 190L227.664 185.576L227.622 186.78L224.388 182.468H226.838L228.882 185.282L227.958 185.31L230.072 182.468H232.396L229.148 186.738V185.562L232.508 190H230.03L227.888 187.004L228.798 187.13L226.67 190H224.29ZM234.181 192.828C233.789 192.828 233.402 192.767 233.019 192.646C232.637 192.525 232.324 192.357 232.081 192.142L232.879 190.588C233.047 190.737 233.239 190.854 233.453 190.938C233.677 191.022 233.897 191.064 234.111 191.064C234.419 191.064 234.662 190.989 234.839 190.84C235.026 190.7 235.194 190.462 235.343 190.126L235.735 189.202L235.903 188.964L238.605 182.468H240.705L237.303 190.462C237.061 191.069 236.781 191.545 236.463 191.89C236.155 192.235 235.81 192.478 235.427 192.618C235.054 192.758 234.639 192.828 234.181 192.828ZM235.469 190.294L232.109 182.468H234.363L236.967 188.768L235.469 190.294ZM246.406 189.02V184.26H243.942L243.9 185.226C243.881 185.627 243.858 186.01 243.83 186.374C243.802 186.738 243.746 187.069 243.662 187.368C243.587 187.657 243.475 187.905 243.326 188.11C243.176 188.306 242.976 188.441 242.724 188.516L240.568 188.208C240.838 188.208 241.058 188.129 241.226 187.97C241.394 187.802 241.524 187.573 241.618 187.284C241.711 186.985 241.781 186.649 241.828 186.276C241.874 185.893 241.907 185.492 241.926 185.072L242.024 182.468H248.59V189.02H246.406ZM240.316 191.624V188.208H249.668V191.624H247.638V190H242.346V191.624H240.316ZM251.042 190V182.468H253.212V185.408H256.488V182.468H258.672V190H256.488V187.186H253.212V190H251.042ZM264.445 190.112C263.586 190.112 262.83 189.944 262.177 189.608C261.533 189.272 261.034 188.815 260.679 188.236C260.324 187.648 260.147 186.981 260.147 186.234C260.147 185.478 260.32 184.811 260.665 184.232C261.02 183.644 261.5 183.187 262.107 182.86C262.714 182.524 263.4 182.356 264.165 182.356C264.902 182.356 265.565 182.515 266.153 182.832C266.75 183.14 267.222 183.588 267.567 184.176C267.912 184.755 268.085 185.45 268.085 186.262C268.085 186.346 268.08 186.444 268.071 186.556C268.062 186.659 268.052 186.757 268.043 186.85H261.925V185.576H266.895L266.055 185.954C266.055 185.562 265.976 185.221 265.817 184.932C265.658 184.643 265.439 184.419 265.159 184.26C264.879 184.092 264.552 184.008 264.179 184.008C263.806 184.008 263.474 184.092 263.185 184.26C262.905 184.419 262.686 184.647 262.527 184.946C262.368 185.235 262.289 185.581 262.289 185.982V186.318C262.289 186.729 262.378 187.093 262.555 187.41C262.742 187.718 262.998 187.956 263.325 188.124C263.661 188.283 264.053 188.362 264.501 188.362C264.902 188.362 265.252 188.301 265.551 188.18C265.859 188.059 266.139 187.877 266.391 187.634L267.553 188.894C267.208 189.286 266.774 189.589 266.251 189.804C265.728 190.009 265.126 190.112 264.445 190.112ZM269.759 190V182.468H271.929V185.408H275.205V182.468H277.389V190H275.205V187.186H271.929V190H269.759ZM279.48 190V182.468H281.65V185.408H284.926V182.468H287.11V190H284.926V187.186H281.65V190H279.48ZM293.946 190V187.494L294.254 187.844H292.168C291.086 187.844 290.236 187.62 289.62 187.172C289.004 186.724 288.696 186.08 288.696 185.24C288.696 184.344 289.018 183.658 289.662 183.182C290.316 182.706 291.193 182.468 292.294 182.468H295.892V190H293.946ZM288.584 190L290.586 187.13H292.812L290.908 190H288.584ZM293.946 186.822V183.686L294.254 184.246H292.336C291.888 184.246 291.538 184.33 291.286 184.498C291.044 184.666 290.922 184.937 290.922 185.31C290.922 186.029 291.384 186.388 292.308 186.388H294.254L293.946 186.822ZM304.504 190.14C303.926 190.14 303.347 190.079 302.768 189.958C302.199 189.837 301.672 189.655 301.186 189.412L301.774 187.886C302.157 188.073 302.572 188.217 303.02 188.32C303.478 188.413 303.94 188.46 304.406 188.46C304.742 188.46 305.032 188.427 305.274 188.362C305.526 188.287 305.718 188.185 305.848 188.054C305.979 187.923 306.044 187.765 306.044 187.578C306.044 187.335 305.942 187.153 305.736 187.032C305.531 186.901 305.232 186.836 304.84 186.836H303.3V185.478H304.658C304.91 185.478 305.125 185.45 305.302 185.394C305.48 185.338 305.61 185.259 305.694 185.156C305.788 185.044 305.834 184.913 305.834 184.764C305.834 184.605 305.778 184.47 305.666 184.358C305.554 184.246 305.391 184.162 305.176 184.106C304.962 184.041 304.691 184.008 304.364 184.008C303.991 184.008 303.604 184.055 303.202 184.148C302.801 184.232 302.39 184.358 301.97 184.526L301.438 183.014C301.933 182.809 302.423 182.645 302.908 182.524C303.394 182.403 303.874 182.337 304.35 182.328C305.05 182.309 305.68 182.384 306.24 182.552C306.8 182.72 307.239 182.963 307.556 183.28C307.883 183.597 308.046 183.985 308.046 184.442C308.046 184.806 307.934 185.133 307.71 185.422C307.496 185.711 307.197 185.94 306.814 186.108C306.432 186.267 306.002 186.346 305.526 186.346L305.582 185.912C306.413 185.912 307.066 186.08 307.542 186.416C308.018 186.743 308.256 187.191 308.256 187.76C308.256 188.245 308.088 188.67 307.752 189.034C307.426 189.389 306.978 189.664 306.408 189.86C305.848 190.047 305.214 190.14 304.504 190.14ZM230.667 215V207.048H227.531V205.2H236.071V207.048H232.935V215H230.667ZM237.137 215V207.468H239.321V215H237.137ZM238.229 206.418C237.828 206.418 237.501 206.301 237.249 206.068C236.997 205.835 236.871 205.545 236.871 205.2C236.871 204.855 236.997 204.565 237.249 204.332C237.501 204.099 237.828 203.982 238.229 203.982C238.63 203.982 238.957 204.094 239.209 204.318C239.461 204.533 239.587 204.813 239.587 205.158C239.587 205.522 239.461 205.825 239.209 206.068C238.966 206.301 238.64 206.418 238.229 206.418ZM241.348 215V204.612H243.532V215H241.348ZM249.143 215.112C248.34 215.112 247.626 214.944 247.001 214.608C246.385 214.272 245.895 213.815 245.531 213.236C245.176 212.648 244.999 211.981 244.999 211.234C244.999 210.478 245.176 209.811 245.531 209.232C245.895 208.644 246.385 208.187 247.001 207.86C247.626 207.524 248.34 207.356 249.143 207.356C249.936 207.356 250.645 207.524 251.271 207.86C251.896 208.187 252.386 208.639 252.741 209.218C253.095 209.797 253.273 210.469 253.273 211.234C253.273 211.981 253.095 212.648 252.741 213.236C252.386 213.815 251.896 214.272 251.271 214.608C250.645 214.944 249.936 215.112 249.143 215.112ZM249.143 213.32C249.507 213.32 249.833 213.236 250.123 213.068C250.412 212.9 250.641 212.662 250.809 212.354C250.977 212.037 251.061 211.663 251.061 211.234C251.061 210.795 250.977 210.422 250.809 210.114C250.641 209.806 250.412 209.568 250.123 209.4C249.833 209.232 249.507 209.148 249.143 209.148C248.779 209.148 248.452 209.232 248.163 209.4C247.873 209.568 247.64 209.806 247.463 210.114C247.295 210.422 247.211 210.795 247.211 211.234C247.211 211.663 247.295 212.037 247.463 212.354C247.64 212.662 247.873 212.9 248.163 213.068C248.452 213.236 248.779 213.32 249.143 213.32ZM254.887 215V205.2H256.763L260.935 212.116H259.941L264.043 205.2H265.905L265.933 215H263.805L263.791 208.462H264.183L260.907 213.964H259.885L256.539 208.462H257.015V215H254.887ZM272.724 215V213.53L272.584 213.208V210.576C272.584 210.109 272.439 209.745 272.15 209.484C271.87 209.223 271.436 209.092 270.848 209.092C270.446 209.092 270.05 209.157 269.658 209.288C269.275 209.409 268.948 209.577 268.678 209.792L267.894 208.266C268.304 207.977 268.799 207.753 269.378 207.594C269.956 207.435 270.544 207.356 271.142 207.356C272.29 207.356 273.181 207.627 273.816 208.168C274.45 208.709 274.768 209.554 274.768 210.702V215H272.724ZM270.428 215.112C269.84 215.112 269.336 215.014 268.916 214.818C268.496 214.613 268.174 214.337 267.95 213.992C267.726 213.647 267.614 213.259 267.614 212.83C267.614 212.382 267.721 211.99 267.936 211.654C268.16 211.318 268.51 211.057 268.986 210.87C269.462 210.674 270.082 210.576 270.848 210.576H272.85V211.85H271.086C270.572 211.85 270.218 211.934 270.022 212.102C269.835 212.27 269.742 212.48 269.742 212.732C269.742 213.012 269.849 213.236 270.064 213.404C270.288 213.563 270.591 213.642 270.974 213.642C271.338 213.642 271.664 213.558 271.954 213.39C272.243 213.213 272.453 212.956 272.584 212.62L272.92 213.628C272.761 214.113 272.472 214.482 272.052 214.734C271.632 214.986 271.09 215.112 270.428 215.112ZM278.55 213.46L278.606 210.8L282.12 207.468H284.724L281.35 210.898L280.216 211.822L278.55 213.46ZM276.744 215V204.612H278.928V215H276.744ZM282.358 215L279.81 211.836L281.182 210.142L285.004 215H282.358ZM289.41 215.112C288.551 215.112 287.795 214.944 287.142 214.608C286.498 214.272 285.999 213.815 285.644 213.236C285.289 212.648 285.112 211.981 285.112 211.234C285.112 210.478 285.285 209.811 285.63 209.232C285.985 208.644 286.465 208.187 287.072 207.86C287.679 207.524 288.365 207.356 289.13 207.356C289.867 207.356 290.53 207.515 291.118 207.832C291.715 208.14 292.187 208.588 292.532 209.176C292.877 209.755 293.05 210.45 293.05 211.262C293.05 211.346 293.045 211.444 293.036 211.556C293.027 211.659 293.017 211.757 293.008 211.85H286.89V210.576H291.86L291.02 210.954C291.02 210.562 290.941 210.221 290.782 209.932C290.623 209.643 290.404 209.419 290.124 209.26C289.844 209.092 289.517 209.008 289.144 209.008C288.771 209.008 288.439 209.092 288.15 209.26C287.87 209.419 287.651 209.647 287.492 209.946C287.333 210.235 287.254 210.581 287.254 210.982V211.318C287.254 211.729 287.343 212.093 287.52 212.41C287.707 212.718 287.963 212.956 288.29 213.124C288.626 213.283 289.018 213.362 289.466 213.362C289.867 213.362 290.217 213.301 290.516 213.18C290.824 213.059 291.104 212.877 291.356 212.634L292.518 213.894C292.173 214.286 291.739 214.589 291.216 214.804C290.693 215.009 290.091 215.112 289.41 215.112ZM294.504 215V207.468H296.59V209.596L296.296 208.98C296.52 208.448 296.879 208.047 297.374 207.776C297.869 207.496 298.471 207.356 299.18 207.356V209.372C299.087 209.363 299.003 209.358 298.928 209.358C298.853 209.349 298.774 209.344 298.69 209.344C298.093 209.344 297.607 209.517 297.234 209.862C296.87 210.198 296.688 210.725 296.688 211.444V215H294.504Z" fill="white"/>
<path fill-rule="evenodd" clip-rule="evenodd" d="M215 0C209.477 0 205 4.47714 205 9.99999V41.4583C205 46.9812 209.477 51.4583 215 51.4583H250.816L260.188 65L269.559 51.4583H307C312.523 51.4583 317 46.9812 317 41.4583V10C317 4.47715 312.523 0 307 0H215Z" fill="#FF7CB2"/>
<path d="M225.515 23.168C224.759 23.168 224.054 23.0467 223.401 22.804C222.757 22.552 222.197 22.1973 221.721 21.74C221.245 21.2827 220.872 20.746 220.601 20.13C220.34 19.514 220.209 18.8373 220.209 18.1C220.209 17.3627 220.34 16.686 220.601 16.07C220.872 15.454 221.245 14.9173 221.721 14.46C222.206 14.0027 222.771 13.6527 223.415 13.41C224.059 13.158 224.764 13.032 225.529 13.032C226.378 13.032 227.144 13.1813 227.825 13.48C228.516 13.7693 229.094 14.1987 229.561 14.768L228.105 16.112C227.769 15.7293 227.396 15.4447 226.985 15.258C226.574 15.062 226.126 14.964 225.641 14.964C225.184 14.964 224.764 15.0387 224.381 15.188C223.998 15.3373 223.667 15.552 223.387 15.832C223.107 16.112 222.888 16.4433 222.729 16.826C222.58 17.2087 222.505 17.6333 222.505 18.1C222.505 18.5667 222.58 18.9913 222.729 19.374C222.888 19.7567 223.107 20.088 223.387 20.368C223.667 20.648 223.998 20.8627 224.381 21.012C224.764 21.1613 225.184 21.236 225.641 21.236C226.126 21.236 226.574 21.1427 226.985 20.956C227.396 20.76 227.769 20.466 228.105 20.074L229.561 21.418C229.094 21.9873 228.516 22.4213 227.825 22.72C227.144 23.0187 226.374 23.168 225.515 23.168ZM229.686 23L233.06 18.576L233.018 19.78L229.784 15.468H232.234L234.278 18.282L233.354 18.31L235.468 15.468H237.792L234.544 19.738V18.562L237.904 23H235.426L233.284 20.004L234.194 20.13L232.066 23H229.686ZM239.577 25.828C239.185 25.828 238.798 25.7673 238.415 25.646C238.032 25.5247 237.72 25.3567 237.477 25.142L238.275 23.588C238.443 23.7373 238.634 23.854 238.849 23.938C239.073 24.022 239.292 24.064 239.507 24.064C239.815 24.064 240.058 23.9893 240.235 23.84C240.422 23.7 240.59 23.462 240.739 23.126L241.131 22.202L241.299 21.964L244.001 15.468H246.101L242.699 23.462C242.456 24.0687 242.176 24.5447 241.859 24.89C241.551 25.2353 241.206 25.478 240.823 25.618C240.45 25.758 240.034 25.828 239.577 25.828ZM240.865 23.294L237.505 15.468H239.759L242.363 21.768L240.865 23.294ZM251.801 22.02V17.26H249.337L249.295 18.226C249.277 18.6273 249.253 19.01 249.225 19.374C249.197 19.738 249.141 20.0693 249.057 20.368C248.983 20.6573 248.871 20.9047 248.721 21.11C248.572 21.306 248.371 21.4413 248.119 21.516L245.963 21.208C246.234 21.208 246.453 21.1287 246.621 20.97C246.789 20.802 246.92 20.5733 247.013 20.284C247.107 19.9853 247.177 19.6493 247.223 19.276C247.27 18.8933 247.303 18.492 247.321 18.072L247.419 15.468H253.985V22.02H251.801ZM245.711 24.624V21.208H255.063V24.624H253.033V23H247.741V24.624H245.711ZM256.438 23V15.468H258.608V18.408H261.884V15.468H264.068V23H261.884V20.186H258.608V23H256.438ZM269.84 23.112C268.982 23.112 268.226 22.944 267.572 22.608C266.928 22.272 266.429 21.8147 266.074 21.236C265.72 20.648 265.542 19.9807 265.542 19.234C265.542 18.478 265.715 17.8107 266.06 17.232C266.415 16.644 266.896 16.1867 267.502 15.86C268.109 15.524 268.795 15.356 269.56 15.356C270.298 15.356 270.96 15.5147 271.548 15.832C272.146 16.14 272.617 16.588 272.962 17.176C273.308 17.7547 273.48 18.45 273.48 19.262C273.48 19.346 273.476 19.444 273.466 19.556C273.457 19.6587 273.448 19.7567 273.438 19.85H267.32V18.576H272.29L271.45 18.954C271.45 18.562 271.371 18.2213 271.212 17.932C271.054 17.6427 270.834 17.4187 270.554 17.26C270.274 17.092 269.948 17.008 269.574 17.008C269.201 17.008 268.87 17.092 268.58 17.26C268.3 17.4187 268.081 17.6473 267.922 17.946C267.764 18.2353 267.684 18.5807 267.684 18.982V19.318C267.684 19.7287 267.773 20.0927 267.95 20.41C268.137 20.718 268.394 20.956 268.72 21.124C269.056 21.2827 269.448 21.362 269.896 21.362C270.298 21.362 270.648 21.3013 270.946 21.18C271.254 21.0587 271.534 20.8767 271.786 20.634L272.948 21.894C272.603 22.286 272.169 22.5893 271.646 22.804C271.124 23.0093 270.522 23.112 269.84 23.112ZM275.154 23V15.468H277.324V18.408H280.6V15.468H282.784V23H280.6V20.186H277.324V23H275.154ZM284.875 23V15.468H287.045V18.408H290.321V15.468H292.505V23H290.321V20.186H287.045V23H284.875ZM299.342 23V20.494L299.65 20.844H297.564C296.481 20.844 295.632 20.62 295.016 20.172C294.4 19.724 294.092 19.08 294.092 18.24C294.092 17.344 294.414 16.658 295.058 16.182C295.711 15.706 296.589 15.468 297.69 15.468H301.288V23H299.342ZM293.98 23L295.982 20.13H298.208L296.304 23H293.98ZM299.342 19.822V16.686L299.65 17.246H297.732C297.284 17.246 296.934 17.33 296.682 17.498C296.439 17.666 296.318 17.9367 296.318 18.31C296.318 19.0287 296.78 19.388 297.704 19.388H299.65L299.342 19.822ZM222.554 40.112C221.742 40.112 221.019 39.9487 220.384 39.622C219.749 39.286 219.25 38.824 218.886 38.236C218.531 37.648 218.354 36.9807 218.354 36.234C218.354 35.478 218.531 34.8107 218.886 34.232C219.25 33.644 219.749 33.1867 220.384 32.86C221.019 32.524 221.742 32.356 222.554 32.356C223.347 32.356 224.038 32.524 224.626 32.86C225.214 33.1867 225.648 33.658 225.928 34.274L224.234 35.184C224.038 34.8293 223.791 34.568 223.492 34.4C223.203 34.232 222.885 34.148 222.54 34.148C222.167 34.148 221.831 34.232 221.532 34.4C221.233 34.568 220.995 34.806 220.818 35.114C220.65 35.422 220.566 35.7953 220.566 36.234C220.566 36.6727 220.65 37.046 220.818 37.354C220.995 37.662 221.233 37.9 221.532 38.068C221.831 38.236 222.167 38.32 222.54 38.32C222.885 38.32 223.203 38.2407 223.492 38.082C223.791 37.914 224.038 37.648 224.234 37.284L225.928 38.208C225.648 38.8147 225.214 39.286 224.626 39.622C224.038 39.9487 223.347 40.112 222.554 40.112ZM231.763 40V38.53L231.623 38.208V35.576C231.623 35.1093 231.478 34.7453 231.189 34.484C230.909 34.2227 230.475 34.092 229.887 34.092C229.486 34.092 229.089 34.1573 228.697 34.288C228.314 34.4093 227.988 34.5773 227.717 34.792L226.933 33.266C227.344 32.9767 227.838 32.7527 228.417 32.594C228.996 32.4353 229.584 32.356 230.181 32.356C231.329 32.356 232.22 32.6267 232.855 33.168C233.49 33.7093 233.807 34.554 233.807 35.702V40H231.763ZM229.467 40.112C228.879 40.112 228.375 40.014 227.955 39.818C227.535 39.6127 227.213 39.3373 226.989 38.992C226.765 38.6467 226.653 38.2593 226.653 37.83C226.653 37.382 226.76 36.99 226.975 36.654C227.199 36.318 227.549 36.0567 228.025 35.87C228.501 35.674 229.122 35.576 229.887 35.576H231.889V36.85H230.125C229.612 36.85 229.257 36.934 229.061 37.102C228.874 37.27 228.781 37.48 228.781 37.732C228.781 38.012 228.888 38.236 229.103 38.404C229.327 38.5627 229.63 38.642 230.013 38.642C230.377 38.642 230.704 38.558 230.993 38.39C231.282 38.2127 231.492 37.956 231.623 37.62L231.959 38.628C231.8 39.1133 231.511 39.482 231.091 39.734C230.671 39.986 230.13 40.112 229.467 40.112ZM235.704 40V32.468H237.986L240.828 37.62H239.918L242.956 32.468H245L245.028 40H243.054V34.708L243.39 34.932L240.8 39.272H239.876L237.272 34.778L237.678 34.68V40H235.704ZM250.648 40.112C249.846 40.112 249.132 39.944 248.506 39.608C247.89 39.272 247.4 38.8147 247.036 38.236C246.682 37.648 246.504 36.9807 246.504 36.234C246.504 35.478 246.682 34.8107 247.036 34.232C247.4 33.644 247.89 33.1867 248.506 32.86C249.132 32.524 249.846 32.356 250.648 32.356C251.442 32.356 252.151 32.524 252.776 32.86C253.402 33.1867 253.892 33.6393 254.246 34.218C254.601 34.7967 254.778 35.4687 254.778 36.234C254.778 36.9807 254.601 37.648 254.246 38.236C253.892 38.8147 253.402 39.272 252.776 39.608C252.151 39.944 251.442 40.112 250.648 40.112ZM250.648 38.32C251.012 38.32 251.339 38.236 251.628 38.068C251.918 37.9 252.146 37.662 252.314 37.354C252.482 37.0367 252.566 36.6633 252.566 36.234C252.566 35.7953 252.482 35.422 252.314 35.114C252.146 34.806 251.918 34.568 251.628 34.4C251.339 34.232 251.012 34.148 250.648 34.148C250.284 34.148 249.958 34.232 249.668 34.4C249.379 34.568 249.146 34.806 248.968 35.114C248.8 35.422 248.716 35.7953 248.716 36.234C248.716 36.6633 248.8 37.0367 248.968 37.354C249.146 37.662 249.379 37.9 249.668 38.068C249.958 38.236 250.284 38.32 250.648 38.32ZM259.864 40.112C259.052 40.112 258.329 39.9487 257.694 39.622C257.06 39.286 256.56 38.824 256.196 38.236C255.842 37.648 255.664 36.9807 255.664 36.234C255.664 35.478 255.842 34.8107 256.196 34.232C256.56 33.644 257.06 33.1867 257.694 32.86C258.329 32.524 259.052 32.356 259.864 32.356C260.658 32.356 261.348 32.524 261.936 32.86C262.524 33.1867 262.958 33.658 263.238 34.274L261.544 35.184C261.348 34.8293 261.101 34.568 260.802 34.4C260.513 34.232 260.196 34.148 259.85 34.148C259.477 34.148 259.141 34.232 258.842 34.4C258.544 34.568 258.306 34.806 258.128 35.114C257.96 35.422 257.876 35.7953 257.876 36.234C257.876 36.6727 257.96 37.046 258.128 37.354C258.306 37.662 258.544 37.9 258.842 38.068C259.141 38.236 259.477 38.32 259.85 38.32C260.196 38.32 260.513 38.2407 260.802 38.082C261.101 37.914 261.348 37.648 261.544 37.284L263.238 38.208C262.958 38.8147 262.524 39.286 261.936 39.622C261.348 39.9487 260.658 40.112 259.864 40.112ZM266.162 40V33.756L266.652 34.26H263.614V32.468H270.88V34.26H267.842L268.332 33.756V40H266.162ZM272.03 40V32.468H274.214V40H272.03ZM273.122 31.418C272.721 31.418 272.394 31.3013 272.142 31.068C271.89 30.8347 271.764 30.5453 271.764 30.2C271.764 29.8547 271.89 29.5653 272.142 29.332C272.394 29.0987 272.721 28.982 273.122 28.982C273.523 28.982 273.85 29.094 274.102 29.318C274.354 29.5327 274.48 29.8127 274.48 30.158C274.48 30.522 274.354 30.8253 274.102 31.068C273.859 31.3013 273.533 31.418 273.122 31.418ZM276.31 40V32.468H278.48V36.948L282.148 32.468H284.15V40H281.98V35.52L278.326 40H276.31ZM280.09 31.656C279.268 31.656 278.652 31.4787 278.242 31.124C277.831 30.76 277.621 30.214 277.612 29.486H279.04C279.049 29.8033 279.138 30.0553 279.306 30.242C279.474 30.4287 279.73 30.522 280.076 30.522C280.412 30.522 280.668 30.4287 280.846 30.242C281.032 30.0553 281.126 29.8033 281.126 29.486H282.582C282.582 30.214 282.372 30.76 281.952 31.124C281.532 31.4787 280.911 31.656 280.09 31.656ZM286.249 40V32.468H288.419V35.408H291.695V32.468H293.879V40H291.695V37.186H288.419V40H286.249ZM299.498 40.112C298.695 40.112 297.981 39.944 297.356 39.608C296.74 39.272 296.25 38.8147 295.886 38.236C295.531 37.648 295.354 36.9807 295.354 36.234C295.354 35.478 295.531 34.8107 295.886 34.232C296.25 33.644 296.74 33.1867 297.356 32.86C297.981 32.524 298.695 32.356 299.498 32.356C300.291 32.356 301.001 32.524 301.626 32.86C302.251 33.1867 302.741 33.6393 303.096 34.218C303.451 34.7967 303.628 35.4687 303.628 36.234C303.628 36.9807 303.451 37.648 303.096 38.236C302.741 38.8147 302.251 39.272 301.626 39.608C301.001 39.944 300.291 40.112 299.498 40.112ZM299.498 38.32C299.862 38.32 300.189 38.236 300.478 38.068C300.767 37.9 300.996 37.662 301.164 37.354C301.332 37.0367 301.416 36.6633 301.416 36.234C301.416 35.7953 301.332 35.422 301.164 35.114C300.996 34.806 300.767 34.568 300.478 34.4C300.189 34.232 299.862 34.148 299.498 34.148C299.134 34.148 298.807 34.232 298.518 34.4C298.229 34.568 297.995 34.806 297.818 35.114C297.65 35.422 297.566 35.7953 297.566 36.234C297.566 36.6633 297.65 37.0367 297.818 37.354C297.995 37.662 298.229 37.9 298.518 38.068C298.807 38.236 299.134 38.32 299.498 38.32Z" fill="white"/>
<path d="M16.0466 313.824L16.4246 313.082C16.854 313.455 17.3346 313.735 17.8666 313.922C18.408 314.099 18.9493 314.193 19.4906 314.202C20.032 314.202 20.5266 314.123 20.9746 313.964C21.432 313.805 21.8006 313.572 22.0806 313.264C22.3606 312.947 22.5006 312.564 22.5006 312.116C22.5006 311.547 22.272 311.108 21.8146 310.8C21.3666 310.492 20.7413 310.338 19.9386 310.338H17.8386V309.498H19.8826C20.5733 309.498 21.11 309.353 21.4926 309.064C21.8846 308.765 22.0806 308.355 22.0806 307.832C22.0806 307.459 21.9686 307.141 21.7446 306.88C21.53 306.609 21.2313 306.404 20.8486 306.264C20.4753 306.115 20.0553 306.035 19.5886 306.026C19.122 306.007 18.6366 306.068 18.1326 306.208C17.638 306.339 17.1573 306.549 16.6906 306.838L16.3546 305.984C16.9333 305.639 17.5353 305.401 18.1606 305.27C18.786 305.13 19.3926 305.083 19.9806 305.13C20.5686 305.177 21.096 305.312 21.5626 305.536C22.0386 305.76 22.4166 306.054 22.6966 306.418C22.9766 306.782 23.1166 307.216 23.1166 307.72C23.1166 308.187 22.9953 308.597 22.7526 308.952C22.5193 309.307 22.188 309.582 21.7586 309.778C21.3386 309.965 20.8393 310.058 20.2606 310.058L20.3166 309.75C20.97 309.75 21.5346 309.853 22.0106 310.058C22.496 310.263 22.8693 310.557 23.1306 310.94C23.4013 311.313 23.5366 311.752 23.5366 312.256C23.5366 312.732 23.4153 313.157 23.1726 313.53C22.9393 313.894 22.6126 314.202 22.1926 314.454C21.782 314.697 21.32 314.874 20.8066 314.986C20.2933 315.089 19.7566 315.117 19.1966 315.07C18.6366 315.023 18.086 314.902 17.5446 314.706C17.0033 314.501 16.504 314.207 16.0466 313.824ZM30.435 315V313.376L30.393 313.11V310.394C30.393 309.769 30.2157 309.288 29.861 308.952C29.5157 308.616 28.9977 308.448 28.307 308.448C27.831 308.448 27.3784 308.527 26.949 308.686C26.5197 308.845 26.1557 309.055 25.857 309.316L25.409 308.574C25.7824 308.257 26.2304 308.014 26.753 307.846C27.2757 307.669 27.8264 307.58 28.405 307.58C29.357 307.58 30.0897 307.818 30.603 308.294C31.1257 308.761 31.387 309.475 31.387 310.436V315H30.435ZM27.901 315.07C27.3504 315.07 26.8697 314.981 26.459 314.804C26.0577 314.617 25.7497 314.365 25.535 314.048C25.3204 313.721 25.213 313.348 25.213 312.928C25.213 312.545 25.3017 312.2 25.479 311.892C25.6657 311.575 25.9644 311.323 26.375 311.136C26.795 310.94 27.355 310.842 28.055 310.842H30.589V311.584H28.083C27.3737 311.584 26.879 311.71 26.599 311.962C26.3284 312.214 26.193 312.527 26.193 312.9C26.193 313.32 26.3564 313.656 26.683 313.908C27.0097 314.16 27.467 314.286 28.055 314.286C28.615 314.286 29.0957 314.16 29.497 313.908C29.9077 313.647 30.2064 313.273 30.393 312.788L30.617 313.474C30.4304 313.959 30.1037 314.347 29.637 314.636C29.1797 314.925 28.601 315.07 27.901 315.07ZM37.8271 315.07C37.1925 315.07 36.6185 314.925 36.1051 314.636C35.5918 314.337 35.1811 313.913 34.8731 313.362C34.5745 312.802 34.4251 312.121 34.4251 311.318C34.4251 310.515 34.5745 309.839 34.8731 309.288C35.1718 308.728 35.5778 308.303 36.0911 308.014C36.6045 307.725 37.1831 307.58 37.8271 307.58C38.5271 307.58 39.1525 307.739 39.7031 308.056C40.2631 308.364 40.7018 308.803 41.0191 309.372C41.3365 309.932 41.4951 310.581 41.4951 311.318C41.4951 312.065 41.3365 312.718 41.0191 313.278C40.7018 313.838 40.2631 314.277 39.7031 314.594C39.1525 314.911 38.5271 315.07 37.8271 315.07ZM34.0331 317.716V307.65H34.9851V309.862L34.8871 311.332L35.0271 312.816V317.716H34.0331ZM37.7571 314.188C38.2798 314.188 38.7465 314.071 39.1571 313.838C39.5678 313.595 39.8945 313.259 40.1371 312.83C40.3798 312.391 40.5011 311.887 40.5011 311.318C40.5011 310.749 40.3798 310.249 40.1371 309.82C39.8945 309.391 39.5678 309.055 39.1571 308.812C38.7465 308.569 38.2798 308.448 37.7571 308.448C37.2345 308.448 36.7631 308.569 36.3431 308.812C35.9325 309.055 35.6058 309.391 35.3631 309.82C35.1298 310.249 35.0131 310.749 35.0131 311.318C35.0131 311.887 35.1298 312.391 35.3631 312.83C35.6058 313.259 35.9325 313.595 36.3431 313.838C36.7631 314.071 37.2345 314.188 37.7571 314.188ZM48.1538 315V313.376L48.1118 313.11V310.394C48.1118 309.769 47.9344 309.288 47.5798 308.952C47.2344 308.616 46.7164 308.448 46.0258 308.448C45.5498 308.448 45.0971 308.527 44.6678 308.686C44.2384 308.845 43.8744 309.055 43.5758 309.316L43.1278 308.574C43.5011 308.257 43.9491 308.014 44.4718 307.846C44.9944 307.669 45.5451 307.58 46.1238 307.58C47.0758 307.58 47.8084 307.818 48.3218 308.294C48.8444 308.761 49.1058 309.475 49.1058 310.436V315H48.1538ZM45.6198 315.07C45.0691 315.07 44.5884 314.981 44.1778 314.804C43.7764 314.617 43.4684 314.365 43.2538 314.048C43.0391 313.721 42.9318 313.348 42.9318 312.928C42.9318 312.545 43.0204 312.2 43.1978 311.892C43.3844 311.575 43.6831 311.323 44.0938 311.136C44.5138 310.94 45.0738 310.842 45.7738 310.842H48.3078V311.584H45.8018C45.0924 311.584 44.5978 311.71 44.3178 311.962C44.0471 312.214 43.9118 312.527 43.9118 312.9C43.9118 313.32 44.0751 313.656 44.4018 313.908C44.7284 314.16 45.1858 314.286 45.7738 314.286C46.3338 314.286 46.8144 314.16 47.2158 313.908C47.6264 313.647 47.9251 313.273 48.1118 312.788L48.3358 313.474C48.1491 313.959 47.8224 314.347 47.3558 314.636C46.8984 314.925 46.3198 315.07 45.6198 315.07ZM53.5755 315.084C53.0435 315.084 52.5162 315.009 51.9935 314.86C51.4708 314.711 51.0088 314.482 50.6075 314.174L50.9295 313.432C51.2842 313.693 51.6948 313.894 52.1615 314.034C52.6282 314.165 53.0902 314.23 53.5475 314.23C54.0048 314.221 54.4015 314.155 54.7375 314.034C55.0735 313.913 55.3348 313.745 55.5215 313.53C55.7082 313.315 55.8015 313.073 55.8015 312.802C55.8015 312.41 55.6242 312.107 55.2695 311.892C54.9148 311.668 54.4295 311.556 53.8135 311.556H52.5535V310.828H53.7435C54.1075 310.828 54.4295 310.781 54.7095 310.688C54.9895 310.595 55.2042 310.459 55.3535 310.282C55.5122 310.105 55.5915 309.895 55.5915 309.652C55.5915 309.391 55.4982 309.167 55.3115 308.98C55.1342 308.793 54.8868 308.653 54.5695 308.56C54.2522 308.467 53.8928 308.42 53.4915 308.42C53.1275 308.429 52.7495 308.485 52.3575 308.588C51.9655 308.681 51.5782 308.826 51.1955 309.022L50.9155 308.252C51.3448 308.028 51.7695 307.86 52.1895 307.748C52.6188 307.627 53.0482 307.566 53.4775 307.566C54.0655 307.547 54.5928 307.617 55.0595 307.776C55.5355 307.935 55.9135 308.163 56.1935 308.462C56.4735 308.751 56.6135 309.101 56.6135 309.512C56.6135 309.876 56.5015 310.193 56.2775 310.464C56.0535 310.735 55.7548 310.945 55.3815 311.094C55.0082 311.243 54.5835 311.318 54.1075 311.318L54.1495 311.052C54.9895 311.052 55.6428 311.215 56.1095 311.542C56.5855 311.869 56.8235 312.312 56.8235 312.872C56.8235 313.311 56.6788 313.698 56.3895 314.034C56.1002 314.361 55.7082 314.617 55.2135 314.804C54.7282 314.991 54.1822 315.084 53.5755 315.084Z" fill="#A0A0A0"/>
<path d="M5.12312 22V12.048L5.61912 12.56H1.42712V10.8H10.8991V12.56H6.70712L7.18712 12.048V22H5.12312ZM12.2659 22L12.2659 13.456H16.4419C17.4765 13.456 18.2872 13.648 18.8739 14.032C19.4712 14.416 19.7699 14.96 19.7699 15.664C19.7699 16.3573 19.4925 16.9013 18.9379 17.296C18.3832 17.68 17.6472 17.872 16.7299 17.872L16.9699 17.376C18.0045 17.376 18.7725 17.568 19.2739 17.952C19.7859 18.3253 20.0419 18.8747 20.0419 19.6C20.0419 20.3573 19.7592 20.9493 19.1939 21.376C18.6285 21.792 17.7699 22 16.6179 22H12.2659ZM14.1699 20.544H16.4579C17.0019 20.544 17.4125 20.4587 17.6899 20.288C17.9672 20.1067 18.1059 19.8347 18.1059 19.472C18.1059 19.088 17.9779 18.8053 17.7219 18.624C17.4659 18.4427 17.0659 18.352 16.5219 18.352H14.1699V20.544ZM14.1699 17.024H16.2659C16.7779 17.024 17.1619 16.9333 17.4179 16.752C17.6845 16.56 17.8179 16.2933 17.8179 15.952C17.8179 15.6 17.6845 15.3387 17.4179 15.168C17.1619 14.9973 16.7779 14.912 16.2659 14.912H14.1699V17.024ZM25.9801 22.112C25.1055 22.112 24.3268 21.9253 23.6441 21.552C22.9615 21.168 22.4228 20.6453 22.0281 19.984C21.6335 19.3227 21.4361 18.5707 21.4361 17.728C21.4361 16.8747 21.6335 16.1227 22.0281 15.472C22.4228 14.8107 22.9615 14.2933 23.6441 13.92C24.3268 13.5467 25.1055 13.36 25.9801 13.36C26.8655 13.36 27.6495 13.5467 28.3321 13.92C29.0255 14.2933 29.5641 14.8053 29.9481 15.456C30.3428 16.1067 30.5401 16.864 30.5401 17.728C30.5401 18.5707 30.3428 19.3227 29.9481 19.984C29.5641 20.6453 29.0255 21.168 28.3321 21.552C27.6495 21.9253 26.8655 22.112 25.9801 22.112ZM25.9801 20.4C26.4708 20.4 26.9081 20.2933 27.2921 20.08C27.6761 19.8667 27.9748 19.5573 28.1881 19.152C28.4121 18.7467 28.5241 18.272 28.5241 17.728C28.5241 17.1733 28.4121 16.6987 28.1881 16.304C27.9748 15.8987 27.6761 15.5893 27.2921 15.376C26.9081 15.1627 26.4761 15.056 25.9961 15.056C25.5055 15.056 25.0681 15.1627 24.6841 15.376C24.3108 15.5893 24.0121 15.8987 23.7881 16.304C23.5641 16.6987 23.4521 17.1733 23.4521 17.728C23.4521 18.272 23.5641 18.7467 23.7881 19.152C24.0121 19.5573 24.3108 19.8667 24.6841 20.08C25.0681 20.2933 25.5001 20.4 25.9801 20.4ZM37.6586 22V19.088L37.9466 19.424L35.3866 19.424C34.2133 19.424 33.2906 19.1787 32.6186 18.688C31.9573 18.1867 31.6266 17.4667 31.6266 16.528C31.6266 15.5253 31.9786 14.7627 32.6826 14.24C33.3973 13.7173 34.3466 13.456 35.5306 13.456H39.4506V22H37.6586ZM31.5146 22L33.8186 18.736L35.8666 18.736L33.6586 22H31.5146ZM37.6586 18.448V14.608L37.9466 15.136H35.5946C34.976 15.136 34.496 15.2533 34.1546 15.488C33.824 15.712 33.6586 16.08 33.6586 16.592C33.6586 17.552 34.2826 18.032 35.5306 18.032H37.9466L37.6586 18.448ZM3.83619 42L3.83619 33.456H8.01219C9.04685 33.456 9.85752 33.648 10.4442 34.032C11.0415 34.416 11.3402 34.96 11.3402 35.664C11.3402 36.3573 11.0629 36.9013 10.5082 37.296C9.95352 37.68 9.21752 37.872 8.30019 37.872L8.54019 37.376C9.57485 37.376 10.3429 37.568 10.8442 37.952C11.3562 38.3253 11.6122 38.8747 11.6122 39.6C11.6122 40.3573 11.3295 40.9493 10.7642 41.376C10.1989 41.792 9.34019 42 8.18819 42H3.83619ZM5.74019 40.544H8.02819C8.57219 40.544 8.98285 40.4587 9.26019 40.288C9.53752 40.1067 9.67619 39.8347 9.67619 39.472C9.67619 39.088 9.54819 38.8053 9.29219 38.624C9.03619 38.4427 8.63619 38.352 8.09219 38.352H5.74019V40.544ZM5.74019 37.024H7.83619C8.34819 37.024 8.73219 36.9333 8.98819 36.752C9.25485 36.56 9.38819 36.2933 9.38819 35.952C9.38819 35.6 9.25485 35.3387 8.98819 35.168C8.73219 34.9973 8.34819 34.912 7.83619 34.912H5.74019L5.74019 37.024ZM18.9264 42V40.272L18.8144 39.904V36.88C18.8144 36.2933 18.6384 35.84 18.2864 35.52C17.9344 35.1893 17.4011 35.024 16.6864 35.024C16.2064 35.024 15.7318 35.0987 15.2624 35.248C14.8038 35.3973 14.4144 35.6053 14.0944 35.872L13.3104 34.416C13.7691 34.064 14.3131 33.8027 14.9424 33.632C15.5824 33.4507 16.2438 33.36 16.9264 33.36C18.1638 33.36 19.1184 33.6587 19.7904 34.256C20.4731 34.8427 20.8144 35.7547 20.8144 36.992V42H18.9264ZM16.2384 42.112C15.5984 42.112 15.0384 42.0053 14.5584 41.792C14.0784 41.568 13.7051 41.264 13.4384 40.88C13.1824 40.4853 13.0544 40.0427 13.0544 39.552C13.0544 39.072 13.1664 38.64 13.3904 38.256C13.6251 37.872 14.0038 37.568 14.5264 37.344C15.0491 37.12 15.7424 37.008 16.6064 37.008H19.0864V38.336H16.7504C16.0678 38.336 15.6091 38.448 15.3744 38.672C15.1398 38.8853 15.0224 39.152 15.0224 39.472C15.0224 39.8347 15.1664 40.1227 15.4544 40.336C15.7424 40.5493 16.1424 40.656 16.6544 40.656C17.1451 40.656 17.5824 40.544 17.9664 40.32C18.3611 40.096 18.6438 39.7653 18.8144 39.328L19.1504 40.528C18.9584 41.0293 18.6118 41.4187 18.1104 41.696C17.6198 41.9733 16.9958 42.112 16.2384 42.112ZM23.2893 42V33.456H29.8493V35.152H24.8253L25.2893 34.704V42H23.2893ZM36.4889 42V40.272L36.3769 39.904V36.88C36.3769 36.2933 36.2009 35.84 35.8489 35.52C35.4969 35.1893 34.9636 35.024 34.2489 35.024C33.7689 35.024 33.2943 35.0987 32.8249 35.248C32.3663 35.3973 31.9769 35.6053 31.6569 35.872L30.8729 34.416C31.3316 34.064 31.8756 33.8027 32.5049 33.632C33.1449 33.4507 33.8063 33.36 34.4889 33.36C35.7263 33.36 36.6809 33.6587 37.3529 34.256C38.0356 34.8427 38.3769 35.7547 38.3769 36.992V42H36.4889ZM33.8009 42.112C33.1609 42.112 32.6009 42.0053 32.1209 41.792C31.6409 41.568 31.2676 41.264 31.0009 40.88C30.7449 40.4853 30.6169 40.0427 30.6169 39.552C30.6169 39.072 30.7289 38.64 30.9529 38.256C31.1876 37.872 31.5663 37.568 32.0889 37.344C32.6116 37.12 33.3049 37.008 34.1689 37.008H36.6489V38.336H34.3129C33.6303 38.336 33.1716 38.448 32.9369 38.672C32.7023 38.8853 32.5849 39.152 32.5849 39.472C32.5849 39.8347 32.7289 40.1227 33.0169 40.336C33.3049 40.5493 33.7049 40.656 34.2169 40.656C34.7076 40.656 35.1449 40.544 35.5289 40.32C35.9236 40.096 36.2063 39.7653 36.3769 39.328L36.7129 40.528C36.5209 41.0293 36.1743 41.4187 35.6729 41.696C35.1823 41.9733 34.5583 42.112 33.8009 42.112Z" fill="#181616"/>
<path d="M226.96 310.856C226.4 311.108 225.84 311.299 225.28 311.43C224.729 311.561 224.197 311.626 223.684 311.626C222.536 311.626 221.64 311.351 220.996 310.8C220.361 310.24 220.044 309.451 220.044 308.434V305.2H221.066V308.322C221.066 309.078 221.304 309.666 221.78 310.086C222.265 310.506 222.932 310.716 223.782 310.716C224.286 310.716 224.808 310.651 225.35 310.52C225.891 310.38 226.428 310.184 226.96 309.932V310.856ZM226.778 315V305.2H227.786V315H226.778ZM234.022 315.07C233.257 315.07 232.585 314.911 232.006 314.594C231.427 314.267 230.975 313.824 230.648 313.264C230.321 312.695 230.158 312.046 230.158 311.318C230.158 310.59 230.312 309.946 230.62 309.386C230.937 308.826 231.367 308.387 231.908 308.07C232.459 307.743 233.075 307.58 233.756 307.58C234.447 307.58 235.058 307.739 235.59 308.056C236.131 308.364 236.556 308.803 236.864 309.372C237.172 309.932 237.326 310.581 237.326 311.318C237.326 311.365 237.321 311.416 237.312 311.472C237.312 311.519 237.312 311.57 237.312 311.626H230.914V310.884H236.78L236.388 311.178C236.388 310.646 236.271 310.175 236.038 309.764C235.814 309.344 235.506 309.017 235.114 308.784C234.722 308.551 234.269 308.434 233.756 308.434C233.252 308.434 232.799 308.551 232.398 308.784C231.997 309.017 231.684 309.344 231.46 309.764C231.236 310.184 231.124 310.665 231.124 311.206V311.36C231.124 311.92 231.245 312.415 231.488 312.844C231.74 313.264 232.085 313.595 232.524 313.838C232.972 314.071 233.481 314.188 234.05 314.188C234.498 314.188 234.913 314.109 235.296 313.95C235.688 313.791 236.024 313.549 236.304 313.222L236.864 313.866C236.537 314.258 236.127 314.557 235.632 314.762C235.147 314.967 234.61 315.07 234.022 315.07ZM243.32 315.07C242.686 315.07 242.112 314.925 241.598 314.636C241.085 314.337 240.674 313.913 240.366 313.362C240.068 312.802 239.918 312.121 239.918 311.318C239.918 310.515 240.068 309.839 240.366 309.288C240.665 308.728 241.071 308.303 241.584 308.014C242.098 307.725 242.676 307.58 243.32 307.58C244.02 307.58 244.646 307.739 245.196 308.056C245.756 308.364 246.195 308.803 246.512 309.372C246.83 309.932 246.988 310.581 246.988 311.318C246.988 312.065 246.83 312.718 246.512 313.278C246.195 313.838 245.756 314.277 245.196 314.594C244.646 314.911 244.02 315.07 243.32 315.07ZM239.526 317.716V307.65H240.478V309.862L240.38 311.332L240.52 312.816V317.716H239.526ZM243.25 314.188C243.773 314.188 244.24 314.071 244.65 313.838C245.061 313.595 245.388 313.259 245.63 312.83C245.873 312.391 245.994 311.887 245.994 311.318C245.994 310.749 245.873 310.249 245.63 309.82C245.388 309.391 245.061 309.055 244.65 308.812C244.24 308.569 243.773 308.448 243.25 308.448C242.728 308.448 242.256 308.569 241.836 308.812C241.426 309.055 241.099 309.391 240.856 309.82C240.623 310.249 240.506 310.749 240.506 311.318C240.506 311.887 240.623 312.391 240.856 312.83C241.099 313.259 241.426 313.595 241.836 313.838C242.256 314.071 242.728 314.188 243.25 314.188ZM252.274 315.07C251.509 315.07 250.837 314.911 250.258 314.594C249.679 314.267 249.227 313.824 248.9 313.264C248.573 312.695 248.41 312.046 248.41 311.318C248.41 310.59 248.564 309.946 248.872 309.386C249.189 308.826 249.619 308.387 250.16 308.07C250.711 307.743 251.327 307.58 252.008 307.58C252.699 307.58 253.31 307.739 253.842 308.056C254.383 308.364 254.808 308.803 255.116 309.372C255.424 309.932 255.578 310.581 255.578 311.318C255.578 311.365 255.573 311.416 255.564 311.472C255.564 311.519 255.564 311.57 255.564 311.626H249.166V310.884H255.032L254.64 311.178C254.64 310.646 254.523 310.175 254.29 309.764C254.066 309.344 253.758 309.017 253.366 308.784C252.974 308.551 252.521 308.434 252.008 308.434C251.504 308.434 251.051 308.551 250.65 308.784C250.249 309.017 249.936 309.344 249.712 309.764C249.488 310.184 249.376 310.665 249.376 311.206V311.36C249.376 311.92 249.497 312.415 249.74 312.844C249.992 313.264 250.337 313.595 250.776 313.838C251.224 314.071 251.733 314.188 252.302 314.188C252.75 314.188 253.165 314.109 253.548 313.95C253.94 313.791 254.276 313.549 254.556 313.222L255.116 313.866C254.789 314.258 254.379 314.557 253.884 314.762C253.399 314.967 252.862 315.07 252.274 315.07ZM259.547 315.084C259.015 315.084 258.488 315.009 257.965 314.86C257.443 314.711 256.981 314.482 256.579 314.174L256.901 313.432C257.256 313.693 257.667 313.894 258.133 314.034C258.6 314.165 259.062 314.23 259.519 314.23C259.977 314.221 260.373 314.155 260.709 314.034C261.045 313.913 261.307 313.745 261.493 313.53C261.68 313.315 261.773 313.073 261.773 312.802C261.773 312.41 261.596 312.107 261.241 311.892C260.887 311.668 260.401 311.556 259.785 311.556H258.525V310.828H259.715C260.079 310.828 260.401 310.781 260.681 310.688C260.961 310.595 261.176 310.459 261.325 310.282C261.484 310.105 261.563 309.895 261.563 309.652C261.563 309.391 261.47 309.167 261.283 308.98C261.106 308.793 260.859 308.653 260.541 308.56C260.224 308.467 259.865 308.42 259.463 308.42C259.099 308.429 258.721 308.485 258.329 308.588C257.937 308.681 257.55 308.826 257.167 309.022L256.887 308.252C257.317 308.028 257.741 307.86 258.161 307.748C258.591 307.627 259.02 307.566 259.449 307.566C260.037 307.547 260.565 307.617 261.031 307.776C261.507 307.935 261.885 308.163 262.165 308.462C262.445 308.751 262.585 309.101 262.585 309.512C262.585 309.876 262.473 310.193 262.249 310.464C262.025 310.735 261.727 310.945 261.353 311.094C260.98 311.243 260.555 311.318 260.079 311.318L260.121 311.052C260.961 311.052 261.615 311.215 262.081 311.542C262.557 311.869 262.795 312.312 262.795 312.872C262.795 313.311 262.651 313.698 262.361 314.034C262.072 314.361 261.68 314.617 261.185 314.804C260.7 314.991 260.154 315.084 259.547 315.084ZM268.716 315V307.65H269.724L273.056 313.292H272.636L276.024 307.65H276.948V315H276.038V308.784L276.22 308.868L273.056 314.104H272.608L269.416 308.812L269.626 308.77V315H268.716ZM279.776 315V307.65H280.77V315H279.776ZM280.28 306.026C280.075 306.026 279.902 305.956 279.762 305.816C279.622 305.676 279.552 305.508 279.552 305.312C279.552 305.116 279.622 304.953 279.762 304.822C279.902 304.682 280.075 304.612 280.28 304.612C280.486 304.612 280.658 304.677 280.798 304.808C280.938 304.939 281.008 305.102 281.008 305.298C281.008 305.503 280.938 305.676 280.798 305.816C280.668 305.956 280.495 306.026 280.28 306.026ZM286.684 315.07C285.956 315.07 285.303 314.911 284.724 314.594C284.155 314.267 283.707 313.824 283.38 313.264C283.054 312.695 282.89 312.046 282.89 311.318C282.89 310.581 283.054 309.932 283.38 309.372C283.707 308.812 284.155 308.373 284.724 308.056C285.303 307.739 285.956 307.58 286.684 307.58C287.31 307.58 287.874 307.701 288.378 307.944C288.882 308.187 289.279 308.551 289.568 309.036L288.826 309.54C288.574 309.167 288.262 308.891 287.888 308.714C287.515 308.537 287.109 308.448 286.67 308.448C286.148 308.448 285.676 308.569 285.256 308.812C284.836 309.045 284.505 309.377 284.262 309.806C284.02 310.235 283.898 310.739 283.898 311.318C283.898 311.897 284.02 312.401 284.262 312.83C284.505 313.259 284.836 313.595 285.256 313.838C285.676 314.071 286.148 314.188 286.67 314.188C287.109 314.188 287.515 314.099 287.888 313.922C288.262 313.745 288.574 313.474 288.826 313.11L289.568 313.614C289.279 314.09 288.882 314.454 288.378 314.706C287.874 314.949 287.31 315.07 286.684 315.07ZM295.993 315V312.354L296.175 312.564H293.683C292.74 312.564 292.003 312.359 291.471 311.948C290.939 311.537 290.673 310.94 290.673 310.156C290.673 309.316 290.958 308.691 291.527 308.28C292.096 307.86 292.857 307.65 293.809 307.65H296.903V315H295.993ZM290.617 315L292.633 312.172H293.669L291.695 315H290.617ZM295.993 312.06V308.224L296.175 308.518H293.837C293.156 308.518 292.624 308.649 292.241 308.91C291.868 309.171 291.681 309.596 291.681 310.184C291.681 311.276 292.376 311.822 293.767 311.822H296.175L295.993 312.06ZM299.737 315V307.65H300.731V314.132H305.225V307.65H306.219V315H299.737ZM306.471 316.778V314.916L306.723 315H305.225V314.132H307.409V316.778H306.471ZM312.472 310.24C313.396 310.249 314.096 310.455 314.572 310.856C315.057 311.257 315.3 311.836 315.3 312.592C315.3 313.376 315.038 313.978 314.516 314.398C314.002 314.818 313.256 315.023 312.276 315.014L309.308 315V307.65H310.302V310.212L312.472 310.24ZM312.22 314.258C312.901 314.267 313.414 314.132 313.76 313.852C314.114 313.563 314.292 313.143 314.292 312.592C314.292 312.041 314.119 311.64 313.774 311.388C313.428 311.127 312.91 310.991 312.22 310.982L310.302 310.954V314.23L312.22 314.258Z" fill="#A0A0A0"/>
</svg>
