<svg width="318" height="278" viewBox="0 0 318 278" fill="none" xmlns="http://www.w3.org/2000/svg">
<path d="M10.5079 10.438C10.5079 10.998 10.3632 11.4693 10.0739 11.852C9.78453 12.2253 9.39253 12.51 8.89787 12.706C8.41253 12.902 7.88053 13 7.30187 13H2.49987V3.06H7.81987C8.28653 3.06 8.68787 3.186 9.02387 3.438C9.3692 3.68067 9.63053 3.998 9.80787 4.39C9.99453 4.77267 10.0879 5.174 10.0879 5.594C10.0879 6.07 9.96653 6.52267 9.72387 6.952C9.4812 7.38133 9.12653 7.69867 8.65987 7.904C9.2292 8.072 9.6772 8.37533 10.0039 8.814C10.3399 9.25267 10.5079 9.794 10.5079 10.438ZM8.56187 10.074C8.56187 9.822 8.51053 9.598 8.40787 9.402C8.3052 9.19667 8.1652 9.038 7.98787 8.926C7.81987 8.80467 7.62387 8.744 7.39987 8.744H4.43187V11.362H7.30187C7.5352 11.362 7.7452 11.306 7.93187 11.194C8.12787 11.0727 8.28187 10.914 8.39387 10.718C8.50587 10.522 8.56187 10.3073 8.56187 10.074ZM4.43187 4.712V7.218H7.00787C7.22253 7.218 7.41853 7.16667 7.59587 7.064C7.7732 6.96133 7.9132 6.81667 8.01587 6.63C8.12787 6.44333 8.18387 6.21933 8.18387 5.958C8.18387 5.706 8.13253 5.48667 8.02987 5.3C7.93653 5.11333 7.80587 4.96867 7.63787 4.866C7.4792 4.76333 7.2972 4.712 7.09187 4.712H4.43187ZM13.4728 13V7.302H11.1488V5.664H17.6868V7.302H15.3488V13H13.4728ZM23.1338 13.14C22.5645 13.14 22.0605 13.014 21.6218 12.762C21.1925 12.5007 20.8565 12.1507 20.6138 11.712V15.982H18.7378V5.664H20.3758V6.924C20.6558 6.49467 21.0105 6.15867 21.4398 5.916C21.8691 5.664 22.3591 5.538 22.9098 5.538C23.4045 5.538 23.8571 5.636 24.2678 5.832C24.6878 6.028 25.0518 6.30333 25.3598 6.658C25.6678 7.00333 25.9058 7.40467 26.0738 7.862C26.2511 8.31 26.3398 8.79533 26.3398 9.318C26.3398 10.0273 26.1998 10.6713 25.9198 11.25C25.6491 11.8287 25.2711 12.2907 24.7858 12.636C24.3098 12.972 23.7591 13.14 23.1338 13.14ZM22.5038 11.544C22.7931 11.544 23.0545 11.4833 23.2878 11.362C23.5211 11.2407 23.7218 11.0773 23.8898 10.872C24.0671 10.6573 24.1978 10.4193 24.2818 10.158C24.3751 9.88733 24.4218 9.60733 24.4218 9.318C24.4218 9.01 24.3705 8.72533 24.2678 8.464C24.1745 8.20267 24.0345 7.974 23.8478 7.778C23.6611 7.57267 23.4418 7.414 23.1898 7.302C22.9471 7.19 22.6811 7.134 22.3918 7.134C22.2145 7.134 22.0325 7.16667 21.8458 7.232C21.6685 7.288 21.4958 7.372 21.3278 7.484C21.1598 7.596 21.0105 7.72667 20.8798 7.876C20.7585 8.02533 20.6698 8.18867 20.6138 8.366V10.088C20.7258 10.3587 20.8751 10.606 21.0618 10.83C21.2578 11.054 21.4818 11.2313 21.7338 11.362C21.9858 11.4833 22.2425 11.544 22.5038 11.544ZM27.1068 10.83C27.1068 10.354 27.2375 9.93867 27.4988 9.584C27.7695 9.22 28.1428 8.94 28.6188 8.744C29.0948 8.548 29.6408 8.45 30.2568 8.45C30.5648 8.45 30.8775 8.47333 31.1948 8.52C31.5122 8.56667 31.7875 8.64133 32.0208 8.744V8.352C32.0208 7.88533 31.8808 7.526 31.6008 7.274C31.3302 7.022 30.9242 6.896 30.3828 6.896C29.9815 6.896 29.5988 6.966 29.2348 7.106C28.8708 7.246 28.4882 7.45133 28.0868 7.722L27.4848 6.49C27.9702 6.17267 28.4648 5.93467 28.9688 5.776C29.4822 5.61733 30.0188 5.538 30.5788 5.538C31.6242 5.538 32.4362 5.79933 33.0148 6.322C33.6028 6.84467 33.8968 7.59133 33.8968 8.562V10.9C33.8968 11.096 33.9295 11.236 33.9948 11.32C34.0695 11.404 34.1862 11.4553 34.3448 11.474V13C34.1768 13.028 34.0228 13.0513 33.8828 13.07C33.7522 13.0887 33.6402 13.098 33.5468 13.098C33.1735 13.098 32.8888 13.014 32.6928 12.846C32.5062 12.678 32.3895 12.4727 32.3428 12.23L32.3008 11.852C31.9835 12.2627 31.5868 12.58 31.1108 12.804C30.6348 13.028 30.1495 13.14 29.6548 13.14C29.1695 13.14 28.7308 13.042 28.3388 12.846C27.9562 12.6407 27.6528 12.3653 27.4288 12.02C27.2142 11.6653 27.1068 11.2687 27.1068 10.83ZM31.6708 11.208C31.7735 11.096 31.8575 10.984 31.9228 10.872C31.9882 10.76 32.0208 10.6573 32.0208 10.564V9.822C31.7968 9.72867 31.5542 9.65867 31.2928 9.612C31.0315 9.556 30.7842 9.528 30.5508 9.528C30.0655 9.528 29.6642 9.63533 29.3468 9.85C29.0388 10.0553 28.8848 10.3307 28.8848 10.676C28.8848 10.8627 28.9362 11.04 29.0388 11.208C29.1415 11.376 29.2908 11.5113 29.4868 11.614C29.6828 11.7167 29.9162 11.768 30.1868 11.768C30.4668 11.768 30.7422 11.7167 31.0128 11.614C31.2835 11.502 31.5028 11.3667 31.6708 11.208ZM37.2619 13V7.302H34.9379V5.664H41.4759V7.302H39.1379V13H37.2619ZM41.9955 10.83C41.9955 10.354 42.1262 9.93867 42.3875 9.584C42.6582 9.22 43.0315 8.94 43.5075 8.744C43.9835 8.548 44.5295 8.45 45.1455 8.45C45.4535 8.45 45.7662 8.47333 46.0835 8.52C46.4008 8.56667 46.6762 8.64133 46.9095 8.744V8.352C46.9095 7.88533 46.7695 7.526 46.4895 7.274C46.2188 7.022 45.8128 6.896 45.2715 6.896C44.8702 6.896 44.4875 6.966 44.1235 7.106C43.7595 7.246 43.3768 7.45133 42.9755 7.722L42.3735 6.49C42.8588 6.17267 43.3535 5.93467 43.8575 5.776C44.3708 5.61733 44.9075 5.538 45.4675 5.538C46.5128 5.538 47.3248 5.79933 47.9035 6.322C48.4915 6.84467 48.7855 7.59133 48.7855 8.562V10.9C48.7855 11.096 48.8182 11.236 48.8835 11.32C48.9582 11.404 49.0748 11.4553 49.2335 11.474V13C49.0655 13.028 48.9115 13.0513 48.7715 13.07C48.6408 13.0887 48.5288 13.098 48.4355 13.098C48.0622 13.098 47.7775 13.014 47.5815 12.846C47.3948 12.678 47.2782 12.4727 47.2315 12.23L47.1895 11.852C46.8722 12.2627 46.4755 12.58 45.9995 12.804C45.5235 13.028 45.0382 13.14 44.5435 13.14C44.0582 13.14 43.6195 13.042 43.2275 12.846C42.8448 12.6407 42.5415 12.3653 42.3175 12.02C42.1028 11.6653 41.9955 11.2687 41.9955 10.83ZM46.5595 11.208C46.6622 11.096 46.7462 10.984 46.8115 10.872C46.8768 10.76 46.9095 10.6573 46.9095 10.564V9.822C46.6855 9.72867 46.4428 9.65867 46.1815 9.612C45.9202 9.556 45.6728 9.528 45.4395 9.528C44.9542 9.528 44.5528 9.63533 44.2355 9.85C43.9275 10.0553 43.7735 10.3307 43.7735 10.676C43.7735 10.8627 43.8248 11.04 43.9275 11.208C44.0302 11.376 44.1795 11.5113 44.3755 11.614C44.5715 11.7167 44.8048 11.768 45.0755 11.768C45.3555 11.768 45.6308 11.7167 45.9015 11.614C46.1722 11.502 46.3915 11.3667 46.5595 11.208ZM53.9019 13V5.664H57.9899C58.4939 5.664 58.8999 5.748 59.2079 5.916C59.5252 6.084 59.7585 6.30333 59.9079 6.574C60.0572 6.84467 60.1319 7.134 60.1319 7.442C60.1319 7.85267 60.0385 8.212 59.8519 8.52C59.6745 8.828 59.3945 9.066 59.0119 9.234C59.4412 9.35533 59.7912 9.56533 60.0619 9.864C60.3325 10.1533 60.4679 10.536 60.4679 11.012C60.4679 11.4693 60.3605 11.8473 60.1459 12.146C59.9312 12.4353 59.6232 12.65 59.2219 12.79C58.8205 12.93 58.3445 13 57.7939 13H53.9019ZM55.6799 11.726H57.7379C57.9059 11.726 58.0599 11.684 58.1999 11.6C58.3399 11.516 58.4472 11.404 58.5219 11.264C58.6059 11.124 58.6479 10.97 58.6479 10.802C58.6479 10.6247 58.6105 10.4707 58.5359 10.34C58.4612 10.2 58.3539 10.0927 58.2139 10.018C58.0832 9.934 57.9292 9.892 57.7519 9.892H55.6799V11.726ZM55.6799 8.716H57.5139C57.6819 8.716 57.8312 8.674 57.9619 8.59C58.0925 8.506 58.1905 8.394 58.2559 8.254C58.3305 8.114 58.3679 7.96 58.3679 7.792C58.3679 7.54933 58.2885 7.34867 58.1299 7.19C57.9805 7.022 57.7799 6.938 57.5279 6.938H55.6799V8.716ZM61.3275 10.83C61.3275 10.354 61.4582 9.93867 61.7195 9.584C61.9902 9.22 62.3635 8.94 62.8395 8.744C63.3155 8.548 63.8615 8.45 64.4775 8.45C64.7855 8.45 65.0982 8.47333 65.4155 8.52C65.7329 8.56667 66.0082 8.64133 66.2415 8.744V8.352C66.2415 7.88533 66.1015 7.526 65.8215 7.274C65.5509 7.022 65.1449 6.896 64.6035 6.896C64.2022 6.896 63.8195 6.966 63.4555 7.106C63.0915 7.246 62.7089 7.45133 62.3075 7.722L61.7055 6.49C62.1909 6.17267 62.6855 5.93467 63.1895 5.776C63.7029 5.61733 64.2395 5.538 64.7995 5.538C65.8449 5.538 66.6569 5.79933 67.2355 6.322C67.8235 6.84467 68.1175 7.59133 68.1175 8.562V10.9C68.1175 11.096 68.1502 11.236 68.2155 11.32C68.2902 11.404 68.4069 11.4553 68.5655 11.474V13C68.3975 13.028 68.2435 13.0513 68.1035 13.07C67.9729 13.0887 67.8609 13.098 67.7675 13.098C67.3942 13.098 67.1095 13.014 66.9135 12.846C66.7269 12.678 66.6102 12.4727 66.5635 12.23L66.5215 11.852C66.2042 12.2627 65.8075 12.58 65.3315 12.804C64.8555 13.028 64.3702 13.14 63.8755 13.14C63.3902 13.14 62.9515 13.042 62.5595 12.846C62.1769 12.6407 61.8735 12.3653 61.6495 12.02C61.4349 11.6653 61.3275 11.2687 61.3275 10.83ZM65.8915 11.208C65.9942 11.096 66.0782 10.984 66.1435 10.872C66.2089 10.76 66.2415 10.6573 66.2415 10.564V9.822C66.0175 9.72867 65.7749 9.65867 65.5135 9.612C65.2522 9.556 65.0049 9.528 64.7715 9.528C64.2862 9.528 63.8849 9.63533 63.5675 9.85C63.2595 10.0553 63.1055 10.3307 63.1055 10.676C63.1055 10.8627 63.1569 11.04 63.2595 11.208C63.3622 11.376 63.5115 11.5113 63.7075 11.614C63.9035 11.7167 64.1369 11.768 64.4075 11.768C64.6875 11.768 64.9629 11.7167 65.2335 11.614C65.5042 11.502 65.7235 11.3667 65.8915 11.208ZM69.8706 13V5.664H74.7286V7.302H71.7466V13H69.8706ZM75.8042 13V5.678H77.6802V10.494L80.9702 5.664H82.6782V13H80.8022V8.296L77.5542 13H75.8042Z" fill="#181616"/>
<rect x="1" y="29" width="317" height="111" fill="#A9CD50" fill-opacity="0.18"/>
<line x1="1" y1="28.5" x2="318" y2="28.5" stroke="#C3C3C3" stroke-dasharray="6 6"/>
<line x1="1" y1="84.5" x2="318" y2="84.5" stroke="#C3C3C3" stroke-dasharray="6 6"/>
<line x1="1" y1="140.5" x2="318" y2="140.5" stroke="#C3C3C3" stroke-dasharray="6 6"/>
<line x1="1" y1="196.5" x2="318" y2="196.5" stroke="#C3C3C3" stroke-dasharray="6 6"/>
<path d="M1 253H317" stroke="#C3C3C3" stroke-width="1.5" stroke-linecap="round"/>
<path d="M27.75 160C27.75 149.369 36.3685 140.75 47 140.75H106C116.631 140.75 125.25 149.369 125.25 160V252.25H27.75V160Z" fill="#FFC5DD"/>
<path d="M27.75 160C27.75 149.369 36.3685 140.75 47 140.75H106C116.631 140.75 125.25 149.369 125.25 160V252.25H27.75V160Z" stroke="#FF95C0" stroke-width="1.5"/>
<path d="M39.2917 170.04C39.2917 169.563 39.376 169.098 39.5447 168.643C39.7207 168.181 39.9737 167.763 40.3037 167.389C40.6337 167.008 41.037 166.707 41.5137 166.487C41.9904 166.26 42.533 166.146 43.1417 166.146C43.8604 166.146 44.48 166.304 45.0007 166.619C45.5287 166.934 45.921 167.345 46.1777 167.851L45.0117 168.654C44.8797 168.361 44.7074 168.13 44.4947 167.961C44.282 167.785 44.0547 167.664 43.8127 167.598C43.5707 167.525 43.3324 167.488 43.0977 167.488C42.7164 167.488 42.3827 167.565 42.0967 167.719C41.818 167.873 41.5834 168.075 41.3927 168.324C41.202 168.573 41.059 168.852 40.9637 169.16C40.8757 169.468 40.8317 169.776 40.8317 170.084C40.8317 170.429 40.8867 170.762 40.9967 171.085C41.1067 171.4 41.2607 171.683 41.4587 171.932C41.664 172.174 41.906 172.368 42.1847 172.515C42.4707 172.654 42.7824 172.724 43.1197 172.724C43.3617 172.724 43.6074 172.684 43.8567 172.603C44.106 172.522 44.337 172.394 44.5497 172.218C44.7624 172.042 44.9274 171.815 45.0447 171.536L46.2877 172.251C46.1337 172.64 45.8807 172.97 45.5287 173.241C45.184 173.512 44.7954 173.718 44.3627 173.857C43.93 173.996 43.501 174.066 43.0757 174.066C42.5184 174.066 42.0087 173.952 41.5467 173.725C41.0847 173.49 40.685 173.182 40.3477 172.801C40.0177 172.412 39.7574 171.98 39.5667 171.503C39.3834 171.019 39.2917 170.531 39.2917 170.04ZM49.3213 166.19H50.8613L53.7323 174H52.1703L51.4443 172.053H48.7163L48.0013 174H46.4393L49.3213 166.19ZM51.1693 170.986L50.0913 167.763L48.9693 170.986H51.1693ZM60.9579 174V168.874L58.9559 172.691H58.1089L56.1069 168.874V174H54.5889V166.19H56.2169L58.5269 170.634L60.8589 166.19H62.4759V174H60.9579ZM67.4395 174.055C66.8675 174.055 66.3468 173.945 65.8775 173.725C65.4155 173.505 65.0158 173.208 64.6785 172.834C64.3485 172.453 64.0918 172.027 63.9085 171.558C63.7251 171.081 63.6335 170.594 63.6335 170.095C63.6335 169.574 63.7288 169.079 63.9195 168.61C64.1175 168.133 64.3851 167.712 64.7225 167.345C65.0671 166.971 65.4705 166.678 65.9325 166.465C66.4018 166.245 66.9151 166.135 67.4725 166.135C68.0371 166.135 68.5505 166.249 69.0125 166.476C69.4818 166.703 69.8815 167.008 70.2115 167.389C70.5415 167.77 70.7981 168.196 70.9815 168.665C71.1648 169.134 71.2565 169.618 71.2565 170.117C71.2565 170.63 71.1611 171.125 70.9705 171.602C70.7798 172.071 70.5121 172.493 70.1675 172.867C69.8301 173.234 69.4268 173.523 68.9575 173.736C68.4955 173.949 67.9895 174.055 67.4395 174.055ZM65.1735 170.095C65.1735 170.432 65.2248 170.759 65.3275 171.074C65.4301 171.389 65.5768 171.672 65.7675 171.921C65.9655 172.163 66.2038 172.357 66.4825 172.504C66.7685 172.643 67.0911 172.713 67.4505 172.713C67.8171 172.713 68.1435 172.64 68.4295 172.493C68.7155 172.339 68.9538 172.137 69.1445 171.888C69.3351 171.631 69.4781 171.349 69.5735 171.041C69.6761 170.726 69.7275 170.41 69.7275 170.095C69.7275 169.758 69.6725 169.435 69.5625 169.127C69.4598 168.812 69.3095 168.533 69.1115 168.291C68.9208 168.042 68.6825 167.847 68.3965 167.708C68.1178 167.561 67.8025 167.488 67.4505 167.488C67.0765 167.488 66.7465 167.565 66.4605 167.719C66.1818 167.866 65.9471 168.064 65.7565 168.313C65.5658 168.562 65.4191 168.841 65.3165 169.149C65.2211 169.457 65.1735 169.772 65.1735 170.095ZM71.9479 170.04C71.9479 169.563 72.0323 169.098 72.2009 168.643C72.3769 168.181 72.6299 167.763 72.9599 167.389C73.2899 167.008 73.6933 166.707 74.1699 166.487C74.6466 166.26 75.1893 166.146 75.7979 166.146C76.5166 166.146 77.1363 166.304 77.6569 166.619C78.1849 166.934 78.5773 167.345 78.8339 167.851L77.6679 168.654C77.5359 168.361 77.3636 168.13 77.1509 167.961C76.9383 167.785 76.7109 167.664 76.4689 167.598C76.2269 167.525 75.9886 167.488 75.7539 167.488C75.3726 167.488 75.0389 167.565 74.7529 167.719C74.4743 167.873 74.2396 168.075 74.0489 168.324C73.8583 168.573 73.7153 168.852 73.6199 169.16C73.5319 169.468 73.4879 169.776 73.4879 170.084C73.4879 170.429 73.5429 170.762 73.6529 171.085C73.7629 171.4 73.9169 171.683 74.1149 171.932C74.3203 172.174 74.5623 172.368 74.8409 172.515C75.1269 172.654 75.4386 172.724 75.7759 172.724C76.0179 172.724 76.2636 172.684 76.5129 172.603C76.7623 172.522 76.9933 172.394 77.2059 172.218C77.4186 172.042 77.5836 171.815 77.7009 171.536L78.9439 172.251C78.7899 172.64 78.5369 172.97 78.1849 173.241C77.8403 173.512 77.4516 173.718 77.0189 173.857C76.5863 173.996 76.1573 174.066 75.7319 174.066C75.1746 174.066 74.6649 173.952 74.2029 173.725C73.7409 173.49 73.3413 173.182 73.0039 172.801C72.6739 172.412 72.4136 171.98 72.2229 171.503C72.0396 171.019 71.9479 170.531 71.9479 170.04ZM85.8029 167.521H83.3059V174H81.7989V167.521H79.3019V166.19H85.8029V167.521ZM86.7725 174V166.19H88.2905V174H86.7725ZM89.975 174V166.19H91.482V171.866L95.266 166.19H96.674V174H95.167V168.39L91.427 174H89.975ZM93.33 165.706C92.912 165.706 92.549 165.64 92.241 165.508C91.9403 165.369 91.7056 165.178 91.537 164.936C91.3756 164.694 91.295 164.423 91.295 164.122H92.329C92.329 164.335 92.406 164.525 92.56 164.694C92.7213 164.855 92.978 164.936 93.33 164.936C93.6746 164.936 93.9276 164.859 94.089 164.705C94.2503 164.551 94.331 164.357 94.331 164.122H95.376C95.376 164.423 95.2916 164.694 95.123 164.936C94.9616 165.178 94.727 165.369 94.419 165.508C94.1183 165.64 93.7553 165.706 93.33 165.706ZM104.92 166.19V174H103.413V170.667H99.8706V174H98.3526V166.19H99.8706V169.347H103.413V166.19H104.92ZM109.882 174.055C109.31 174.055 108.789 173.945 108.32 173.725C107.858 173.505 107.458 173.208 107.121 172.834C106.791 172.453 106.534 172.027 106.351 171.558C106.168 171.081 106.076 170.594 106.076 170.095C106.076 169.574 106.171 169.079 106.362 168.61C106.56 168.133 106.828 167.712 107.165 167.345C107.51 166.971 107.913 166.678 108.375 166.465C108.844 166.245 109.358 166.135 109.915 166.135C110.48 166.135 110.993 166.249 111.455 166.476C111.924 166.703 112.324 167.008 112.654 167.389C112.984 167.77 113.241 168.196 113.424 168.665C113.607 169.134 113.699 169.618 113.699 170.117C113.699 170.63 113.604 171.125 113.413 171.602C113.222 172.071 112.955 172.493 112.61 172.867C112.273 173.234 111.869 173.523 111.4 173.736C110.938 173.949 110.432 174.055 109.882 174.055ZM107.616 170.095C107.616 170.432 107.667 170.759 107.77 171.074C107.873 171.389 108.019 171.672 108.21 171.921C108.408 172.163 108.646 172.357 108.925 172.504C109.211 172.643 109.534 172.713 109.893 172.713C110.26 172.713 110.586 172.64 110.872 172.493C111.158 172.339 111.396 172.137 111.587 171.888C111.778 171.631 111.921 171.349 112.016 171.041C112.119 170.726 112.17 170.41 112.17 170.095C112.17 169.758 112.115 169.435 112.005 169.127C111.902 168.812 111.752 168.533 111.554 168.291C111.363 168.042 111.125 167.847 110.839 167.708C110.56 167.561 110.245 167.488 109.893 167.488C109.519 167.488 109.189 167.565 108.903 167.719C108.624 167.866 108.39 168.064 108.199 168.313C108.008 168.562 107.862 168.841 107.759 169.149C107.664 169.457 107.616 169.772 107.616 170.095Z" fill="#181616"/>
<path d="M165.75 48C165.75 37.3685 174.369 28.75 185 28.75H243C253.631 28.75 262.25 37.3685 262.25 48V252.25H165.75V48Z" fill="#A9CD50" fill-opacity="0.58"/>
<path d="M165.75 48C165.75 37.3685 174.369 28.75 185 28.75H243C253.631 28.75 262.25 37.3685 262.25 48V252.25H165.75V48Z" stroke="#A0C24B" stroke-width="1.5"/>
<path d="M194.132 62.055V60.801H194.748C194.938 60.801 195.081 60.7607 195.177 60.68C195.272 60.5993 195.356 60.471 195.43 60.295L195.606 59.91L192.504 54.19H194.176L196.277 58.37L198.103 54.19H199.698L196.585 61.01C196.394 61.3987 196.178 61.67 195.936 61.824C195.694 61.978 195.371 62.055 194.968 62.055H194.132ZM203.063 62V54.19H204.57V57.336H205.34L207.661 54.19H209.355L206.517 57.974L209.575 62H207.738L205.318 58.711H204.57V62H203.063ZM215.586 62V55.521H213.298L213.254 56.841C213.217 57.875 213.133 58.7293 213.001 59.404C212.869 60.0787 212.678 60.6103 212.429 60.999C212.179 61.3803 211.864 61.6517 211.483 61.813C211.109 61.967 210.658 62.044 210.13 62.044V60.735C210.401 60.735 210.636 60.6763 210.834 60.559C211.032 60.4417 211.197 60.229 211.329 59.921C211.468 59.613 211.578 59.1767 211.659 58.612C211.739 58.0473 211.794 57.3177 211.824 56.423L211.901 54.19H217.093V62H215.586ZM219.494 62.055V60.801H220.11C220.301 60.801 220.444 60.7607 220.539 60.68C220.634 60.5993 220.719 60.471 220.792 60.295L220.968 59.91L217.866 54.19H219.538L221.639 58.37L223.465 54.19H225.06L221.947 61.01C221.756 61.3987 221.54 61.67 221.298 61.824C221.056 61.978 220.733 62.055 220.33 62.055H219.494ZM225.782 62V54.19H231.414V55.499H227.289V57.38H229.412C230.285 57.38 230.941 57.5853 231.381 57.996C231.821 58.4067 232.041 58.9567 232.041 59.646C232.041 60.108 231.946 60.515 231.755 60.867C231.565 61.219 231.282 61.4977 230.908 61.703C230.534 61.901 230.061 62 229.489 62H225.782ZM227.289 60.691H229.28C229.574 60.691 229.808 60.6397 229.984 60.537C230.16 60.427 230.289 60.2913 230.369 60.13C230.45 59.9613 230.49 59.7853 230.49 59.602C230.49 59.4187 230.454 59.25 230.38 59.096C230.314 58.9347 230.193 58.8063 230.017 58.711C229.841 58.6083 229.588 58.557 229.258 58.557H227.289V60.691ZM233.108 62V54.19H234.626V62H233.108ZM189.299 68.521H186.802V75H185.295V68.521H182.798V67.19H189.299V68.521ZM190.268 75V67.19H191.786V75H190.268ZM193.416 75V67.19H194.934V73.669H198.916V75H193.416ZM203.001 75.055C202.429 75.055 201.908 74.945 201.439 74.725C200.977 74.505 200.577 74.208 200.24 73.834C199.91 73.4527 199.653 73.0273 199.47 72.558C199.286 72.0813 199.195 71.5937 199.195 71.095C199.195 70.5743 199.29 70.0793 199.481 69.61C199.679 69.1333 199.946 68.7117 200.284 68.345C200.628 67.971 201.032 67.6777 201.494 67.465C201.963 67.245 202.476 67.135 203.034 67.135C203.598 67.135 204.112 67.2487 204.574 67.476C205.043 67.7033 205.443 68.0077 205.773 68.389C206.103 68.7703 206.359 69.1957 206.543 69.665C206.726 70.1343 206.818 70.6183 206.818 71.117C206.818 71.6303 206.722 72.1253 206.532 72.602C206.341 73.0713 206.073 73.493 205.729 73.867C205.391 74.2337 204.988 74.5233 204.519 74.736C204.057 74.9487 203.551 75.055 203.001 75.055ZM200.735 71.095C200.735 71.4323 200.786 71.7587 200.889 72.074C200.991 72.3893 201.138 72.6717 201.329 72.921C201.527 73.163 201.765 73.3573 202.044 73.504C202.33 73.6433 202.652 73.713 203.012 73.713C203.378 73.713 203.705 73.6397 203.991 73.493C204.277 73.339 204.515 73.1373 204.706 72.888C204.896 72.6313 205.039 72.349 205.135 72.041C205.237 71.7257 205.289 71.4103 205.289 71.095C205.289 70.7577 205.234 70.435 205.124 70.127C205.021 69.8117 204.871 69.533 204.673 69.291C204.482 69.0417 204.244 68.8473 203.958 68.708C203.679 68.5613 203.364 68.488 203.012 68.488C202.638 68.488 202.308 68.565 202.022 68.719C201.743 68.8657 201.508 69.0637 201.318 69.313C201.127 69.5623 200.98 69.841 200.878 70.149C200.782 70.457 200.735 70.7723 200.735 71.095ZM214.351 75V69.874L212.349 73.691H211.502L209.5 69.874V75H207.982V67.19H209.61L211.92 71.634L214.252 67.19H215.869V75H214.351ZM219.623 67.19H221.163L224.034 75H222.472L221.746 73.053H219.018L218.303 75H216.741L219.623 67.19ZM221.471 71.986L220.393 68.763L219.271 71.986H221.471ZM224.89 75V67.201H226.408V70.908L229.686 67.19H231.358L228.366 70.655L231.545 75H229.829L227.398 71.634L226.408 72.668V75H224.89ZM237.672 73.669V75H232.249V67.19H237.573V68.521H233.767V70.402H237.056V71.634H233.767V73.669H237.672ZM238.855 75V67.19H242.309C242.668 67.19 242.998 67.2633 243.299 67.41C243.607 67.5567 243.871 67.7547 244.091 68.004C244.318 68.2533 244.491 68.532 244.608 68.84C244.733 69.148 244.795 69.4633 244.795 69.786C244.795 70.116 244.736 70.435 244.619 70.743C244.509 71.0437 244.348 71.3077 244.135 71.535C243.922 71.7623 243.673 71.9383 243.387 72.063L245.169 75H243.497L241.891 72.382H240.373V75H238.855ZM240.373 71.051H242.276C242.467 71.051 242.635 70.996 242.782 70.886C242.929 70.7687 243.046 70.6147 243.134 70.424C243.222 70.2333 243.266 70.0207 243.266 69.786C243.266 69.5367 243.215 69.3203 243.112 69.137C243.009 68.9463 242.877 68.796 242.716 68.686C242.562 68.576 242.393 68.521 242.21 68.521H240.373V71.051Z" fill="#181616"/>
<path d="M1.38 276.36V274.38H1.68C1.86667 274.38 2.03 274.303 2.17 274.15C2.31667 273.997 2.44 273.75 2.54 273.41C2.64667 273.063 2.73 272.6 2.79 272.02C2.85667 271.44 2.90333 270.72 2.93 269.86L2.98 267.9H7.23V274.38H8.08V276.36H7.46V275H2V276.36H1.38ZM2.68 274.38H6.53V268.52H3.62L3.58 269.94C3.56 270.84 3.51333 271.593 3.44 272.2C3.37333 272.8 3.27667 273.277 3.15 273.63C3.02333 273.977 2.86667 274.227 2.68 274.38ZM8.82023 273.5C8.82023 273.173 8.91357 272.893 9.10023 272.66C9.2869 272.42 9.54357 272.237 9.87023 272.11C10.2036 271.977 10.5869 271.91 11.0202 271.91C11.2736 271.91 11.5369 271.93 11.8102 271.97C12.0836 272.01 12.3269 272.07 12.5402 272.15V271.71C12.5402 271.27 12.4102 270.92 12.1502 270.66C11.8902 270.4 11.5302 270.27 11.0702 270.27C10.7902 270.27 10.5136 270.323 10.2402 270.43C9.97357 270.53 9.69357 270.68 9.40023 270.88L9.14023 270.4C9.48023 270.167 9.81357 269.993 10.1402 269.88C10.4669 269.76 10.8002 269.7 11.1402 269.7C11.7802 269.7 12.2869 269.883 12.6602 270.25C13.0336 270.617 13.2202 271.123 13.2202 271.77V274.18C13.2202 274.273 13.2402 274.343 13.2802 274.39C13.3202 274.43 13.3836 274.453 13.4702 274.46V275C13.3969 275.007 13.3336 275.013 13.2802 275.02C13.2269 275.027 13.1869 275.027 13.1602 275.02C12.9936 275.013 12.8669 274.96 12.7802 274.86C12.6936 274.76 12.6469 274.653 12.6402 274.54L12.6302 274.16C12.3969 274.46 12.0936 274.693 11.7202 274.86C11.3469 275.02 10.9669 275.1 10.5802 275.1C10.2469 275.1 9.94357 275.03 9.67023 274.89C9.40357 274.743 9.19357 274.55 9.04023 274.31C8.89357 274.063 8.82023 273.793 8.82023 273.5ZM12.3102 273.9C12.3836 273.807 12.4402 273.717 12.4802 273.63C12.5202 273.543 12.5402 273.467 12.5402 273.4V272.64C12.3136 272.553 12.0769 272.487 11.8302 272.44C11.5902 272.393 11.3469 272.37 11.1002 272.37C10.6136 272.37 10.2202 272.467 9.92023 272.66C9.62023 272.853 9.47023 273.117 9.47023 273.45C9.47023 273.643 9.52023 273.827 9.62023 274C9.72023 274.167 9.8669 274.307 10.0602 274.42C10.2536 274.527 10.4802 274.58 10.7402 274.58C11.0669 274.58 11.3702 274.517 11.6502 274.39C11.9369 274.263 12.1569 274.1 12.3102 273.9ZM14.6795 275V269.79H15.3595V272.03H18.3395V269.79H19.0195V275H18.3395V272.64H15.3595V275H14.6795ZM20.5195 275V269.79H21.1995V275H20.5195ZM20.5195 268.7V267.7H21.1995V268.7H20.5195ZM22.8073 275.81L22.9773 274.97H22.7473V274.02H23.4073V274.97L23.1573 275.81H22.8073ZM29.0022 275.06C28.5222 275.06 28.1122 274.97 27.7722 274.79C27.4322 274.603 27.1722 274.343 26.9922 274.01L27.5522 273.76C27.6789 273.993 27.8622 274.177 28.1022 274.31C28.3422 274.437 28.6322 274.5 28.9722 274.5C29.3789 274.5 29.7022 274.407 29.9422 274.22C30.1889 274.033 30.3122 273.783 30.3122 273.47C30.3122 273.183 30.2155 272.953 30.0222 272.78C29.8289 272.607 29.5622 272.517 29.2222 272.51H28.6922V272.04H29.2622C29.4089 272.04 29.5422 272 29.6622 271.92C29.7822 271.84 29.8755 271.733 29.9422 271.6C30.0089 271.467 30.0422 271.317 30.0422 271.15C30.0422 270.89 29.9489 270.68 29.7622 270.52C29.5822 270.36 29.3155 270.28 28.9622 270.28C28.6689 270.28 28.4222 270.34 28.2222 270.46C28.0289 270.573 27.8722 270.743 27.7522 270.97L27.2322 270.69C27.3855 270.383 27.6122 270.143 27.9122 269.97C28.2189 269.797 28.5755 269.71 28.9822 269.71C29.3155 269.71 29.6055 269.767 29.8522 269.88C30.1055 269.987 30.3022 270.143 30.4422 270.35C30.5889 270.55 30.6622 270.793 30.6622 271.08C30.6622 271.327 30.6022 271.557 30.4822 271.77C30.3622 271.977 30.1955 272.133 29.9822 272.24C30.2889 272.333 30.5255 272.497 30.6922 272.73C30.8655 272.963 30.9522 273.237 30.9522 273.55C30.9522 273.863 30.8689 274.133 30.7022 274.36C30.5355 274.587 30.3055 274.76 30.0122 274.88C29.7189 275 29.3822 275.06 29.0022 275.06ZM32.0918 275V269.79H32.7718V275H32.0918ZM32.0918 268.7V267.7H32.7718V268.7H32.0918ZM36.6595 275.1C35.8195 275.1 35.1829 274.843 34.7495 274.33C34.3229 273.81 34.1095 273.093 34.1095 272.18C34.1095 271.533 34.1629 270.987 34.2695 270.54C34.3762 270.093 34.5329 269.727 34.7395 269.44C34.9462 269.147 35.1995 268.907 35.4995 268.72C35.8062 268.533 36.1562 268.38 36.5495 268.26L38.7395 267.54L38.7995 268.13L36.6895 268.82C36.2895 268.953 35.9562 269.123 35.6895 269.33C35.4229 269.537 35.2129 269.8 35.0595 270.12C34.9129 270.433 34.8162 270.843 34.7695 271.35C34.9429 270.963 35.2095 270.667 35.5695 270.46C35.9295 270.247 36.3462 270.14 36.8195 270.14C37.3262 270.14 37.7562 270.243 38.1095 270.45C38.4695 270.657 38.7429 270.943 38.9295 271.31C39.1162 271.677 39.2095 272.1 39.2095 272.58C39.2095 273.087 39.1095 273.53 38.9095 273.91C38.7162 274.283 38.4295 274.577 38.0495 274.79C37.6762 274.997 37.2129 275.1 36.6595 275.1ZM36.6595 274.5C37.2529 274.5 37.7095 274.33 38.0295 273.99C38.3562 273.643 38.5195 273.183 38.5195 272.61C38.5195 272.05 38.3595 271.593 38.0395 271.24C37.7262 270.887 37.2662 270.71 36.6595 270.71C36.3129 270.71 35.9995 270.783 35.7195 270.93C35.4395 271.077 35.2162 271.29 35.0495 271.57C34.8895 271.85 34.8095 272.197 34.8095 272.61C34.8095 272.97 34.8795 273.293 35.0195 273.58C35.1662 273.867 35.3762 274.093 35.6495 274.26C35.9229 274.42 36.2595 274.5 36.6595 274.5ZM43.0135 275.1C42.5802 275.1 42.1902 274.987 41.8435 274.76C41.5035 274.533 41.2335 274.253 41.0335 273.92V277.13H40.3535V269.79H40.9635V270.8C41.1702 270.473 41.4468 270.21 41.7935 270.01C42.1402 269.803 42.5102 269.7 42.9035 269.7C43.2635 269.7 43.5935 269.777 43.8935 269.93C44.1935 270.077 44.4535 270.277 44.6735 270.53C44.8935 270.783 45.0635 271.073 45.1835 271.4C45.3102 271.72 45.3735 272.053 45.3735 272.4C45.3735 272.887 45.2735 273.337 45.0735 273.75C44.8802 274.157 44.6068 274.483 44.2535 274.73C43.9002 274.977 43.4868 275.1 43.0135 275.1ZM42.8235 274.5C43.1102 274.5 43.3668 274.443 43.5935 274.33C43.8202 274.21 44.0135 274.05 44.1735 273.85C44.3402 273.65 44.4668 273.427 44.5535 273.18C44.6402 272.927 44.6835 272.667 44.6835 272.4C44.6835 272.12 44.6335 271.853 44.5335 271.6C44.4402 271.347 44.3035 271.123 44.1235 270.93C43.9435 270.737 43.7368 270.583 43.5035 270.47C43.2702 270.357 43.0168 270.3 42.7435 270.3C42.5702 270.3 42.3902 270.333 42.2035 270.4C42.0168 270.467 41.8368 270.563 41.6635 270.69C41.4968 270.81 41.3568 270.947 41.2435 271.1C41.1302 271.253 41.0602 271.417 41.0335 271.59V273.19C41.1402 273.437 41.2835 273.66 41.4635 273.86C41.6435 274.053 41.8502 274.21 42.0835 274.33C42.3235 274.443 42.5702 274.5 42.8235 274.5ZM46.1054 273.5C46.1054 273.173 46.1987 272.893 46.3854 272.66C46.5721 272.42 46.8287 272.237 47.1554 272.11C47.4887 271.977 47.8721 271.91 48.3054 271.91C48.5587 271.91 48.8221 271.93 49.0954 271.97C49.3687 272.01 49.6121 272.07 49.8254 272.15V271.71C49.8254 271.27 49.6954 270.92 49.4354 270.66C49.1754 270.4 48.8154 270.27 48.3554 270.27C48.0754 270.27 47.7987 270.323 47.5254 270.43C47.2587 270.53 46.9787 270.68 46.6854 270.88L46.4254 270.4C46.7654 270.167 47.0987 269.993 47.4254 269.88C47.7521 269.76 48.0854 269.7 48.4254 269.7C49.0654 269.7 49.5721 269.883 49.9454 270.25C50.3187 270.617 50.5054 271.123 50.5054 271.77V274.18C50.5054 274.273 50.5254 274.343 50.5654 274.39C50.6054 274.43 50.6687 274.453 50.7554 274.46V275C50.6821 275.007 50.6187 275.013 50.5654 275.02C50.5121 275.027 50.4721 275.027 50.4454 275.02C50.2787 275.013 50.1521 274.96 50.0654 274.86C49.9787 274.76 49.9321 274.653 49.9254 274.54L49.9154 274.16C49.6821 274.46 49.3787 274.693 49.0054 274.86C48.6321 275.02 48.2521 275.1 47.8654 275.1C47.5321 275.1 47.2287 275.03 46.9554 274.89C46.6887 274.743 46.4787 274.55 46.3254 274.31C46.1787 274.063 46.1054 273.793 46.1054 273.5ZM49.5954 273.9C49.6687 273.807 49.7254 273.717 49.7654 273.63C49.8054 273.543 49.8254 273.467 49.8254 273.4V272.64C49.5987 272.553 49.3621 272.487 49.1154 272.44C48.8754 272.393 48.6321 272.37 48.3854 272.37C47.8987 272.37 47.5054 272.467 47.2054 272.66C46.9054 272.853 46.7554 273.117 46.7554 273.45C46.7554 273.643 46.8054 273.827 46.9054 274C47.0054 274.167 47.1521 274.307 47.3454 274.42C47.5387 274.527 47.7654 274.58 48.0254 274.58C48.3521 274.58 48.6554 274.517 48.9354 274.39C49.2221 274.263 49.4421 274.1 49.5954 273.9ZM51.9646 275V269.79H52.6446V272.03H55.6246V269.79H56.3046V275H55.6246V272.64H52.6446V275H51.9646ZM57.8047 275V269.79H58.4847V275H57.8047ZM57.8047 268.7V267.7H58.4847V268.7H57.8047ZM65.5113 275V272.82C65.2979 272.92 65.0746 272.997 64.8413 273.05C64.6079 273.097 64.3579 273.12 64.0913 273.12C63.5179 273.12 63.0846 272.973 62.7913 272.68C62.5046 272.387 62.3613 271.937 62.3613 271.33V269.79H63.0413V271.24C63.0413 271.707 63.1346 272.047 63.3213 272.26C63.5146 272.473 63.8213 272.58 64.2413 272.58C64.4746 272.58 64.7079 272.553 64.9413 272.5C65.1746 272.447 65.3646 272.377 65.5113 272.29V269.79H66.1913V275H65.5113ZM69.9375 275.1C69.5642 275.1 69.2175 275.03 68.8975 274.89C68.5775 274.743 68.3008 274.547 68.0675 274.3C67.8342 274.047 67.6508 273.757 67.5175 273.43C67.3908 273.103 67.3275 272.753 67.3275 272.38C67.3275 271.893 67.4375 271.447 67.6575 271.04C67.8842 270.633 68.1942 270.31 68.5875 270.07C68.9808 269.823 69.4275 269.7 69.9275 269.7C70.4408 269.7 70.8875 269.823 71.2675 270.07C71.6542 270.317 71.9575 270.643 72.1775 271.05C72.3975 271.45 72.5075 271.89 72.5075 272.37C72.5075 272.423 72.5075 272.477 72.5075 272.53C72.5075 272.577 72.5042 272.613 72.4975 272.64H68.0375C68.0708 273.013 68.1742 273.347 68.3475 273.64C68.5275 273.927 68.7575 274.157 69.0375 274.33C69.3242 274.497 69.6342 274.58 69.9675 274.58C70.3075 274.58 70.6275 274.493 70.9275 274.32C71.2342 274.147 71.4475 273.92 71.5675 273.64L72.1575 273.8C72.0508 274.047 71.8875 274.27 71.6675 274.47C71.4475 274.67 71.1875 274.827 70.8875 274.94C70.5942 275.047 70.2775 275.1 69.9375 275.1ZM68.0175 272.15H71.8675C71.8408 271.77 71.7375 271.437 71.5575 271.15C71.3842 270.863 71.1542 270.64 70.8675 270.48C70.5875 270.313 70.2775 270.23 69.9375 270.23C69.5975 270.23 69.2875 270.313 69.0075 270.48C68.7275 270.64 68.4975 270.867 68.3175 271.16C68.1442 271.447 68.0442 271.777 68.0175 272.15ZM76.2166 275.1C75.7833 275.1 75.3933 274.987 75.0466 274.76C74.7066 274.533 74.4366 274.253 74.2366 273.92V277.13H73.5566V269.79H74.1666V270.8C74.3733 270.473 74.65 270.21 74.9966 270.01C75.3433 269.803 75.7133 269.7 76.1066 269.7C76.4666 269.7 76.7966 269.777 77.0966 269.93C77.3966 270.077 77.6566 270.277 77.8766 270.53C78.0966 270.783 78.2666 271.073 78.3866 271.4C78.5133 271.72 78.5766 272.053 78.5766 272.4C78.5766 272.887 78.4766 273.337 78.2766 273.75C78.0833 274.157 77.81 274.483 77.4566 274.73C77.1033 274.977 76.69 275.1 76.2166 275.1ZM76.0266 274.5C76.3133 274.5 76.57 274.443 76.7966 274.33C77.0233 274.21 77.2166 274.05 77.3766 273.85C77.5433 273.65 77.67 273.427 77.7566 273.18C77.8433 272.927 77.8866 272.667 77.8866 272.4C77.8866 272.12 77.8366 271.853 77.7366 271.6C77.6433 271.347 77.5066 271.123 77.3266 270.93C77.1466 270.737 76.94 270.583 76.7066 270.47C76.4733 270.357 76.22 270.3 75.9466 270.3C75.7733 270.3 75.5933 270.333 75.4066 270.4C75.22 270.467 75.04 270.563 74.8666 270.69C74.7 270.81 74.56 270.947 74.4466 271.1C74.3333 271.253 74.2633 271.417 74.2366 271.59V273.19C74.3433 273.437 74.4866 273.66 74.6666 273.86C74.8466 274.053 75.0533 274.21 75.2866 274.33C75.5266 274.443 75.7733 274.5 76.0266 274.5ZM81.9785 275.1C81.6052 275.1 81.2585 275.03 80.9385 274.89C80.6185 274.743 80.3418 274.547 80.1085 274.3C79.8752 274.047 79.6918 273.757 79.5585 273.43C79.4318 273.103 79.3685 272.753 79.3685 272.38C79.3685 271.893 79.4785 271.447 79.6985 271.04C79.9252 270.633 80.2352 270.31 80.6285 270.07C81.0218 269.823 81.4685 269.7 81.9685 269.7C82.4818 269.7 82.9285 269.823 83.3085 270.07C83.6952 270.317 83.9985 270.643 84.2185 271.05C84.4385 271.45 84.5485 271.89 84.5485 272.37C84.5485 272.423 84.5485 272.477 84.5485 272.53C84.5485 272.577 84.5452 272.613 84.5385 272.64H80.0785C80.1118 273.013 80.2152 273.347 80.3885 273.64C80.5685 273.927 80.7985 274.157 81.0785 274.33C81.3652 274.497 81.6752 274.58 82.0085 274.58C82.3485 274.58 82.6685 274.493 82.9685 274.32C83.2752 274.147 83.4885 273.92 83.6085 273.64L84.1985 273.8C84.0918 274.047 83.9285 274.27 83.7085 274.47C83.4885 274.67 83.2285 274.827 82.9285 274.94C82.6352 275.047 82.3185 275.1 81.9785 275.1ZM80.0585 272.15H83.9085C83.8818 271.77 83.7785 271.437 83.5985 271.15C83.4252 270.863 83.1952 270.64 82.9085 270.48C82.6285 270.313 82.3185 270.23 81.9785 270.23C81.6385 270.23 81.3285 270.313 81.0485 270.48C80.7685 270.64 80.5385 270.867 80.3585 271.16C80.1852 271.447 80.0852 271.777 80.0585 272.15ZM87.1077 275.06C86.6277 275.06 86.2177 274.97 85.8777 274.79C85.5377 274.603 85.2777 274.343 85.0977 274.01L85.6577 273.76C85.7843 273.993 85.9677 274.177 86.2077 274.31C86.4477 274.437 86.7377 274.5 87.0777 274.5C87.4843 274.5 87.8077 274.407 88.0477 274.22C88.2943 274.033 88.4177 273.783 88.4177 273.47C88.4177 273.183 88.321 272.953 88.1277 272.78C87.9343 272.607 87.6677 272.517 87.3277 272.51H86.7977V272.04H87.3677C87.5143 272.04 87.6477 272 87.7677 271.92C87.8877 271.84 87.981 271.733 88.0477 271.6C88.1143 271.467 88.1477 271.317 88.1477 271.15C88.1477 270.89 88.0543 270.68 87.8677 270.52C87.6877 270.36 87.421 270.28 87.0677 270.28C86.7743 270.28 86.5277 270.34 86.3277 270.46C86.1343 270.573 85.9777 270.743 85.8577 270.97L85.3377 270.69C85.491 270.383 85.7177 270.143 86.0177 269.97C86.3243 269.797 86.681 269.71 87.0877 269.71C87.421 269.71 87.711 269.767 87.9577 269.88C88.211 269.987 88.4077 270.143 88.5477 270.35C88.6943 270.55 88.7677 270.793 88.7677 271.08C88.7677 271.327 88.7077 271.557 88.5877 271.77C88.4677 271.977 88.301 272.133 88.0877 272.24C88.3943 272.333 88.631 272.497 88.7977 272.73C88.971 272.963 89.0577 273.237 89.0577 273.55C89.0577 273.863 88.9743 274.133 88.8077 274.36C88.641 274.587 88.411 274.76 88.1177 274.88C87.8243 275 87.4877 275.06 87.1077 275.06ZM95.5561 276.27V274.49H92.2261V273.89L95.7761 269.29H96.2361V273.87H97.1161V274.49H96.2361V276.27H95.5561ZM92.9461 273.87H95.6261V270.36L92.9461 273.87ZM102.054 275V270.4H100.194V269.79H104.594V270.4H102.734V275H102.054ZM105.51 275V269.8H106.19V274.08L109.36 269.79H109.97V275H109.29V270.79L106.17 275H105.51ZM111.087 275L113.037 272.32L111.277 269.79H112.047L113.617 272.04H114.297V269.79H114.997V272.04H115.697L117.237 269.79H118.017L116.247 272.32L118.217 275H117.427L115.697 272.64H114.997V275H114.297V272.64H113.617L111.877 275H111.087ZM119.338 275V269.79H120.018V272.03H122.998V269.79H123.678V275H122.998V272.64H120.018V275H119.338ZM125.178 275V269.79H125.858V275H125.178ZM125.178 268.7V267.7H125.858V268.7H125.178ZM131.414 275.06C130.934 275.06 130.524 274.97 130.184 274.79C129.844 274.603 129.584 274.343 129.404 274.01L129.964 273.76C130.091 273.993 130.274 274.177 130.514 274.31C130.754 274.437 131.044 274.5 131.384 274.5C131.791 274.5 132.114 274.407 132.354 274.22C132.601 274.033 132.724 273.783 132.724 273.47C132.724 273.183 132.628 272.953 132.434 272.78C132.241 272.607 131.974 272.517 131.634 272.51H131.104V272.04H131.674C131.821 272.04 131.954 272 132.074 271.92C132.194 271.84 132.288 271.733 132.354 271.6C132.421 271.467 132.454 271.317 132.454 271.15C132.454 270.89 132.361 270.68 132.174 270.52C131.994 270.36 131.728 270.28 131.374 270.28C131.081 270.28 130.834 270.34 130.634 270.46C130.441 270.573 130.284 270.743 130.164 270.97L129.644 270.69C129.798 270.383 130.024 270.143 130.324 269.97C130.631 269.797 130.988 269.71 131.394 269.71C131.728 269.71 132.018 269.767 132.264 269.88C132.518 269.987 132.714 270.143 132.854 270.35C133.001 270.55 133.074 270.793 133.074 271.08C133.074 271.327 133.014 271.557 132.894 271.77C132.774 271.977 132.608 272.133 132.394 272.24C132.701 272.333 132.938 272.497 133.104 272.73C133.278 272.963 133.364 273.237 133.364 273.55C133.364 273.863 133.281 274.133 133.114 274.36C132.948 274.587 132.718 274.76 132.424 274.88C132.131 275 131.794 275.06 131.414 275.06ZM134.494 275V269.79H137.604V270.4H135.174V275H134.494ZM138.557 275V269.79H139.237V275H138.557ZM138.557 268.7V267.7H139.237V268.7H138.557ZM140.154 276.21V274.39H140.244C140.398 274.39 140.538 274.343 140.664 274.25C140.791 274.157 140.904 273.993 141.004 273.76C141.104 273.527 141.184 273.207 141.244 272.8C141.304 272.387 141.344 271.867 141.364 271.24L141.414 269.79H144.804V274.39H145.504V276.21H144.894V275H140.754V276.21H140.154ZM141.274 274.39H144.124V270.4H142.024L141.994 271.3C141.974 271.92 141.931 272.44 141.864 272.86C141.804 273.273 141.724 273.603 141.624 273.85C141.531 274.09 141.414 274.27 141.274 274.39ZM146.525 275V269.79H147.205V272.03H150.185V269.79H150.865V275H150.185V272.64H147.205V275H146.525ZM154.585 275.1C154.212 275.1 153.865 275.03 153.545 274.89C153.232 274.743 152.959 274.547 152.725 274.3C152.499 274.047 152.322 273.76 152.195 273.44C152.069 273.113 152.005 272.77 152.005 272.41C152.005 272.037 152.069 271.69 152.195 271.37C152.322 271.043 152.502 270.757 152.735 270.51C152.969 270.257 153.242 270.06 153.555 269.92C153.875 269.773 154.222 269.7 154.595 269.7C154.969 269.7 155.312 269.773 155.625 269.92C155.939 270.06 156.212 270.257 156.445 270.51C156.679 270.757 156.859 271.043 156.985 271.37C157.112 271.69 157.175 272.037 157.175 272.41C157.175 272.77 157.112 273.113 156.985 273.44C156.859 273.76 156.679 274.047 156.445 274.3C156.219 274.547 155.945 274.743 155.625 274.89C155.312 275.03 154.965 275.1 154.585 275.1ZM152.695 272.42C152.695 272.807 152.779 273.16 152.945 273.48C153.119 273.793 153.349 274.043 153.635 274.23C153.922 274.41 154.239 274.5 154.585 274.5C154.932 274.5 155.249 274.407 155.535 274.22C155.822 274.033 156.052 273.78 156.225 273.46C156.399 273.133 156.485 272.78 156.485 272.4C156.485 272.013 156.399 271.66 156.225 271.34C156.052 271.02 155.822 270.767 155.535 270.58C155.249 270.393 154.932 270.3 154.585 270.3C154.239 270.3 153.922 270.397 153.635 270.59C153.355 270.783 153.129 271.04 152.955 271.36C152.782 271.673 152.695 272.027 152.695 272.42ZM163.081 275.1C162.708 275.1 162.361 275.03 162.041 274.89C161.728 274.743 161.455 274.547 161.221 274.3C160.995 274.047 160.818 273.76 160.691 273.44C160.565 273.113 160.501 272.77 160.501 272.41C160.501 272.037 160.565 271.69 160.691 271.37C160.818 271.043 160.998 270.757 161.231 270.51C161.465 270.257 161.738 270.06 162.051 269.92C162.371 269.773 162.718 269.7 163.091 269.7C163.465 269.7 163.808 269.773 164.121 269.92C164.435 270.06 164.708 270.257 164.941 270.51C165.175 270.757 165.355 271.043 165.481 271.37C165.608 271.69 165.671 272.037 165.671 272.41C165.671 272.77 165.608 273.113 165.481 273.44C165.355 273.76 165.175 274.047 164.941 274.3C164.715 274.547 164.441 274.743 164.121 274.89C163.808 275.03 163.461 275.1 163.081 275.1ZM161.191 272.42C161.191 272.807 161.275 273.16 161.441 273.48C161.615 273.793 161.845 274.043 162.131 274.23C162.418 274.41 162.735 274.5 163.081 274.5C163.428 274.5 163.745 274.407 164.031 274.22C164.318 274.033 164.548 273.78 164.721 273.46C164.895 273.133 164.981 272.78 164.981 272.4C164.981 272.013 164.895 271.66 164.721 271.34C164.548 271.02 164.318 270.767 164.031 270.58C163.745 270.393 163.428 270.3 163.081 270.3C162.735 270.3 162.418 270.397 162.131 270.59C161.851 270.783 161.625 271.04 161.451 271.36C161.278 271.673 161.191 272.027 161.191 272.42ZM166.799 275V269.79H170.989V275H170.309V270.4H167.479V275H166.799ZM172.482 275V269.8H173.162V274.08L176.332 269.79H176.942V275H176.262V270.79L173.142 275H172.482ZM179.73 275V270.4H177.87V269.79H182.27V270.4H180.41V275H179.73ZM183.765 277.18C183.652 277.18 183.535 277.16 183.415 277.12C183.302 277.087 183.185 277.037 183.065 276.97L183.315 276.49C183.389 276.53 183.455 276.563 183.515 276.59C183.582 276.617 183.652 276.63 183.725 276.63C183.899 276.63 184.062 276.543 184.215 276.37C184.369 276.197 184.515 275.943 184.655 275.61L184.915 274.96L182.595 269.79H183.315L185.225 274.3L186.985 269.79H187.665L185.185 275.82C185.052 276.133 184.912 276.39 184.765 276.59C184.619 276.79 184.462 276.937 184.295 277.03C184.129 277.13 183.952 277.18 183.765 277.18ZM188.605 275V269.79H191.205C191.499 269.79 191.745 269.853 191.945 269.98C192.145 270.1 192.295 270.257 192.395 270.45C192.502 270.643 192.555 270.85 192.555 271.07C192.555 271.35 192.489 271.603 192.355 271.83C192.222 272.05 192.029 272.217 191.775 272.33C192.075 272.417 192.319 272.573 192.505 272.8C192.692 273.027 192.785 273.3 192.785 273.62C192.785 273.9 192.715 274.143 192.575 274.35C192.442 274.557 192.255 274.717 192.015 274.83C191.782 274.943 191.512 275 191.205 275H188.605ZM189.255 274.51H191.185C191.359 274.51 191.515 274.467 191.655 274.38C191.802 274.287 191.915 274.167 191.995 274.02C192.082 273.873 192.125 273.72 192.125 273.56C192.125 273.387 192.085 273.23 192.005 273.09C191.925 272.943 191.819 272.827 191.685 272.74C191.552 272.653 191.399 272.61 191.225 272.61H189.255V274.51ZM189.255 272.14H191.025C191.199 272.14 191.352 272.093 191.485 272C191.619 271.907 191.722 271.787 191.795 271.64C191.869 271.493 191.905 271.34 191.905 271.18C191.905 270.94 191.825 270.73 191.665 270.55C191.512 270.37 191.312 270.28 191.065 270.28H189.255V272.14ZM193.547 273.5C193.547 273.173 193.64 272.893 193.827 272.66C194.013 272.42 194.27 272.237 194.597 272.11C194.93 271.977 195.313 271.91 195.747 271.91C196 271.91 196.263 271.93 196.537 271.97C196.81 272.01 197.053 272.07 197.267 272.15V271.71C197.267 271.27 197.137 270.92 196.877 270.66C196.617 270.4 196.257 270.27 195.797 270.27C195.517 270.27 195.24 270.323 194.967 270.43C194.7 270.53 194.42 270.68 194.127 270.88L193.867 270.4C194.207 270.167 194.54 269.993 194.867 269.88C195.193 269.76 195.527 269.7 195.867 269.7C196.507 269.7 197.013 269.883 197.387 270.25C197.76 270.617 197.947 271.123 197.947 271.77V274.18C197.947 274.273 197.967 274.343 198.007 274.39C198.047 274.43 198.11 274.453 198.197 274.46V275C198.123 275.007 198.06 275.013 198.007 275.02C197.953 275.027 197.913 275.027 197.887 275.02C197.72 275.013 197.593 274.96 197.507 274.86C197.42 274.76 197.373 274.653 197.367 274.54L197.357 274.16C197.123 274.46 196.82 274.693 196.447 274.86C196.073 275.02 195.693 275.1 195.307 275.1C194.973 275.1 194.67 275.03 194.397 274.89C194.13 274.743 193.92 274.55 193.767 274.31C193.62 274.063 193.547 273.793 193.547 273.5ZM197.037 273.9C197.11 273.807 197.167 273.717 197.207 273.63C197.247 273.543 197.267 273.467 197.267 273.4V272.64C197.04 272.553 196.803 272.487 196.557 272.44C196.317 272.393 196.073 272.37 195.827 272.37C195.34 272.37 194.947 272.467 194.647 272.66C194.347 272.853 194.197 273.117 194.197 273.45C194.197 273.643 194.247 273.827 194.347 274C194.447 274.167 194.593 274.307 194.787 274.42C194.98 274.527 195.207 274.58 195.467 274.58C195.793 274.58 196.097 274.517 196.377 274.39C196.663 274.263 196.883 274.1 197.037 273.9ZM199.406 275V269.79H200.086V272.03H203.066V269.79H203.746V275H203.066V272.64H200.086V275H199.406ZM205.236 275V269.79H205.916V271.63H207.266C207.859 271.63 208.306 271.783 208.606 272.09C208.913 272.39 209.066 272.787 209.066 273.28C209.066 273.6 208.999 273.89 208.866 274.15C208.733 274.41 208.536 274.617 208.276 274.77C208.023 274.923 207.703 275 207.316 275H205.236ZM205.916 274.46H207.226C207.499 274.46 207.719 274.407 207.886 274.3C208.053 274.187 208.176 274.043 208.256 273.87C208.336 273.69 208.376 273.497 208.376 273.29C208.376 273.09 208.339 272.907 208.266 272.74C208.199 272.567 208.079 272.43 207.906 272.33C207.739 272.223 207.506 272.17 207.206 272.17H205.916V274.46ZM212.974 277.18C212.861 277.18 212.744 277.16 212.624 277.12C212.511 277.087 212.394 277.037 212.274 276.97L212.524 276.49C212.598 276.53 212.664 276.563 212.724 276.59C212.791 276.617 212.861 276.63 212.934 276.63C213.108 276.63 213.271 276.543 213.424 276.37C213.578 276.197 213.724 275.943 213.864 275.61L214.124 274.96L211.804 269.79H212.524L214.434 274.3L216.194 269.79H216.874L214.394 275.82C214.261 276.133 214.121 276.39 213.974 276.59C213.828 276.79 213.671 276.937 213.504 277.03C213.338 277.13 213.161 277.18 212.974 277.18ZM220.804 275V272.82C220.591 272.92 220.368 272.997 220.134 273.05C219.901 273.097 219.651 273.12 219.384 273.12C218.811 273.12 218.378 272.973 218.084 272.68C217.798 272.387 217.654 271.937 217.654 271.33V269.79H218.334V271.24C218.334 271.707 218.428 272.047 218.614 272.26C218.808 272.473 219.114 272.58 219.534 272.58C219.768 272.58 220.001 272.553 220.234 272.5C220.468 272.447 220.658 272.377 220.804 272.29V269.79H221.484V275H220.804ZM222.56 273.5C222.56 273.173 222.654 272.893 222.84 272.66C223.027 272.42 223.284 272.237 223.61 272.11C223.944 271.977 224.327 271.91 224.76 271.91C225.014 271.91 225.277 271.93 225.55 271.97C225.824 272.01 226.067 272.07 226.28 272.15V271.71C226.28 271.27 226.15 270.92 225.89 270.66C225.63 270.4 225.27 270.27 224.81 270.27C224.53 270.27 224.254 270.323 223.98 270.43C223.714 270.53 223.434 270.68 223.14 270.88L222.88 270.4C223.22 270.167 223.554 269.993 223.88 269.88C224.207 269.76 224.54 269.7 224.88 269.7C225.52 269.7 226.027 269.883 226.4 270.25C226.774 270.617 226.96 271.123 226.96 271.77V274.18C226.96 274.273 226.98 274.343 227.02 274.39C227.06 274.43 227.124 274.453 227.21 274.46V275C227.137 275.007 227.074 275.013 227.02 275.02C226.967 275.027 226.927 275.027 226.9 275.02C226.734 275.013 226.607 274.96 226.52 274.86C226.434 274.76 226.387 274.653 226.38 274.54L226.37 274.16C226.137 274.46 225.834 274.693 225.46 274.86C225.087 275.02 224.707 275.1 224.32 275.1C223.987 275.1 223.684 275.03 223.41 274.89C223.144 274.743 222.934 274.55 222.78 274.31C222.634 274.063 222.56 273.793 222.56 273.5ZM226.05 273.9C226.124 273.807 226.18 273.717 226.22 273.63C226.26 273.543 226.28 273.467 226.28 273.4V272.64C226.054 272.553 225.817 272.487 225.57 272.44C225.33 272.393 225.087 272.37 224.84 272.37C224.354 272.37 223.96 272.467 223.66 272.66C223.36 272.853 223.21 273.117 223.21 273.45C223.21 273.643 223.26 273.827 223.36 274C223.46 274.167 223.607 274.307 223.8 274.42C223.994 274.527 224.22 274.58 224.48 274.58C224.807 274.58 225.11 274.517 225.39 274.39C225.677 274.263 225.897 274.1 226.05 273.9ZM230.69 275.1C230.31 275.1 229.96 275.03 229.64 274.89C229.326 274.743 229.05 274.543 228.81 274.29C228.576 274.037 228.393 273.747 228.26 273.42C228.133 273.093 228.07 272.747 228.07 272.38C228.07 271.887 228.18 271.437 228.4 271.03C228.62 270.623 228.926 270.3 229.32 270.06C229.713 269.82 230.166 269.7 230.68 269.7C231.166 269.7 231.596 269.813 231.97 270.04C232.343 270.26 232.62 270.56 232.8 270.94L232.14 271.15C231.993 270.883 231.786 270.677 231.52 270.53C231.26 270.377 230.97 270.3 230.65 270.3C230.303 270.3 229.986 270.39 229.7 270.57C229.413 270.75 229.183 270.997 229.01 271.31C228.843 271.623 228.76 271.98 228.76 272.38C228.76 272.773 228.846 273.13 229.02 273.45C229.193 273.77 229.423 274.027 229.71 274.22C229.996 274.407 230.313 274.5 230.66 274.5C230.886 274.5 231.103 274.46 231.31 274.38C231.523 274.3 231.706 274.193 231.86 274.06C232.02 273.92 232.126 273.77 232.18 273.61L232.85 273.81C232.756 274.057 232.6 274.28 232.38 274.48C232.166 274.673 231.913 274.827 231.62 274.94C231.333 275.047 231.023 275.1 230.69 275.1ZM233.908 275V269.79H234.588V272.03H237.568V269.79H238.248V275H237.568V272.64H234.588V275H233.908ZM239.738 275V269.8H240.418V274.08L243.588 269.79H244.198V275H243.518V270.79L240.398 275H239.738ZM249.836 276.21V275H245.676V269.79H246.356V274.4H249.056V269.79H249.736V274.4H250.446V276.21H249.836ZM251.467 275V269.79H252.147V271.63H253.497C254.09 271.63 254.537 271.783 254.837 272.09C255.143 272.39 255.297 272.787 255.297 273.28C255.297 273.6 255.23 273.89 255.097 274.15C254.963 274.41 254.767 274.617 254.507 274.77C254.253 274.923 253.933 275 253.547 275H251.467ZM252.147 274.46H253.457C253.73 274.46 253.95 274.407 254.117 274.3C254.283 274.187 254.407 274.043 254.487 273.87C254.567 273.69 254.607 273.497 254.607 273.29C254.607 273.09 254.57 272.907 254.497 272.74C254.43 272.567 254.31 272.43 254.137 272.33C253.97 272.223 253.737 272.17 253.437 272.17H252.147V274.46ZM258.898 275V269.79H259.578V272.02H260.358L262.108 269.79H262.888L260.898 272.32L263.138 275H262.338L260.358 272.65H259.578V275H258.898ZM263.604 275.03V274.41C263.784 274.41 263.944 274.363 264.084 274.27C264.224 274.17 264.347 274.003 264.454 273.77C264.567 273.537 264.657 273.217 264.724 272.81C264.79 272.397 264.834 271.873 264.854 271.24L264.914 269.79H268.294V275H267.614V270.4H265.514L265.494 271.3C265.467 272.02 265.41 272.623 265.324 273.11C265.237 273.59 265.114 273.97 264.954 274.25C264.8 274.53 264.61 274.73 264.384 274.85C264.157 274.97 263.897 275.03 263.604 275.03ZM270.367 277.18C270.254 277.18 270.137 277.16 270.017 277.12C269.904 277.087 269.787 277.037 269.667 276.97L269.917 276.49C269.99 276.53 270.057 276.563 270.117 276.59C270.184 276.617 270.254 276.63 270.327 276.63C270.5 276.63 270.664 276.543 270.817 276.37C270.97 276.197 271.117 275.943 271.257 275.61L271.517 274.96L269.197 269.79H269.917L271.827 274.3L273.587 269.79H274.267L271.787 275.82C271.654 276.133 271.514 276.39 271.367 276.59C271.22 276.79 271.064 276.937 270.897 277.03C270.73 277.13 270.554 277.18 270.367 277.18ZM277.607 275.1C276.767 275.1 276.13 274.843 275.697 274.33C275.27 273.81 275.057 273.093 275.057 272.18C275.057 271.533 275.11 270.987 275.217 270.54C275.323 270.093 275.48 269.727 275.687 269.44C275.893 269.147 276.147 268.907 276.447 268.72C276.753 268.533 277.103 268.38 277.497 268.26L279.687 267.54L279.747 268.13L277.637 268.82C277.237 268.953 276.903 269.123 276.637 269.33C276.37 269.537 276.16 269.8 276.007 270.12C275.86 270.433 275.763 270.843 275.717 271.35C275.89 270.963 276.157 270.667 276.517 270.46C276.877 270.247 277.293 270.14 277.767 270.14C278.273 270.14 278.703 270.243 279.057 270.45C279.417 270.657 279.69 270.943 279.877 271.31C280.063 271.677 280.157 272.1 280.157 272.58C280.157 273.087 280.057 273.53 279.857 273.91C279.663 274.283 279.377 274.577 278.997 274.79C278.623 274.997 278.16 275.1 277.607 275.1ZM277.607 274.5C278.2 274.5 278.657 274.33 278.977 273.99C279.303 273.643 279.467 273.183 279.467 272.61C279.467 272.05 279.307 271.593 278.987 271.24C278.673 270.887 278.213 270.71 277.607 270.71C277.26 270.71 276.947 270.783 276.667 270.93C276.387 271.077 276.163 271.29 275.997 271.57C275.837 271.85 275.757 272.197 275.757 272.61C275.757 272.97 275.827 273.293 275.967 273.58C276.113 273.867 276.323 274.093 276.597 274.26C276.87 274.42 277.207 274.5 277.607 274.5ZM281.685 277.18C281.572 277.18 281.455 277.16 281.335 277.12C281.222 277.087 281.105 277.037 280.985 276.97L281.235 276.49C281.309 276.53 281.375 276.563 281.435 276.59C281.502 276.617 281.572 276.63 281.645 276.63C281.819 276.63 281.982 276.543 282.135 276.37C282.289 276.197 282.435 275.943 282.575 275.61L282.835 274.96L280.515 269.79H281.235L283.145 274.3L284.905 269.79H285.585L283.105 275.82C282.972 276.133 282.832 276.39 282.685 276.59C282.539 276.79 282.382 276.937 282.215 277.03C282.049 277.13 281.872 277.18 281.685 277.18Z" fill="#929292"/>
<path d="M199.457 17V14.6562C205.043 10.7734 207.836 7.57031 207.836 5.04688C207.836 3.5625 206.82 2.82031 204.789 2.82031C203.07 2.82031 201.449 3.25 199.926 4.10938V1.29688C201.449 0.515625 203.07 0.125 204.789 0.125C208.891 0.125 210.941 1.76562 210.941 5.04688C210.941 7.9375 208.703 11.0234 204.227 14.3047H210.941V17H199.457ZM219.004 8.62109L212.406 0.242188H216.332L220.961 6.35938L225.59 0.242188H229.516L222.93 8.62109L229.516 17H225.59L220.961 10.8828L216.332 17H212.406L219.004 8.62109Z" fill="#A9CD50"/>
</svg>
