<svg width="314" height="340" viewBox="0 0 314 340" fill="none" xmlns="http://www.w3.org/2000/svg">
<path d="M37 280L313 280" stroke="#A0A0A0" stroke-width="1.5" stroke-linecap="round"/>
<path fill-rule="evenodd" clip-rule="evenodd" d="M37 280H299.527V229C240.884 213.213 199.17 168.951 161.621 129.108C128.291 93.7421 98.2417 61.8574 62.5462 56.4575C53.5971 55.1037 45.13 56.801 37 60.9311V280Z" fill="url(#paint0_linear_2006_908)"/>
<path d="M37 61.5C44.1953 58.055 48.3264 56.7677 56 56.5C70.6852 57.3653 78.7432 60.5422 93 68C110.797 79.5826 120.291 87.7263 137 103C169.618 137.872 188.114 155.406 221.5 187C250.228 211.345 267.156 220.729 299 231V230" stroke="url(#paint1_linear_2006_908)" stroke-width="4"/>
<line x1="229.75" y1="280" x2="229.75" y2="56" stroke="#A0A0A0" stroke-dasharray="6 6"/>
<circle cx="229.859" cy="195" r="9.5" fill="#A9CD50" stroke="#FAFFEE" stroke-width="3"/>
<path fill-rule="evenodd" clip-rule="evenodd" d="M213.885 126C208.362 126 203.885 130.477 203.885 136V149.25C203.885 154.773 208.362 159.25 213.885 159.25H225.455L229.867 168L234.279 159.25H246.614C252.137 159.25 256.614 154.773 256.614 149.25V136C256.614 130.477 252.137 126 246.614 126H213.885Z" fill="#A9CD50"/>
<path d="M35.9353 300.824L36.3133 300.082C36.7426 300.455 37.2233 300.735 37.7553 300.922C38.2966 301.099 38.838 301.193 39.3793 301.202C39.9206 301.202 40.4153 301.123 40.8633 300.964C41.3206 300.805 41.6893 300.572 41.9693 300.264C42.2493 299.947 42.3893 299.564 42.3893 299.116C42.3893 298.547 42.1606 298.108 41.7033 297.8C41.2553 297.492 40.63 297.338 39.8273 297.338H37.7273V296.498H39.7713C40.462 296.498 40.9986 296.353 41.3813 296.064C41.7733 295.765 41.9693 295.355 41.9693 294.832C41.9693 294.459 41.8573 294.141 41.6333 293.88C41.4186 293.609 41.12 293.404 40.7373 293.264C40.364 293.115 39.944 293.035 39.4773 293.026C39.0106 293.007 38.5253 293.068 38.0213 293.208C37.5266 293.339 37.046 293.549 36.5793 293.838L36.2433 292.984C36.822 292.639 37.424 292.401 38.0493 292.27C38.6746 292.13 39.2813 292.083 39.8693 292.13C40.4573 292.177 40.9846 292.312 41.4513 292.536C41.9273 292.76 42.3053 293.054 42.5853 293.418C42.8653 293.782 43.0053 294.216 43.0053 294.72C43.0053 295.187 42.884 295.597 42.6413 295.952C42.408 296.307 42.0766 296.582 41.6473 296.778C41.2273 296.965 40.728 297.058 40.1493 297.058L40.2053 296.75C40.8586 296.75 41.4233 296.853 41.8993 297.058C42.3846 297.263 42.758 297.557 43.0193 297.94C43.29 298.313 43.4253 298.752 43.4253 299.256C43.4253 299.732 43.304 300.157 43.0613 300.53C42.828 300.894 42.5013 301.202 42.0813 301.454C41.6706 301.697 41.2086 301.874 40.6953 301.986C40.182 302.089 39.6453 302.117 39.0853 302.07C38.5253 302.023 37.9746 301.902 37.4333 301.706C36.892 301.501 36.3926 301.207 35.9353 300.824ZM50.3237 302V300.376L50.2817 300.11V297.394C50.2817 296.769 50.1044 296.288 49.7497 295.952C49.4044 295.616 48.8864 295.448 48.1957 295.448C47.7197 295.448 47.267 295.527 46.8377 295.686C46.4084 295.845 46.0444 296.055 45.7457 296.316L45.2977 295.574C45.671 295.257 46.119 295.014 46.6417 294.846C47.1644 294.669 47.715 294.58 48.2937 294.58C49.2457 294.58 49.9784 294.818 50.4917 295.294C51.0144 295.761 51.2757 296.475 51.2757 297.436V302H50.3237ZM47.7897 302.07C47.239 302.07 46.7584 301.981 46.3477 301.804C45.9464 301.617 45.6384 301.365 45.4237 301.048C45.209 300.721 45.1017 300.348 45.1017 299.928C45.1017 299.545 45.1904 299.2 45.3677 298.892C45.5544 298.575 45.853 298.323 46.2637 298.136C46.6837 297.94 47.2437 297.842 47.9437 297.842H50.4777V298.584H47.9717C47.2624 298.584 46.7677 298.71 46.4877 298.962C46.217 299.214 46.0817 299.527 46.0817 299.9C46.0817 300.32 46.245 300.656 46.5717 300.908C46.8984 301.16 47.3557 301.286 47.9437 301.286C48.5037 301.286 48.9844 301.16 49.3857 300.908C49.7964 300.647 50.095 300.273 50.2817 299.788L50.5057 300.474C50.319 300.959 49.9924 301.347 49.5257 301.636C49.0684 301.925 48.4897 302.07 47.7897 302.07ZM57.7158 302.07C57.0811 302.07 56.5071 301.925 55.9938 301.636C55.4805 301.337 55.0698 300.913 54.7618 300.362C54.4631 299.802 54.3138 299.121 54.3138 298.318C54.3138 297.515 54.4631 296.839 54.7618 296.288C55.0605 295.728 55.4665 295.303 55.9798 295.014C56.4931 294.725 57.0718 294.58 57.7158 294.58C58.4158 294.58 59.0411 294.739 59.5918 295.056C60.1518 295.364 60.5905 295.803 60.9078 296.372C61.2251 296.932 61.3838 297.581 61.3838 298.318C61.3838 299.065 61.2251 299.718 60.9078 300.278C60.5905 300.838 60.1518 301.277 59.5918 301.594C59.0411 301.911 58.4158 302.07 57.7158 302.07ZM53.9218 304.716V294.65H54.8738V296.862L54.7758 298.332L54.9158 299.816V304.716H53.9218ZM57.6458 301.188C58.1685 301.188 58.6351 301.071 59.0458 300.838C59.4565 300.595 59.7831 300.259 60.0258 299.83C60.2685 299.391 60.3898 298.887 60.3898 298.318C60.3898 297.749 60.2685 297.249 60.0258 296.82C59.7831 296.391 59.4565 296.055 59.0458 295.812C58.6351 295.569 58.1685 295.448 57.6458 295.448C57.1231 295.448 56.6518 295.569 56.2318 295.812C55.8211 296.055 55.4945 296.391 55.2518 296.82C55.0185 297.249 54.9018 297.749 54.9018 298.318C54.9018 298.887 55.0185 299.391 55.2518 299.83C55.4945 300.259 55.8211 300.595 56.2318 300.838C56.6518 301.071 57.1231 301.188 57.6458 301.188ZM68.0425 302V300.376L68.0005 300.11V297.394C68.0005 296.769 67.8231 296.288 67.4685 295.952C67.1231 295.616 66.6051 295.448 65.9145 295.448C65.4385 295.448 64.9858 295.527 64.5565 295.686C64.1271 295.845 63.7631 296.055 63.4645 296.316L63.0165 295.574C63.3898 295.257 63.8378 295.014 64.3605 294.846C64.8831 294.669 65.4338 294.58 66.0125 294.58C66.9645 294.58 67.6971 294.818 68.2105 295.294C68.7331 295.761 68.9945 296.475 68.9945 297.436V302H68.0425ZM65.5085 302.07C64.9578 302.07 64.4771 301.981 64.0665 301.804C63.6651 301.617 63.3571 301.365 63.1425 301.048C62.9278 300.721 62.8205 300.348 62.8205 299.928C62.8205 299.545 62.9091 299.2 63.0865 298.892C63.2731 298.575 63.5718 298.323 63.9825 298.136C64.4025 297.94 64.9625 297.842 65.6625 297.842H68.1965V298.584H65.6905C64.9811 298.584 64.4865 298.71 64.2065 298.962C63.9358 299.214 63.8005 299.527 63.8005 299.9C63.8005 300.32 63.9638 300.656 64.2905 300.908C64.6171 301.16 65.0745 301.286 65.6625 301.286C66.2225 301.286 66.7031 301.16 67.1045 300.908C67.5151 300.647 67.8138 300.273 68.0005 299.788L68.2245 300.474C68.0378 300.959 67.7111 301.347 67.2445 301.636C66.7871 301.925 66.2085 302.07 65.5085 302.07ZM73.4642 302.084C72.9322 302.084 72.4048 302.009 71.8822 301.86C71.3595 301.711 70.8975 301.482 70.4962 301.174L70.8182 300.432C71.1728 300.693 71.5835 300.894 72.0502 301.034C72.5168 301.165 72.9788 301.23 73.4362 301.23C73.8935 301.221 74.2902 301.155 74.6262 301.034C74.9622 300.913 75.2235 300.745 75.4102 300.53C75.5968 300.315 75.6902 300.073 75.6902 299.802C75.6902 299.41 75.5128 299.107 75.1582 298.892C74.8035 298.668 74.3182 298.556 73.7022 298.556H72.4422V297.828H73.6322C73.9962 297.828 74.3182 297.781 74.5982 297.688C74.8782 297.595 75.0928 297.459 75.2422 297.282C75.4008 297.105 75.4802 296.895 75.4802 296.652C75.4802 296.391 75.3868 296.167 75.2002 295.98C75.0228 295.793 74.7755 295.653 74.4582 295.56C74.1408 295.467 73.7815 295.42 73.3802 295.42C73.0162 295.429 72.6382 295.485 72.2462 295.588C71.8542 295.681 71.4668 295.826 71.0842 296.022L70.8042 295.252C71.2335 295.028 71.6582 294.86 72.0782 294.748C72.5075 294.627 72.9368 294.566 73.3662 294.566C73.9542 294.547 74.4815 294.617 74.9482 294.776C75.4242 294.935 75.8022 295.163 76.0822 295.462C76.3622 295.751 76.5022 296.101 76.5022 296.512C76.5022 296.876 76.3902 297.193 76.1662 297.464C75.9422 297.735 75.6435 297.945 75.2702 298.094C74.8968 298.243 74.4722 298.318 73.9962 298.318L74.0382 298.052C74.8782 298.052 75.5315 298.215 75.9982 298.542C76.4742 298.869 76.7122 299.312 76.7122 299.872C76.7122 300.311 76.5675 300.698 76.2782 301.034C75.9888 301.361 75.5968 301.617 75.1022 301.804C74.6168 301.991 74.0708 302.084 73.4642 302.084Z" fill="#A0A0A0"/>
<path d="M186.458 298.192C185.944 298.407 185.445 298.565 184.96 298.668C184.474 298.771 184.003 298.822 183.546 298.822C182.295 298.822 181.329 298.523 180.648 297.926C179.976 297.319 179.64 296.451 179.64 295.322V292.2H181.446V295.126C181.446 295.817 181.646 296.344 182.048 296.708C182.449 297.072 183.023 297.254 183.77 297.254C184.218 297.254 184.666 297.203 185.114 297.1C185.571 296.997 186.01 296.839 186.43 296.624L186.458 298.192ZM186.178 302V292.2H187.984V302H186.178ZM194.02 302.098C193.19 302.098 192.462 301.935 191.836 301.608C191.22 301.272 190.74 300.815 190.394 300.236C190.058 299.657 189.89 298.999 189.89 298.262C189.89 297.515 190.054 296.857 190.38 296.288C190.716 295.709 191.174 295.257 191.752 294.93C192.34 294.603 193.008 294.44 193.754 294.44C194.482 294.44 195.131 294.599 195.7 294.916C196.27 295.233 196.718 295.681 197.044 296.26C197.371 296.839 197.534 297.52 197.534 298.304C197.534 298.379 197.53 298.463 197.52 298.556C197.52 298.649 197.516 298.738 197.506 298.822H191.276V297.66H196.582L195.896 298.024C195.906 297.595 195.817 297.217 195.63 296.89C195.444 296.563 195.187 296.307 194.86 296.12C194.543 295.933 194.174 295.84 193.754 295.84C193.325 295.84 192.947 295.933 192.62 296.12C192.303 296.307 192.051 296.568 191.864 296.904C191.687 297.231 191.598 297.618 191.598 298.066V298.346C191.598 298.794 191.701 299.191 191.906 299.536C192.112 299.881 192.401 300.147 192.774 300.334C193.148 300.521 193.577 300.614 194.062 300.614C194.482 300.614 194.86 300.549 195.196 300.418C195.532 300.287 195.831 300.082 196.092 299.802L197.03 300.88C196.694 301.272 196.27 301.575 195.756 301.79C195.252 301.995 194.674 302.098 194.02 302.098ZM203.592 302.098C202.986 302.098 202.43 301.958 201.926 301.678C201.432 301.398 201.035 300.978 200.736 300.418C200.447 299.849 200.302 299.13 200.302 298.262C200.302 297.385 200.442 296.666 200.722 296.106C201.012 295.546 201.404 295.131 201.898 294.86C202.393 294.58 202.958 294.44 203.592 294.44C204.33 294.44 204.978 294.599 205.538 294.916C206.108 295.233 206.556 295.677 206.882 296.246C207.218 296.815 207.386 297.487 207.386 298.262C207.386 299.037 207.218 299.713 206.882 300.292C206.556 300.861 206.108 301.305 205.538 301.622C204.978 301.939 204.33 302.098 203.592 302.098ZM199.448 304.716V294.524H201.114V296.288L201.058 298.276L201.198 300.264V304.716H199.448ZM203.396 300.6C203.816 300.6 204.19 300.507 204.516 300.32C204.852 300.133 205.118 299.863 205.314 299.508C205.51 299.153 205.608 298.738 205.608 298.262C205.608 297.777 205.51 297.361 205.314 297.016C205.118 296.661 204.852 296.391 204.516 296.204C204.19 296.017 203.816 295.924 203.396 295.924C202.976 295.924 202.598 296.017 202.262 296.204C201.926 296.391 201.66 296.661 201.464 297.016C201.268 297.361 201.17 297.777 201.17 298.262C201.17 298.738 201.268 299.153 201.464 299.508C201.66 299.863 201.926 300.133 202.262 300.32C202.598 300.507 202.976 300.6 203.396 300.6ZM212.614 302.098C211.783 302.098 211.055 301.935 210.43 301.608C209.814 301.272 209.333 300.815 208.988 300.236C208.652 299.657 208.484 298.999 208.484 298.262C208.484 297.515 208.647 296.857 208.974 296.288C209.31 295.709 209.767 295.257 210.346 294.93C210.934 294.603 211.601 294.44 212.348 294.44C213.076 294.44 213.725 294.599 214.294 294.916C214.863 295.233 215.311 295.681 215.638 296.26C215.965 296.839 216.128 297.52 216.128 298.304C216.128 298.379 216.123 298.463 216.114 298.556C216.114 298.649 216.109 298.738 216.1 298.822H209.87V297.66H215.176L214.49 298.024C214.499 297.595 214.411 297.217 214.224 296.89C214.037 296.563 213.781 296.307 213.454 296.12C213.137 295.933 212.768 295.84 212.348 295.84C211.919 295.84 211.541 295.933 211.214 296.12C210.897 296.307 210.645 296.568 210.458 296.904C210.281 297.231 210.192 297.618 210.192 298.066V298.346C210.192 298.794 210.295 299.191 210.5 299.536C210.705 299.881 210.995 300.147 211.368 300.334C211.741 300.521 212.171 300.614 212.656 300.614C213.076 300.614 213.454 300.549 213.79 300.418C214.126 300.287 214.425 300.082 214.686 299.802L215.624 300.88C215.288 301.272 214.863 301.575 214.35 301.79C213.846 301.995 213.267 302.098 212.614 302.098ZM220.285 302.126C219.716 302.126 219.151 302.061 218.591 301.93C218.04 301.79 217.541 301.594 217.093 301.342L217.583 300.04C217.947 300.245 218.358 300.404 218.815 300.516C219.272 300.628 219.73 300.684 220.187 300.684C220.579 300.684 220.915 300.647 221.195 300.572C221.475 300.488 221.69 300.367 221.839 300.208C221.998 300.049 222.077 299.867 222.077 299.662C222.077 299.363 221.946 299.139 221.685 298.99C221.433 298.831 221.069 298.752 220.593 298.752H219.151V297.576H220.453C220.752 297.576 221.004 297.543 221.209 297.478C221.424 297.413 221.587 297.315 221.699 297.184C221.811 297.053 221.867 296.899 221.867 296.722C221.867 296.545 221.797 296.391 221.657 296.26C221.526 296.12 221.335 296.017 221.083 295.952C220.831 295.877 220.528 295.84 220.173 295.84C219.8 295.84 219.412 295.887 219.011 295.98C218.619 296.073 218.218 296.209 217.807 296.386L217.359 295.098C217.835 294.883 218.297 294.72 218.745 294.608C219.202 294.487 219.655 294.421 220.103 294.412C220.784 294.384 221.391 294.454 221.923 294.622C222.455 294.79 222.875 295.033 223.183 295.35C223.491 295.667 223.645 296.041 223.645 296.47C223.645 296.825 223.533 297.147 223.309 297.436C223.094 297.716 222.796 297.935 222.413 298.094C222.04 298.253 221.61 298.332 221.125 298.332L221.181 297.954C222.012 297.954 222.665 298.122 223.141 298.458C223.617 298.785 223.855 299.233 223.855 299.802C223.855 300.259 223.701 300.665 223.393 301.02C223.085 301.365 222.66 301.636 222.119 301.832C221.587 302.028 220.976 302.126 220.285 302.126ZM228.841 302V300.782L232.733 297.086C233.059 296.778 233.302 296.507 233.461 296.274C233.619 296.041 233.722 295.826 233.769 295.63C233.825 295.425 233.853 295.233 233.853 295.056C233.853 294.608 233.699 294.263 233.391 294.02C233.083 293.768 232.63 293.642 232.033 293.642C231.557 293.642 231.123 293.726 230.731 293.894C230.348 294.062 230.017 294.319 229.737 294.664L228.463 293.684C228.845 293.171 229.359 292.774 230.003 292.494C230.656 292.205 231.384 292.06 232.187 292.06C232.896 292.06 233.512 292.177 234.035 292.41C234.567 292.634 234.973 292.956 235.253 293.376C235.542 293.796 235.687 294.295 235.687 294.874C235.687 295.191 235.645 295.509 235.561 295.826C235.477 296.134 235.318 296.461 235.085 296.806C234.851 297.151 234.511 297.539 234.063 297.968L230.717 301.146L230.339 300.46H236.065V302H228.841ZM241.049 302.14C240.237 302.14 239.532 302.019 238.935 301.776C238.338 301.533 237.876 301.193 237.549 300.754C237.222 300.306 237.059 299.783 237.059 299.186C237.059 298.589 237.218 298.085 237.535 297.674C237.852 297.263 238.31 296.951 238.907 296.736C239.504 296.521 240.218 296.414 241.049 296.414C241.88 296.414 242.594 296.521 243.191 296.736C243.798 296.951 244.26 297.268 244.577 297.688C244.904 298.099 245.067 298.598 245.067 299.186C245.067 299.783 244.899 300.306 244.563 300.754C244.236 301.193 243.77 301.533 243.163 301.776C242.566 302.019 241.861 302.14 241.049 302.14ZM241.049 300.712C241.721 300.712 242.253 300.572 242.645 300.292C243.037 300.012 243.233 299.625 243.233 299.13C243.233 298.645 243.037 298.262 242.645 297.982C242.253 297.702 241.721 297.562 241.049 297.562C240.377 297.562 239.85 297.702 239.467 297.982C239.084 298.262 238.893 298.645 238.893 299.13C238.893 299.625 239.084 300.012 239.467 300.292C239.85 300.572 240.377 300.712 241.049 300.712ZM241.049 297.366C240.293 297.366 239.644 297.268 239.103 297.072C238.562 296.867 238.142 296.573 237.843 296.19C237.554 295.798 237.409 295.331 237.409 294.79C237.409 294.23 237.558 293.749 237.857 293.348C238.165 292.937 238.594 292.62 239.145 292.396C239.696 292.172 240.33 292.06 241.049 292.06C241.777 292.06 242.416 292.172 242.967 292.396C243.518 292.62 243.947 292.937 244.255 293.348C244.563 293.749 244.717 294.23 244.717 294.79C244.717 295.331 244.568 295.798 244.269 296.19C243.98 296.573 243.56 296.867 243.009 297.072C242.458 297.268 241.805 297.366 241.049 297.366ZM241.049 296.246C241.628 296.246 242.085 296.125 242.421 295.882C242.757 295.63 242.925 295.294 242.925 294.874C242.925 294.435 242.752 294.095 242.407 293.852C242.062 293.609 241.609 293.488 241.049 293.488C240.489 293.488 240.041 293.609 239.705 293.852C239.369 294.095 239.201 294.435 239.201 294.874C239.201 295.294 239.364 295.63 239.691 295.882C240.027 296.125 240.48 296.246 241.049 296.246ZM255.801 301.188V296.008H252.931L252.889 297.212C252.87 297.641 252.842 298.057 252.805 298.458C252.768 298.85 252.707 299.214 252.623 299.55C252.539 299.877 252.418 300.147 252.259 300.362C252.1 300.577 251.89 300.717 251.629 300.782L249.893 300.516C250.173 300.516 250.397 300.427 250.565 300.25C250.742 300.063 250.878 299.811 250.971 299.494C251.074 299.167 251.148 298.799 251.195 298.388C251.242 297.968 251.274 297.534 251.293 297.086L251.391 294.524H257.551V301.188H255.801ZM249.627 303.666V300.516H258.657V303.666H257.019V302H251.251V303.666H249.627ZM260.22 302V294.524H261.97V297.562H265.736V294.524H267.486V302H265.736V299.046H261.97V302H260.22ZM269.831 302V294.524H271.581V302H269.831ZM270.713 293.292C270.387 293.292 270.116 293.189 269.901 292.984C269.696 292.779 269.593 292.531 269.593 292.242C269.593 291.943 269.696 291.696 269.901 291.5C270.116 291.295 270.387 291.192 270.713 291.192C271.04 291.192 271.306 291.29 271.511 291.486C271.726 291.673 271.833 291.911 271.833 292.2C271.833 292.508 271.731 292.769 271.525 292.984C271.32 293.189 271.049 293.292 270.713 293.292ZM273.947 302V294.524H277.601C278.506 294.524 279.215 294.692 279.729 295.028C280.251 295.364 280.513 295.84 280.513 296.456C280.513 297.063 280.27 297.539 279.785 297.884C279.299 298.22 278.655 298.388 277.853 298.388L278.063 297.954C278.968 297.954 279.64 298.122 280.079 298.458C280.527 298.785 280.751 299.265 280.751 299.9C280.751 300.563 280.503 301.081 280.009 301.454C279.514 301.818 278.763 302 277.755 302H273.947ZM275.613 300.726H277.615C278.091 300.726 278.45 300.651 278.693 300.502C278.935 300.343 279.057 300.105 279.057 299.788C279.057 299.452 278.945 299.205 278.721 299.046C278.497 298.887 278.147 298.808 277.671 298.808H275.613V300.726ZM275.613 297.646H277.447C277.895 297.646 278.231 297.567 278.455 297.408C278.688 297.24 278.805 297.007 278.805 296.708C278.805 296.4 278.688 296.171 278.455 296.022C278.231 295.873 277.895 295.798 277.447 295.798H275.613V297.646Z" fill="#FF7CB2"/>
<path d="M4.858 70.14C3.97133 70.14 3.21067 69.9533 2.576 69.58C1.94133 69.1973 1.456 68.6467 1.12 67.928C0.784 67.2093 0.616 66.3227 0.616 65.268C0.616 64.148 0.816667 63.2007 1.218 62.426C1.62867 61.6513 2.19333 61.0633 2.912 60.662C3.64 60.2607 4.47533 60.06 5.418 60.06C5.91267 60.06 6.384 60.1113 6.832 60.214C7.28933 60.3167 7.67667 60.4753 7.994 60.69L7.322 62.062C7.05133 61.8847 6.75733 61.7633 6.44 61.698C6.132 61.6233 5.80533 61.586 5.46 61.586C4.536 61.586 3.80333 61.8707 3.262 62.44C2.72067 63.0093 2.45 63.8493 2.45 64.96C2.45 65.1373 2.45467 65.3473 2.464 65.59C2.47333 65.8233 2.506 66.0613 2.562 66.304L2.002 65.688C2.17 65.3053 2.39867 64.988 2.688 64.736C2.98667 64.4747 3.33667 64.2787 3.738 64.148C4.14867 64.0173 4.592 63.952 5.068 63.952C5.712 63.952 6.286 64.078 6.79 64.33C7.294 64.5727 7.69533 64.9227 7.994 65.38C8.29267 65.828 8.442 66.3553 8.442 66.962C8.442 67.606 8.28333 68.166 7.966 68.642C7.64867 69.118 7.21933 69.4867 6.678 69.748C6.13667 70.0093 5.53 70.14 4.858 70.14ZM4.76 68.712C5.13333 68.712 5.46467 68.6467 5.754 68.516C6.04333 68.376 6.26733 68.18 6.426 67.928C6.594 67.676 6.678 67.382 6.678 67.046C6.678 66.5327 6.50067 66.1267 6.146 65.828C5.79133 65.5293 5.31533 65.38 4.718 65.38C4.326 65.38 3.98067 65.4547 3.682 65.604C3.39267 65.744 3.15933 65.94 2.982 66.192C2.814 66.444 2.73 66.7333 2.73 67.06C2.73 67.3587 2.80933 67.634 2.968 67.886C3.12667 68.138 3.35533 68.3387 3.654 68.488C3.962 68.6373 4.33067 68.712 4.76 68.712ZM13.3273 70.14C12.5153 70.14 11.8107 70.0187 11.2133 69.776C10.616 69.5333 10.154 69.1927 9.82734 68.754C9.50068 68.306 9.33734 67.7833 9.33734 67.186C9.33734 66.5887 9.49601 66.0847 9.81334 65.674C10.1307 65.2633 10.588 64.9507 11.1853 64.736C11.7827 64.5213 12.4967 64.414 13.3273 64.414C14.158 64.414 14.872 64.5213 15.4693 64.736C16.076 64.9507 16.538 65.268 16.8553 65.688C17.182 66.0987 17.3453 66.598 17.3453 67.186C17.3453 67.7833 17.1773 68.306 16.8413 68.754C16.5147 69.1927 16.048 69.5333 15.4413 69.776C14.844 70.0187 14.1393 70.14 13.3273 70.14ZM13.3273 68.712C13.9993 68.712 14.5313 68.572 14.9233 68.292C15.3153 68.012 15.5113 67.6247 15.5113 67.13C15.5113 66.6447 15.3153 66.262 14.9233 65.982C14.5313 65.702 13.9993 65.562 13.3273 65.562C12.6553 65.562 12.128 65.702 11.7453 65.982C11.3627 66.262 11.1713 66.6447 11.1713 67.13C11.1713 67.6247 11.3627 68.012 11.7453 68.292C12.128 68.572 12.6553 68.712 13.3273 68.712ZM13.3273 65.366C12.5713 65.366 11.9227 65.268 11.3813 65.072C10.84 64.8667 10.42 64.5727 10.1213 64.19C9.83201 63.798 9.68734 63.3313 9.68734 62.79C9.68734 62.23 9.83668 61.7493 10.1353 61.348C10.4433 60.9373 10.8727 60.62 11.4233 60.396C11.974 60.172 12.6087 60.06 13.3273 60.06C14.0553 60.06 14.6947 60.172 15.2453 60.396C15.796 60.62 16.2253 60.9373 16.5333 61.348C16.8413 61.7493 16.9953 62.23 16.9953 62.79C16.9953 63.3313 16.846 63.798 16.5473 64.19C16.258 64.5727 15.838 64.8667 15.2873 65.072C14.7367 65.268 14.0833 65.366 13.3273 65.366ZM13.3273 64.246C13.906 64.246 14.3633 64.1247 14.6993 63.882C15.0353 63.63 15.2033 63.294 15.2033 62.874C15.2033 62.4353 15.0307 62.0947 14.6853 61.852C14.34 61.6093 13.8873 61.488 13.3273 61.488C12.7673 61.488 12.3193 61.6093 11.9833 61.852C11.6473 62.0947 11.4793 62.4353 11.4793 62.874C11.4793 63.294 11.6427 63.63 11.9693 63.882C12.3053 64.1247 12.758 64.246 13.3273 64.246Z" fill="#A0A0A0"/>
<path d="M5.24179 105.14C4.35512 105.14 3.59446 104.953 2.95979 104.58C2.32512 104.197 1.83979 103.647 1.50379 102.928C1.16779 102.209 0.999789 101.323 0.999789 100.268C0.999789 99.148 1.20046 98.2007 1.60179 97.426C2.01246 96.6513 2.57712 96.0633 3.29579 95.662C4.02379 95.2607 4.85912 95.06 5.80179 95.06C6.29646 95.06 6.76779 95.1113 7.21579 95.214C7.67312 95.3167 8.06046 95.4753 8.37779 95.69L7.70579 97.062C7.43512 96.8847 7.14112 96.7633 6.82379 96.698C6.51579 96.6233 6.18912 96.586 5.84379 96.586C4.91979 96.586 4.18712 96.8707 3.64579 97.44C3.10446 98.0093 2.83379 98.8493 2.83379 99.96C2.83379 100.137 2.83846 100.347 2.84779 100.59C2.85712 100.823 2.88979 101.061 2.94579 101.304L2.38579 100.688C2.55379 100.305 2.78246 99.988 3.07179 99.736C3.37046 99.4747 3.72046 99.2787 4.12179 99.148C4.53246 99.0173 4.97579 98.952 5.45179 98.952C6.09579 98.952 6.66979 99.078 7.17379 99.33C7.67779 99.5727 8.07912 99.9227 8.37779 100.38C8.67646 100.828 8.82579 101.355 8.82579 101.962C8.82579 102.606 8.66712 103.166 8.34979 103.642C8.03246 104.118 7.60312 104.487 7.06179 104.748C6.52046 105.009 5.91379 105.14 5.24179 105.14ZM5.14379 103.712C5.51712 103.712 5.84846 103.647 6.13779 103.516C6.42712 103.376 6.65112 103.18 6.80979 102.928C6.97779 102.676 7.06179 102.382 7.06179 102.046C7.06179 101.533 6.88446 101.127 6.52979 100.828C6.17512 100.529 5.69912 100.38 5.10179 100.38C4.70979 100.38 4.36446 100.455 4.06579 100.604C3.77646 100.744 3.54312 100.94 3.36579 101.192C3.19779 101.444 3.11379 101.733 3.11379 102.06C3.11379 102.359 3.19312 102.634 3.35179 102.886C3.51046 103.138 3.73912 103.339 4.03779 103.488C4.34579 103.637 4.71446 103.712 5.14379 103.712ZM11.3468 105L15.3928 95.928L15.8688 96.74H10.3108L11.1788 95.858V98.406H9.48477V95.2H17.1008V96.418L13.2928 105H11.3468ZM18.6211 105.098C18.3038 105.098 18.0331 104.991 17.8091 104.776C17.5851 104.552 17.4731 104.272 17.4731 103.936C17.4731 103.581 17.5851 103.301 17.8091 103.096C18.0331 102.881 18.3038 102.774 18.6211 102.774C18.9384 102.774 19.2091 102.881 19.4331 103.096C19.6571 103.301 19.7691 103.581 19.7691 103.936C19.7691 104.272 19.6571 104.552 19.4331 104.776C19.2091 104.991 18.9384 105.098 18.6211 105.098ZM20.9578 105V103.782L24.8498 100.086C25.1764 99.778 25.4191 99.5073 25.5778 99.274C25.7364 99.0407 25.8391 98.826 25.8858 98.63C25.9418 98.4247 25.9698 98.2333 25.9698 98.056C25.9698 97.608 25.8158 97.2627 25.5078 97.02C25.1998 96.768 24.7471 96.642 24.1498 96.642C23.6738 96.642 23.2398 96.726 22.8478 96.894C22.4651 97.062 22.1338 97.3187 21.8538 97.664L20.5798 96.684C20.9624 96.1707 21.4758 95.774 22.1198 95.494C22.7731 95.2047 23.5011 95.06 24.3038 95.06C25.0131 95.06 25.6291 95.1767 26.1518 95.41C26.6838 95.634 27.0898 95.956 27.3698 96.376C27.6591 96.796 27.8038 97.2953 27.8038 97.874C27.8038 98.1913 27.7618 98.5087 27.6778 98.826C27.5938 99.134 27.4351 99.4607 27.2018 99.806C26.9684 100.151 26.6278 100.539 26.1798 100.968L22.8338 104.146L22.4558 103.46H28.1818V105H20.9578Z" fill="#A0A0A0"/>
<path d="M5.16073 140.14C4.27407 140.14 3.5134 139.953 2.87873 139.58C2.24407 139.197 1.75873 138.647 1.42273 137.928C1.08673 137.209 0.918734 136.323 0.918734 135.268C0.918734 134.148 1.1194 133.201 1.52073 132.426C1.9314 131.651 2.49607 131.063 3.21473 130.662C3.94273 130.261 4.77807 130.06 5.72073 130.06C6.2154 130.06 6.68673 130.111 7.13473 130.214C7.59207 130.317 7.9794 130.475 8.29673 130.69L7.62473 132.062C7.35407 131.885 7.06007 131.763 6.74273 131.698C6.43473 131.623 6.10807 131.586 5.76273 131.586C4.83873 131.586 4.10607 131.871 3.56473 132.44C3.0234 133.009 2.75273 133.849 2.75273 134.96C2.75273 135.137 2.7574 135.347 2.76673 135.59C2.77607 135.823 2.80873 136.061 2.86473 136.304L2.30473 135.688C2.47273 135.305 2.7014 134.988 2.99073 134.736C3.2894 134.475 3.6394 134.279 4.04073 134.148C4.4514 134.017 4.89473 133.952 5.37073 133.952C6.01473 133.952 6.58873 134.078 7.09273 134.33C7.59673 134.573 7.99807 134.923 8.29673 135.38C8.5954 135.828 8.74474 136.355 8.74474 136.962C8.74474 137.606 8.58607 138.166 8.26873 138.642C7.9514 139.118 7.52207 139.487 6.98073 139.748C6.4394 140.009 5.83273 140.14 5.16073 140.14ZM5.06273 138.712C5.43607 138.712 5.7674 138.647 6.05673 138.516C6.34607 138.376 6.57007 138.18 6.72873 137.928C6.89673 137.676 6.98073 137.382 6.98073 137.046C6.98073 136.533 6.8034 136.127 6.44873 135.828C6.09407 135.529 5.61807 135.38 5.02073 135.38C4.62873 135.38 4.2834 135.455 3.98473 135.604C3.6954 135.744 3.46207 135.94 3.28473 136.192C3.11673 136.444 3.03273 136.733 3.03273 137.06C3.03273 137.359 3.11207 137.634 3.27073 137.886C3.4294 138.138 3.65807 138.339 3.95673 138.488C4.26473 138.637 4.6334 138.712 5.06273 138.712ZM13.9381 140.14C13.0514 140.14 12.2907 139.953 11.6561 139.58C11.0214 139.197 10.5361 138.647 10.2001 137.928C9.86408 137.209 9.69608 136.323 9.69608 135.268C9.69608 134.148 9.89674 133.201 10.2981 132.426C10.7087 131.651 11.2734 131.063 11.9921 130.662C12.7201 130.261 13.5554 130.06 14.4981 130.06C14.9927 130.06 15.4641 130.111 15.9121 130.214C16.3694 130.317 16.7567 130.475 17.0741 130.69L16.4021 132.062C16.1314 131.885 15.8374 131.763 15.5201 131.698C15.2121 131.623 14.8854 131.586 14.5401 131.586C13.6161 131.586 12.8834 131.871 12.3421 132.44C11.8007 133.009 11.5301 133.849 11.5301 134.96C11.5301 135.137 11.5347 135.347 11.5441 135.59C11.5534 135.823 11.5861 136.061 11.6421 136.304L11.0821 135.688C11.2501 135.305 11.4787 134.988 11.7681 134.736C12.0667 134.475 12.4167 134.279 12.8181 134.148C13.2287 134.017 13.6721 133.952 14.1481 133.952C14.7921 133.952 15.3661 134.078 15.8701 134.33C16.3741 134.573 16.7754 134.923 17.0741 135.38C17.3727 135.828 17.5221 136.355 17.5221 136.962C17.5221 137.606 17.3634 138.166 17.0461 138.642C16.7287 139.118 16.2994 139.487 15.7581 139.748C15.2167 140.009 14.6101 140.14 13.9381 140.14ZM13.8401 138.712C14.2134 138.712 14.5447 138.647 14.8341 138.516C15.1234 138.376 15.3474 138.18 15.5061 137.928C15.6741 137.676 15.7581 137.382 15.7581 137.046C15.7581 136.533 15.5807 136.127 15.2261 135.828C14.8714 135.529 14.3954 135.38 13.7981 135.38C13.4061 135.38 13.0607 135.455 12.7621 135.604C12.4727 135.744 12.2394 135.94 12.0621 136.192C11.8941 136.444 11.8101 136.733 11.8101 137.06C11.8101 137.359 11.8894 137.634 12.0481 137.886C12.2067 138.138 12.4354 138.339 12.7341 138.488C13.0421 138.637 13.4107 138.712 13.8401 138.712ZM19.7021 140.098C19.3848 140.098 19.1141 139.991 18.8901 139.776C18.6661 139.552 18.5541 139.272 18.5541 138.936C18.5541 138.581 18.6661 138.301 18.8901 138.096C19.1141 137.881 19.3848 137.774 19.7021 137.774C20.0195 137.774 20.2901 137.881 20.5141 138.096C20.7381 138.301 20.8501 138.581 20.8501 138.936C20.8501 139.272 20.7381 139.552 20.5141 139.776C20.2901 139.991 20.0195 140.098 19.7021 140.098ZM25.2448 140.14C24.5542 140.14 23.8775 140.042 23.2148 139.846C22.5615 139.641 22.0108 139.361 21.5628 139.006L22.3468 137.592C22.7015 137.881 23.1308 138.115 23.6348 138.292C24.1388 138.469 24.6662 138.558 25.2168 138.558C25.8702 138.558 26.3788 138.427 26.7428 138.166C27.1068 137.895 27.2888 137.531 27.2888 137.074C27.2888 136.626 27.1208 136.271 26.7848 136.01C26.4488 135.749 25.9075 135.618 25.1608 135.618H24.2648V134.372L27.0648 131.04L27.3028 131.726H22.0388V130.2H28.7168V131.418L25.9168 134.75L24.9648 134.19H25.5108C26.7148 134.19 27.6155 134.461 28.2128 135.002C28.8195 135.534 29.1228 136.22 29.1228 137.06C29.1228 137.611 28.9828 138.119 28.7028 138.586C28.4228 139.053 27.9935 139.431 27.4148 139.72C26.8455 140 26.1222 140.14 25.2448 140.14Z" fill="#A0A0A0"/>
<path d="M5.08456 175.14C4.1979 175.14 3.43723 174.953 2.80256 174.58C2.1679 174.197 1.68256 173.647 1.34656 172.928C1.01056 172.209 0.842563 171.323 0.842563 170.268C0.842563 169.148 1.04323 168.201 1.44456 167.426C1.85523 166.651 2.4199 166.063 3.13856 165.662C3.86656 165.261 4.7019 165.06 5.64456 165.06C6.13923 165.06 6.61056 165.111 7.05856 165.214C7.5159 165.317 7.90323 165.475 8.22056 165.69L7.54856 167.062C7.2779 166.885 6.9839 166.763 6.66656 166.698C6.35856 166.623 6.0319 166.586 5.68656 166.586C4.76256 166.586 4.0299 166.871 3.48856 167.44C2.94723 168.009 2.67656 168.849 2.67656 169.96C2.67656 170.137 2.68123 170.347 2.69056 170.59C2.6999 170.823 2.73256 171.061 2.78856 171.304L2.22856 170.688C2.39656 170.305 2.62523 169.988 2.91456 169.736C3.21323 169.475 3.56323 169.279 3.96456 169.148C4.37523 169.017 4.81856 168.952 5.29456 168.952C5.93856 168.952 6.51256 169.078 7.01656 169.33C7.52056 169.573 7.9219 169.923 8.22056 170.38C8.51923 170.828 8.66856 171.355 8.66856 171.962C8.66856 172.606 8.5099 173.166 8.19256 173.642C7.87523 174.118 7.4459 174.487 6.90456 174.748C6.36323 175.009 5.75656 175.14 5.08456 175.14ZM4.98656 173.712C5.3599 173.712 5.69123 173.647 5.98056 173.516C6.2699 173.376 6.4939 173.18 6.65256 172.928C6.82056 172.676 6.90456 172.382 6.90456 172.046C6.90456 171.533 6.72723 171.127 6.37256 170.828C6.0179 170.529 5.5419 170.38 4.94456 170.38C4.55256 170.38 4.20723 170.455 3.90856 170.604C3.61923 170.744 3.3859 170.94 3.20856 171.192C3.04056 171.444 2.95656 171.733 2.95656 172.06C2.95656 172.359 3.0359 172.634 3.19456 172.886C3.35323 173.138 3.5819 173.339 3.88056 173.488C4.18856 173.637 4.55723 173.712 4.98656 173.712ZM12.8679 175.14C12.1772 175.14 11.5006 175.042 10.8379 174.846C10.1846 174.641 9.63391 174.361 9.18591 174.006L9.95591 172.592C10.3106 172.881 10.7399 173.115 11.2439 173.292C11.7572 173.469 12.2892 173.558 12.8399 173.558C13.4839 173.558 13.9879 173.423 14.3519 173.152C14.7252 172.881 14.9119 172.517 14.9119 172.06C14.9119 171.752 14.8326 171.481 14.6739 171.248C14.5246 171.015 14.2539 170.837 13.8619 170.716C13.4792 170.595 12.9519 170.534 12.2799 170.534H9.91391L10.4179 165.2H16.1719V166.726H11.0899L12.0419 165.858L11.6639 169.848L10.7119 168.994H12.6859C13.6566 168.994 14.4359 169.125 15.0239 169.386C15.6212 169.638 16.0552 169.993 16.3259 170.45C16.6059 170.898 16.7459 171.411 16.7459 171.99C16.7459 172.559 16.6059 173.082 16.3259 173.558C16.0459 174.034 15.6166 174.417 15.0379 174.706C14.4686 174.995 13.7452 175.14 12.8679 175.14ZM18.8877 175.098C18.5704 175.098 18.2997 174.991 18.0757 174.776C17.8517 174.552 17.7397 174.272 17.7397 173.936C17.7397 173.581 17.8517 173.301 18.0757 173.096C18.2997 172.881 18.5704 172.774 18.8877 172.774C19.205 172.774 19.4757 172.881 19.6997 173.096C19.9237 173.301 20.0357 173.581 20.0357 173.936C20.0357 174.272 19.9237 174.552 19.6997 174.776C19.4757 174.991 19.205 175.098 18.8877 175.098ZM24.4617 175.14C23.771 175.14 23.0943 175.042 22.4317 174.846C21.7783 174.641 21.2277 174.361 20.7797 174.006L21.5497 172.592C21.9043 172.881 22.3337 173.115 22.8377 173.292C23.351 173.469 23.883 173.558 24.4337 173.558C25.0777 173.558 25.5817 173.423 25.9457 173.152C26.319 172.881 26.5057 172.517 26.5057 172.06C26.5057 171.752 26.4263 171.481 26.2677 171.248C26.1183 171.015 25.8477 170.837 25.4557 170.716C25.073 170.595 24.5457 170.534 23.8737 170.534H21.5077L22.0117 165.2H27.7657V166.726H22.6837L23.6357 165.858L23.2577 169.848L22.3057 168.994H24.2797C25.2503 168.994 26.0297 169.125 26.6177 169.386C27.215 169.638 27.649 169.993 27.9197 170.45C28.1997 170.898 28.3397 171.411 28.3397 171.99C28.3397 172.559 28.1997 173.082 27.9197 173.558C27.6397 174.034 27.2103 174.417 26.6317 174.706C26.0623 174.995 25.339 175.14 24.4617 175.14Z" fill="#A0A0A0"/>
<path d="M5.2164 210.14C4.32973 210.14 3.56907 209.953 2.9344 209.58C2.29973 209.197 1.8144 208.647 1.4784 207.928C1.1424 207.209 0.974398 206.323 0.974398 205.268C0.974398 204.148 1.17507 203.201 1.5764 202.426C1.98707 201.651 2.55173 201.063 3.2704 200.662C3.9984 200.261 4.83373 200.06 5.7764 200.06C6.27107 200.06 6.7424 200.111 7.1904 200.214C7.64773 200.317 8.03507 200.475 8.3524 200.69L7.6804 202.062C7.40973 201.885 7.11573 201.763 6.7984 201.698C6.4904 201.623 6.16373 201.586 5.8184 201.586C4.8944 201.586 4.16173 201.871 3.6204 202.44C3.07907 203.009 2.8084 203.849 2.8084 204.96C2.8084 205.137 2.81307 205.347 2.8224 205.59C2.83173 205.823 2.8644 206.061 2.9204 206.304L2.3604 205.688C2.5284 205.305 2.75707 204.988 3.0464 204.736C3.34507 204.475 3.69507 204.279 4.0964 204.148C4.50707 204.017 4.9504 203.952 5.4264 203.952C6.0704 203.952 6.6444 204.078 7.1484 204.33C7.6524 204.573 8.05373 204.923 8.3524 205.38C8.65107 205.828 8.8004 206.355 8.8004 206.962C8.8004 207.606 8.64173 208.166 8.3244 208.642C8.00707 209.118 7.57773 209.487 7.0364 209.748C6.49507 210.009 5.8884 210.14 5.2164 210.14ZM5.1184 208.712C5.49173 208.712 5.82307 208.647 6.1124 208.516C6.40173 208.376 6.62573 208.18 6.7844 207.928C6.9524 207.676 7.0364 207.382 7.0364 207.046C7.0364 206.533 6.85907 206.127 6.5044 205.828C6.14973 205.529 5.67373 205.38 5.0764 205.38C4.6844 205.38 4.33907 205.455 4.0404 205.604C3.75107 205.744 3.51773 205.94 3.3404 206.192C3.1724 206.444 3.0884 206.733 3.0884 207.06C3.0884 207.359 3.16773 207.634 3.3264 207.886C3.48507 208.138 3.71373 208.339 4.0124 208.488C4.3204 208.637 4.68907 208.712 5.1184 208.712ZM9.61174 207.774V206.514L14.4417 200.2H16.3877L11.6277 206.514L10.7177 206.234H18.4877V207.774H9.61174ZM14.9877 210V207.774L15.0437 206.234V204.26H16.7517V210H14.9877ZM20.6191 210.098C20.3018 210.098 20.0311 209.991 19.8071 209.776C19.5831 209.552 19.4711 209.272 19.4711 208.936C19.4711 208.581 19.5831 208.301 19.8071 208.096C20.0311 207.881 20.3018 207.774 20.6191 207.774C20.9365 207.774 21.2071 207.881 21.4311 208.096C21.6551 208.301 21.7671 208.581 21.7671 208.936C21.7671 209.272 21.6551 209.552 21.4311 209.776C21.2071 209.991 20.9365 210.098 20.6191 210.098ZM24.378 210L28.424 200.928L28.9 201.74H23.342L24.21 200.858V203.406H22.516V200.2H30.132V201.418L26.324 210H24.378Z" fill="#A0A0A0"/>
<path d="M5.22909 245.14C4.34243 245.14 3.58176 244.953 2.94709 244.58C2.31243 244.197 1.82709 243.647 1.49109 242.928C1.15509 242.209 0.987094 241.323 0.987094 240.268C0.987094 239.148 1.18776 238.201 1.58909 237.426C1.99976 236.651 2.56443 236.063 3.28309 235.662C4.01109 235.261 4.84643 235.06 5.78909 235.06C6.28376 235.06 6.75509 235.111 7.20309 235.214C7.66043 235.317 8.04776 235.475 8.36509 235.69L7.69309 237.062C7.42243 236.885 7.12843 236.763 6.81109 236.698C6.50309 236.623 6.17643 236.586 5.83109 236.586C4.90709 236.586 4.17443 236.871 3.63309 237.44C3.09176 238.009 2.82109 238.849 2.82109 239.96C2.82109 240.137 2.82576 240.347 2.83509 240.59C2.84443 240.823 2.87709 241.061 2.93309 241.304L2.37309 240.688C2.54109 240.305 2.76976 239.988 3.05909 239.736C3.35776 239.475 3.70776 239.279 4.10909 239.148C4.51976 239.017 4.96309 238.952 5.43909 238.952C6.08309 238.952 6.65709 239.078 7.16109 239.33C7.66509 239.573 8.06643 239.923 8.36509 240.38C8.66376 240.828 8.81309 241.355 8.81309 241.962C8.81309 242.606 8.65443 243.166 8.33709 243.642C8.01976 244.118 7.59043 244.487 7.04909 244.748C6.50776 245.009 5.90109 245.14 5.22909 245.14ZM5.13109 243.712C5.50443 243.712 5.83576 243.647 6.12509 243.516C6.41443 243.376 6.63843 243.18 6.79709 242.928C6.96509 242.676 7.04909 242.382 7.04909 242.046C7.04909 241.533 6.87176 241.127 6.51709 240.828C6.16243 240.529 5.68643 240.38 5.08909 240.38C4.69709 240.38 4.35176 240.455 4.05309 240.604C3.76376 240.744 3.53043 240.94 3.35309 241.192C3.18509 241.444 3.10109 241.733 3.10109 242.06C3.10109 242.359 3.18043 242.634 3.33909 242.886C3.49776 243.138 3.72643 243.339 4.02509 243.488C4.33309 243.637 4.70176 243.712 5.13109 243.712ZM9.63844 245V243.782L13.5304 240.086C13.8571 239.778 14.0998 239.507 14.2584 239.274C14.4171 239.041 14.5198 238.826 14.5664 238.63C14.6224 238.425 14.6504 238.233 14.6504 238.056C14.6504 237.608 14.4964 237.263 14.1884 237.02C13.8804 236.768 13.4278 236.642 12.8304 236.642C12.3544 236.642 11.9204 236.726 11.5284 236.894C11.1458 237.062 10.8144 237.319 10.5344 237.664L9.26044 236.684C9.6431 236.171 10.1564 235.774 10.8004 235.494C11.4538 235.205 12.1818 235.06 12.9844 235.06C13.6938 235.06 14.3098 235.177 14.8324 235.41C15.3644 235.634 15.7704 235.956 16.0504 236.376C16.3398 236.796 16.4844 237.295 16.4844 237.874C16.4844 238.191 16.4424 238.509 16.3584 238.826C16.2744 239.134 16.1158 239.461 15.8824 239.806C15.6491 240.151 15.3084 240.539 14.8604 240.968L11.5144 244.146L11.1364 243.46H16.8624V245H9.63844ZM19.1416 245.098C18.8243 245.098 18.5536 244.991 18.3296 244.776C18.1056 244.552 17.9936 244.272 17.9936 243.936C17.9936 243.581 18.1056 243.301 18.3296 243.096C18.5536 242.881 18.8243 242.774 19.1416 242.774C19.4589 242.774 19.7296 242.881 19.9536 243.096C20.1776 243.301 20.2896 243.581 20.2896 243.936C20.2896 244.272 20.1776 244.552 19.9536 244.776C19.7296 244.991 19.4589 245.098 19.1416 245.098ZM24.7716 235.06C25.6676 235.06 26.4282 235.251 27.0536 235.634C27.6882 236.007 28.1736 236.553 28.5096 237.272C28.8456 237.991 29.0136 238.877 29.0136 239.932C29.0136 241.052 28.8082 241.999 28.3976 242.774C27.9962 243.549 27.4362 244.137 26.7176 244.538C25.9989 244.939 25.1636 245.14 24.2116 245.14C23.7169 245.14 23.2456 245.089 22.7976 244.986C22.3496 244.883 21.9622 244.725 21.6356 244.51L22.3076 243.138C22.5782 243.315 22.8722 243.441 23.1896 243.516C23.5069 243.581 23.8336 243.614 24.1696 243.614C25.0936 243.614 25.8262 243.329 26.3676 242.76C26.9089 242.191 27.1796 241.351 27.1796 240.24C27.1796 240.063 27.1749 239.857 27.1656 239.624C27.1562 239.381 27.1236 239.139 27.0676 238.896L27.6276 239.512C27.4689 239.895 27.2402 240.217 26.9416 240.478C26.6429 240.73 26.2929 240.921 25.8916 241.052C25.4902 241.183 25.0469 241.248 24.5616 241.248C23.9269 241.248 23.3529 241.127 22.8396 240.884C22.3356 240.632 21.9342 240.282 21.6356 239.834C21.3369 239.377 21.1876 238.845 21.1876 238.238C21.1876 237.585 21.3462 237.025 21.6636 236.558C21.9809 236.082 22.4102 235.713 22.9516 235.452C23.5022 235.191 24.1089 235.06 24.7716 235.06ZM24.8696 236.488C24.4962 236.488 24.1649 236.558 23.8756 236.698C23.5862 236.829 23.3576 237.02 23.1896 237.272C23.0309 237.515 22.9516 237.809 22.9516 238.154C22.9516 238.667 23.1289 239.073 23.4836 239.372C23.8382 239.671 24.3142 239.82 24.9116 239.82C25.3036 239.82 25.6489 239.75 25.9476 239.61C26.2462 239.461 26.4796 239.26 26.6476 239.008C26.8156 238.747 26.8996 238.457 26.8996 238.14C26.8996 237.832 26.8202 237.557 26.6616 237.314C26.5029 237.062 26.2742 236.861 25.9756 236.712C25.6769 236.563 25.3082 236.488 24.8696 236.488Z" fill="#A0A0A0"/>
<path d="M4.858 280.14C3.97133 280.14 3.21067 279.953 2.576 279.58C1.94133 279.197 1.456 278.647 1.12 277.928C0.784 277.209 0.616 276.323 0.616 275.268C0.616 274.148 0.816667 273.201 1.218 272.426C1.62867 271.651 2.19333 271.063 2.912 270.662C3.64 270.261 4.47533 270.06 5.418 270.06C5.91267 270.06 6.384 270.111 6.832 270.214C7.28933 270.317 7.67667 270.475 7.994 270.69L7.322 272.062C7.05133 271.885 6.75733 271.763 6.44 271.698C6.132 271.623 5.80533 271.586 5.46 271.586C4.536 271.586 3.80333 271.871 3.262 272.44C2.72067 273.009 2.45 273.849 2.45 274.96C2.45 275.137 2.45467 275.347 2.464 275.59C2.47333 275.823 2.506 276.061 2.562 276.304L2.002 275.688C2.17 275.305 2.39867 274.988 2.688 274.736C2.98667 274.475 3.33667 274.279 3.738 274.148C4.14867 274.017 4.592 273.952 5.068 273.952C5.712 273.952 6.286 274.078 6.79 274.33C7.294 274.573 7.69533 274.923 7.994 275.38C8.29267 275.828 8.442 276.355 8.442 276.962C8.442 277.606 8.28333 278.166 7.966 278.642C7.64867 279.118 7.21933 279.487 6.678 279.748C6.13667 280.009 5.53 280.14 4.858 280.14ZM4.76 278.712C5.13333 278.712 5.46467 278.647 5.754 278.516C6.04333 278.376 6.26733 278.18 6.426 277.928C6.594 277.676 6.678 277.382 6.678 277.046C6.678 276.533 6.50067 276.127 6.146 275.828C5.79133 275.529 5.31533 275.38 4.718 275.38C4.326 275.38 3.98067 275.455 3.682 275.604C3.39267 275.744 3.15933 275.94 2.982 276.192C2.814 276.444 2.73 276.733 2.73 277.06C2.73 277.359 2.80933 277.634 2.968 277.886C3.12667 278.138 3.35533 278.339 3.654 278.488C3.962 278.637 4.33067 278.712 4.76 278.712ZM9.26734 280V278.782L13.1593 275.086C13.486 274.778 13.7287 274.507 13.8873 274.274C14.046 274.041 14.1487 273.826 14.1953 273.63C14.2513 273.425 14.2793 273.233 14.2793 273.056C14.2793 272.608 14.1253 272.263 13.8173 272.02C13.5093 271.768 13.0567 271.642 12.4593 271.642C11.9833 271.642 11.5493 271.726 11.1573 271.894C10.7747 272.062 10.4433 272.319 10.1633 272.664L8.88934 271.684C9.27201 271.171 9.78534 270.774 10.4293 270.494C11.0827 270.205 11.8107 270.06 12.6133 270.06C13.3227 270.06 13.9387 270.177 14.4613 270.41C14.9933 270.634 15.3993 270.956 15.6793 271.376C15.9687 271.796 16.1133 272.295 16.1133 272.874C16.1133 273.191 16.0713 273.509 15.9873 273.826C15.9033 274.134 15.7447 274.461 15.5113 274.806C15.278 275.151 14.9373 275.539 14.4893 275.968L11.1433 279.146L10.7653 278.46H16.4913V280H9.26734Z" fill="#A0A0A0"/>
<line x1="38" y1="63.5" x2="314" y2="63.5" stroke="#A0A0A0" stroke-opacity="0.46" stroke-dasharray="6 6"/>
<line x1="37" y1="99.5" x2="313" y2="99.5" stroke="#A0A0A0" stroke-opacity="0.46" stroke-dasharray="6 6"/>
<line x1="38" y1="135.5" x2="314" y2="135.5" stroke="#A0A0A0" stroke-opacity="0.46" stroke-dasharray="6 6"/>
<line x1="38" y1="171.5" x2="314" y2="171.5" stroke="#A0A0A0" stroke-opacity="0.46" stroke-dasharray="6 6"/>
<line x1="38" y1="207.5" x2="314" y2="207.5" stroke="#A0A0A0" stroke-opacity="0.46" stroke-dasharray="6 6"/>
<line x1="37" y1="243.5" x2="313" y2="243.5" stroke="#A0A0A0" stroke-opacity="0.46" stroke-dasharray="6 6"/>
<mask id="path-22-inside-1_2006_908" fill="white">
<path fill-rule="evenodd" clip-rule="evenodd" d="M21 0C15.4772 0 11 4.47715 11 10V23.25C11 28.7728 15.4772 33.25 21 33.25H32.5698L36.9819 42L41.3939 33.25H53.7291C59.252 33.25 63.7291 28.7728 63.7291 23.25V10C63.7291 4.47715 59.252 0 53.7291 0H21Z"/>
</mask>
<path d="M32.5698 33.25L33.4627 32.7998L33.1855 32.25H32.5698V33.25ZM36.9819 42L36.089 42.4502L36.9819 44.2211L37.8748 42.4502L36.9819 42ZM41.3939 33.25V32.25H40.7782L40.501 32.7998L41.3939 33.25ZM12 10C12 5.02944 16.0294 1 21 1V-1C14.9249 -1 10 3.92487 10 10H12ZM12 23.25V10H10V23.25H12ZM21 32.25C16.0294 32.25 12 28.2206 12 23.25H10C10 29.3251 14.9249 34.25 21 34.25V32.25ZM32.5698 32.25H21V34.25H32.5698V32.25ZM31.6769 33.7002L36.089 42.4502L37.8748 41.5498L33.4627 32.7998L31.6769 33.7002ZM37.8748 42.4502L42.2868 33.7002L40.501 32.7998L36.089 41.5498L37.8748 42.4502ZM53.7291 32.25H41.3939V34.25H53.7291V32.25ZM62.7291 23.25C62.7291 28.2206 58.6997 32.25 53.7291 32.25V34.25C59.8043 34.25 64.7291 29.3251 64.7291 23.25H62.7291ZM62.7291 10V23.25H64.7291V10H62.7291ZM53.7291 1C58.6997 1 62.7291 5.02944 62.7291 10H64.7291C64.7291 3.92487 59.8043 -1 53.7291 -1V1ZM21 1H53.7291V-1H21V1Z" fill="#A0A0A0" mask="url(#path-22-inside-1_2006_908)"/>
<circle cx="42" cy="56" r="9.5" fill="#FFC4DC" stroke="#FAFFEE" stroke-width="3"/>
<defs>
<linearGradient id="paint0_linear_2006_908" x1="239.71" y1="259.5" x2="37.4913" y2="173.84" gradientUnits="userSpaceOnUse">
<stop stop-color="#A9CD50" stop-opacity="0.3"/>
<stop offset="1" stop-color="#FF398B" stop-opacity="0.3"/>
</linearGradient>
<linearGradient id="paint1_linear_2006_908" x1="37" y1="63" x2="230" y2="196" gradientUnits="userSpaceOnUse">
<stop stop-color="#FF398B"/>
<stop offset="1" stop-color="#A9CD50"/>
</linearGradient>
</defs>
</svg>
