<svg width="318" height="305" viewBox="0 0 318 305" fill="none" xmlns="http://www.w3.org/2000/svg">
<path d="M25 280H316.999" stroke="#A0A0A0" stroke-width="1.5" stroke-linecap="round"/>
<path fill-rule="evenodd" clip-rule="evenodd" d="M26.1279 280H303.905V229C241.856 213.213 197.719 168.952 157.988 129.108C122.722 93.7422 90.9273 61.8574 53.1581 56.4575C43.6892 55.1037 34.7302 56.801 26.1279 60.9311V280Z" fill="url(#paint0_linear_4_38413)"/>
<line x1="25.6328" y1="280" x2="25.6328" y2="56" stroke="#A0A0A0" stroke-dasharray="6 6"/>
<line x1="234.076" y1="280" x2="234.076" y2="56" stroke="#A0A0A0" stroke-dasharray="6 6"/>
<path d="M39.6121 53C39.6121 58.2456 35.3561 62.5 30.1034 62.5C24.8508 62.5 20.5947 58.2456 20.5947 53C20.5947 47.7544 24.8508 43.5 30.1034 43.5C35.3561 43.5 39.6121 47.7544 39.6121 53Z" fill="#FFC4DC" stroke="#FAFFEE" stroke-width="3"/>
<path d="M243.693 195C243.693 200.246 239.437 204.5 234.184 204.5C228.932 204.5 224.676 200.246 224.676 195C224.676 189.754 228.932 185.5 234.184 185.5C239.437 185.5 243.693 189.754 243.693 195Z" fill="#A9CD50" stroke="#FAFFEE" stroke-width="3"/>
<path fill-rule="evenodd" clip-rule="evenodd" d="M218.19 126C212.668 126 208.19 130.477 208.19 136V149.25C208.19 154.773 212.668 159.25 218.19 159.25H229.777L234.193 168L238.608 159.25H250.961C256.484 159.25 260.961 154.773 260.961 149.25V136C260.961 130.477 256.484 126 250.961 126H218.19Z" fill="#A9CD50"/>
<mask id="path-8-inside-1_4_38413" fill="white">
<path fill-rule="evenodd" clip-rule="evenodd" d="M14.1436 0C8.62071 0 4.14355 4.47715 4.14355 10V23.25C4.14355 28.7728 8.6207 33.25 14.1435 33.25H25.7306L30.1459 42L34.5612 33.25H46.9144C52.4372 33.25 56.9144 28.7728 56.9144 23.25V10C56.9144 4.47715 52.4372 0 46.9144 0H14.1436Z"/>
</mask>
<path d="M25.7306 33.25L26.6234 32.7995L26.3461 32.25H25.7306V33.25ZM30.1459 42L29.2531 42.4505L30.1459 44.2198L31.0386 42.4505L30.1459 42ZM34.5612 33.25V32.25H33.9457L33.6684 32.7995L34.5612 33.25ZM5.14355 10C5.14355 5.02944 9.17299 1 14.1436 1V-1C8.06842 -1 3.14355 3.92487 3.14355 10H5.14355ZM5.14355 23.25V10H3.14355V23.25H5.14355ZM14.1435 32.25C9.17298 32.25 5.14355 28.2206 5.14355 23.25H3.14355C3.14355 29.3251 8.06841 34.25 14.1435 34.25V32.25ZM25.7306 32.25H14.1435V34.25H25.7306V32.25ZM24.8378 33.7005L29.2531 42.4505L31.0386 41.5495L26.6234 32.7995L24.8378 33.7005ZM31.0386 42.4505L35.4539 33.7005L33.6684 32.7995L29.2531 41.5495L31.0386 42.4505ZM46.9144 32.25H34.5612V34.25H46.9144V32.25ZM55.9144 23.25C55.9144 28.2206 51.8849 32.25 46.9144 32.25V34.25C52.9895 34.25 57.9144 29.3251 57.9144 23.25H55.9144ZM55.9144 10V23.25H57.9144V10H55.9144ZM46.9144 1C51.8849 1 55.9144 5.02944 55.9144 10H57.9144C57.9144 3.92487 52.9895 -1 46.9144 -1V1ZM14.1436 1H46.9144V-1H14.1436V1Z" fill="#A0A0A0" mask="url(#path-8-inside-1_4_38413)"/>
<path d="M22.0642 300.824L22.4422 300.082C22.8716 300.455 23.3522 300.735 23.8842 300.922C24.4256 301.099 24.9669 301.193 25.5082 301.202C26.0496 301.202 26.5442 301.123 26.9922 300.964C27.4496 300.805 27.8182 300.572 28.0982 300.264C28.3782 299.947 28.5182 299.564 28.5182 299.116C28.5182 298.547 28.2896 298.108 27.8322 297.8C27.3842 297.492 26.7589 297.338 25.9562 297.338H23.8562V296.498H25.9002C26.5909 296.498 27.1276 296.353 27.5102 296.064C27.9022 295.765 28.0982 295.355 28.0982 294.832C28.0982 294.459 27.9862 294.141 27.7622 293.88C27.5476 293.609 27.2489 293.404 26.8662 293.264C26.4929 293.115 26.0729 293.035 25.6062 293.026C25.1396 293.007 24.6542 293.068 24.1502 293.208C23.6556 293.339 23.1749 293.549 22.7082 293.838L22.3722 292.984C22.9509 292.639 23.5529 292.401 24.1782 292.27C24.8036 292.13 25.4102 292.083 25.9982 292.13C26.5862 292.177 27.1136 292.312 27.5802 292.536C28.0562 292.76 28.4342 293.054 28.7142 293.418C28.9942 293.782 29.1342 294.216 29.1342 294.72C29.1342 295.187 29.0129 295.597 28.7702 295.952C28.5369 296.307 28.2056 296.582 27.7762 296.778C27.3562 296.965 26.8569 297.058 26.2782 297.058L26.3342 296.75C26.9876 296.75 27.5522 296.853 28.0282 297.058C28.5136 297.263 28.8869 297.557 29.1482 297.94C29.4189 298.313 29.5542 298.752 29.5542 299.256C29.5542 299.732 29.4329 300.157 29.1902 300.53C28.9569 300.894 28.6302 301.202 28.2102 301.454C27.7996 301.697 27.3376 301.874 26.8242 301.986C26.3109 302.089 25.7742 302.117 25.2142 302.07C24.6542 302.023 24.1036 301.902 23.5622 301.706C23.0209 301.501 22.5216 301.207 22.0642 300.824ZM36.4526 302V300.376L36.4106 300.11V297.394C36.4106 296.769 36.2333 296.288 35.8786 295.952C35.5333 295.616 35.0153 295.448 34.3246 295.448C33.8486 295.448 33.3959 295.527 32.9666 295.686C32.5373 295.845 32.1733 296.055 31.8746 296.316L31.4266 295.574C31.7999 295.257 32.2479 295.014 32.7706 294.846C33.2933 294.669 33.8439 294.58 34.4226 294.58C35.3746 294.58 36.1073 294.818 36.6206 295.294C37.1433 295.761 37.4046 296.475 37.4046 297.436V302H36.4526ZM33.9186 302.07C33.3679 302.07 32.8873 301.981 32.4766 301.804C32.0753 301.617 31.7673 301.365 31.5526 301.048C31.3379 300.721 31.2306 300.348 31.2306 299.928C31.2306 299.545 31.3193 299.2 31.4966 298.892C31.6833 298.575 31.9819 298.323 32.3926 298.136C32.8126 297.94 33.3726 297.842 34.0726 297.842H36.6066V298.584H34.1006C33.3913 298.584 32.8966 298.71 32.6166 298.962C32.3459 299.214 32.2106 299.527 32.2106 299.9C32.2106 300.32 32.3739 300.656 32.7006 300.908C33.0273 301.16 33.4846 301.286 34.0726 301.286C34.6326 301.286 35.1133 301.16 35.5146 300.908C35.9253 300.647 36.2239 300.273 36.4106 299.788L36.6346 300.474C36.4479 300.959 36.1213 301.347 35.6546 301.636C35.1973 301.925 34.6186 302.07 33.9186 302.07ZM43.8447 302.07C43.2101 302.07 42.6361 301.925 42.1227 301.636C41.6094 301.337 41.1987 300.913 40.8907 300.362C40.5921 299.802 40.4427 299.121 40.4427 298.318C40.4427 297.515 40.5921 296.839 40.8907 296.288C41.1894 295.728 41.5954 295.303 42.1087 295.014C42.6221 294.725 43.2007 294.58 43.8447 294.58C44.5447 294.58 45.1701 294.739 45.7207 295.056C46.2807 295.364 46.7194 295.803 47.0367 296.372C47.3541 296.932 47.5127 297.581 47.5127 298.318C47.5127 299.065 47.3541 299.718 47.0367 300.278C46.7194 300.838 46.2807 301.277 45.7207 301.594C45.1701 301.911 44.5447 302.07 43.8447 302.07ZM40.0507 304.716V294.65H41.0027V296.862L40.9047 298.332L41.0447 299.816V304.716H40.0507ZM43.7747 301.188C44.2974 301.188 44.7641 301.071 45.1747 300.838C45.5854 300.595 45.9121 300.259 46.1547 299.83C46.3974 299.391 46.5187 298.887 46.5187 298.318C46.5187 297.749 46.3974 297.249 46.1547 296.82C45.9121 296.391 45.5854 296.055 45.1747 295.812C44.7641 295.569 44.2974 295.448 43.7747 295.448C43.2521 295.448 42.7807 295.569 42.3607 295.812C41.9501 296.055 41.6234 296.391 41.3807 296.82C41.1474 297.249 41.0307 297.749 41.0307 298.318C41.0307 298.887 41.1474 299.391 41.3807 299.83C41.6234 300.259 41.9501 300.595 42.3607 300.838C42.7807 301.071 43.2521 301.188 43.7747 301.188ZM54.1714 302V300.376L54.1294 300.11V297.394C54.1294 296.769 53.952 296.288 53.5974 295.952C53.252 295.616 52.734 295.448 52.0434 295.448C51.5674 295.448 51.1147 295.527 50.6854 295.686C50.256 295.845 49.892 296.055 49.5934 296.316L49.1454 295.574C49.5187 295.257 49.9667 295.014 50.4894 294.846C51.012 294.669 51.5627 294.58 52.1414 294.58C53.0934 294.58 53.826 294.818 54.3394 295.294C54.862 295.761 55.1234 296.475 55.1234 297.436V302H54.1714ZM51.6374 302.07C51.0867 302.07 50.606 301.981 50.1954 301.804C49.794 301.617 49.486 301.365 49.2714 301.048C49.0567 300.721 48.9494 300.348 48.9494 299.928C48.9494 299.545 49.038 299.2 49.2154 298.892C49.402 298.575 49.7007 298.323 50.1114 298.136C50.5314 297.94 51.0914 297.842 51.7914 297.842H54.3254V298.584H51.8194C51.11 298.584 50.6154 298.71 50.3354 298.962C50.0647 299.214 49.9294 299.527 49.9294 299.9C49.9294 300.32 50.0927 300.656 50.4194 300.908C50.746 301.16 51.2034 301.286 51.7914 301.286C52.3514 301.286 52.832 301.16 53.2334 300.908C53.644 300.647 53.9427 300.273 54.1294 299.788L54.3534 300.474C54.1667 300.959 53.84 301.347 53.3734 301.636C52.916 301.925 52.3374 302.07 51.6374 302.07ZM59.5931 302.084C59.0611 302.084 58.5337 302.009 58.0111 301.86C57.4884 301.711 57.0264 301.482 56.6251 301.174L56.9471 300.432C57.3017 300.693 57.7124 300.894 58.1791 301.034C58.6457 301.165 59.1077 301.23 59.5651 301.23C60.0224 301.221 60.4191 301.155 60.7551 301.034C61.0911 300.913 61.3524 300.745 61.5391 300.53C61.7257 300.315 61.8191 300.073 61.8191 299.802C61.8191 299.41 61.6417 299.107 61.2871 298.892C60.9324 298.668 60.4471 298.556 59.8311 298.556H58.5711V297.828H59.7611C60.1251 297.828 60.4471 297.781 60.7271 297.688C61.0071 297.595 61.2217 297.459 61.3711 297.282C61.5297 297.105 61.6091 296.895 61.6091 296.652C61.6091 296.391 61.5157 296.167 61.3291 295.98C61.1517 295.793 60.9044 295.653 60.5871 295.56C60.2697 295.467 59.9104 295.42 59.5091 295.42C59.1451 295.429 58.7671 295.485 58.3751 295.588C57.9831 295.681 57.5957 295.826 57.2131 296.022L56.9331 295.252C57.3624 295.028 57.7871 294.86 58.2071 294.748C58.6364 294.627 59.0657 294.566 59.4951 294.566C60.0831 294.547 60.6104 294.617 61.0771 294.776C61.5531 294.935 61.9311 295.163 62.2111 295.462C62.4911 295.751 62.6311 296.101 62.6311 296.512C62.6311 296.876 62.5191 297.193 62.2951 297.464C62.0711 297.735 61.7724 297.945 61.3991 298.094C61.0257 298.243 60.6011 298.318 60.1251 298.318L60.1671 298.052C61.0071 298.052 61.6604 298.215 62.1271 298.542C62.6031 298.869 62.8411 299.312 62.8411 299.872C62.8411 300.311 62.6964 300.698 62.4071 301.034C62.1177 301.361 61.7257 301.617 61.2311 301.804C60.7457 301.991 60.1997 302.084 59.5931 302.084Z" fill="#A0A0A0"/>
<path d="M16 204.596H6.048L6.56 204.1L6.56 208.292H4.8L4.8 198.82H6.56L6.56 203.012L6.048 202.532H16V204.596ZM16 197.453H7.456L7.456 193.277C7.456 192.242 7.648 191.432 8.032 190.845C8.416 190.248 8.96 189.949 9.664 189.949C10.3573 189.949 10.9013 190.226 11.296 190.781C11.68 191.336 11.872 192.072 11.872 192.989L11.376 192.749C11.376 191.714 11.568 190.946 11.952 190.445C12.3253 189.933 12.8747 189.677 13.6 189.677C14.3573 189.677 14.9493 189.96 15.376 190.525C15.792 191.09 16 191.949 16 193.101V197.453ZM14.544 195.549V193.261C14.544 192.717 14.4587 192.306 14.288 192.029C14.1067 191.752 13.8347 191.613 13.472 191.613C13.088 191.613 12.8053 191.741 12.624 191.997C12.4427 192.253 12.352 192.653 12.352 193.197V195.549H14.544ZM11.024 195.549V193.453C11.024 192.941 10.9333 192.557 10.752 192.301C10.56 192.034 10.2933 191.901 9.952 191.901C9.6 191.901 9.33867 192.034 9.168 192.301C8.99733 192.557 8.912 192.941 8.912 193.453V195.549H11.024ZM16.112 183.739C16.112 184.613 15.9253 185.392 15.552 186.075C15.168 186.757 14.6453 187.296 13.984 187.691C13.3227 188.085 12.5707 188.283 11.728 188.283C10.8747 188.283 10.1227 188.085 9.472 187.691C8.81067 187.296 8.29333 186.757 7.92 186.075C7.54667 185.392 7.36 184.613 7.36 183.739C7.36 182.853 7.54667 182.069 7.92 181.387C8.29333 180.693 8.80533 180.155 9.456 179.771C10.1067 179.376 10.864 179.179 11.728 179.179C12.5707 179.179 13.3227 179.376 13.984 179.771C14.6453 180.155 15.168 180.693 15.552 181.387C15.9253 182.069 16.112 182.853 16.112 183.739ZM14.4 183.739C14.4 183.248 14.2933 182.811 14.08 182.427C13.8667 182.043 13.5573 181.744 13.152 181.531C12.7467 181.307 12.272 181.195 11.728 181.195C11.1733 181.195 10.6987 181.307 10.304 181.531C9.89867 181.744 9.58933 182.043 9.376 182.427C9.16267 182.811 9.056 183.243 9.056 183.723C9.056 184.213 9.16267 184.651 9.376 185.035C9.58933 185.408 9.89867 185.707 10.304 185.931C10.6987 186.155 11.1733 186.267 11.728 186.267C12.272 186.267 12.7467 186.155 13.152 185.931C13.5573 185.707 13.8667 185.408 14.08 185.035C14.2933 184.651 14.4 184.219 14.4 183.739ZM16 172.06H13.088L13.424 171.772V174.332C13.424 175.505 13.1787 176.428 12.688 177.1C12.1867 177.761 11.4667 178.092 10.528 178.092C9.52533 178.092 8.76267 177.74 8.24 177.036C7.71733 176.321 7.456 175.372 7.456 174.188L7.456 170.268H16V172.06ZM16 178.204L12.736 175.9V173.852L16 176.06V178.204ZM12.448 172.06H8.608L9.136 171.772V174.124C9.136 174.743 9.25333 175.223 9.488 175.564C9.712 175.895 10.08 176.06 10.592 176.06C11.552 176.06 12.032 175.436 12.032 174.188V171.772L12.448 172.06ZM16 163.156H7.456L7.456 158.98C7.456 157.945 7.648 157.135 8.032 156.548C8.416 155.951 8.96 155.652 9.664 155.652C10.3573 155.652 10.9013 155.929 11.296 156.484C11.68 157.039 11.872 157.775 11.872 158.692L11.376 158.452C11.376 157.417 11.568 156.649 11.952 156.148C12.3253 155.636 12.8747 155.38 13.6 155.38C14.3573 155.38 14.9493 155.663 15.376 156.228C15.792 156.793 16 157.652 16 158.804V163.156ZM14.544 161.252V158.964C14.544 158.42 14.4587 158.009 14.288 157.732C14.1067 157.455 13.8347 157.316 13.472 157.316C13.088 157.316 12.8053 157.444 12.624 157.7C12.4427 157.956 12.352 158.356 12.352 158.9V161.252H14.544ZM11.024 161.252V159.156C11.024 158.644 10.9333 158.26 10.752 158.004C10.56 157.737 10.2933 157.604 9.952 157.604C9.6 157.604 9.33867 157.737 9.168 158.004C8.99733 158.26 8.912 158.644 8.912 159.156V161.252H11.024ZM16 148.066H14.272L13.904 148.178H10.88C10.2933 148.178 9.84 148.354 9.52 148.706C9.18933 149.058 9.024 149.591 9.024 150.306C9.024 150.786 9.09867 151.26 9.248 151.73C9.39733 152.188 9.60533 152.578 9.872 152.898L8.416 153.682C8.064 153.223 7.80267 152.679 7.632 152.05C7.45067 151.41 7.36 150.748 7.36 150.066C7.36 148.828 7.65867 147.874 8.256 147.202C8.84267 146.519 9.75467 146.178 10.992 146.178H16V148.066ZM16.112 150.754C16.112 151.394 16.0053 151.954 15.792 152.434C15.568 152.914 15.264 153.287 14.88 153.554C14.4853 153.81 14.0427 153.938 13.552 153.938C13.072 153.938 12.64 153.826 12.256 153.602C11.872 153.367 11.568 152.988 11.344 152.466C11.12 151.943 11.008 151.25 11.008 150.386V147.906H12.336V150.242C12.336 150.924 12.448 151.383 12.672 151.618C12.8853 151.852 13.152 151.97 13.472 151.97C13.8347 151.97 14.1227 151.826 14.336 151.538C14.5493 151.25 14.656 150.85 14.656 150.338C14.656 149.847 14.544 149.41 14.32 149.026C14.096 148.631 13.7653 148.348 13.328 148.178L14.528 147.842C15.0293 148.034 15.4187 148.38 15.696 148.882C15.9733 149.372 16.112 149.996 16.112 150.754ZM16 143.703H7.456L7.456 137.143H9.152V142.167L8.704 141.703H16V143.703ZM16 130.503H14.272L13.904 130.615H10.88C10.2933 130.615 9.84 130.791 9.52 131.143C9.18933 131.495 9.024 132.029 9.024 132.743C9.024 133.223 9.09867 133.698 9.248 134.167C9.39733 134.626 9.60533 135.015 9.872 135.335L8.416 136.119C8.064 135.661 7.80267 135.117 7.632 134.487C7.45067 133.847 7.36 133.186 7.36 132.503C7.36 131.266 7.65867 130.311 8.256 129.639C8.84267 128.957 9.75467 128.615 10.992 128.615H16V130.503ZM16.112 133.191C16.112 133.831 16.0053 134.391 15.792 134.871C15.568 135.351 15.264 135.725 14.88 135.991C14.4853 136.247 14.0427 136.375 13.552 136.375C13.072 136.375 12.64 136.263 12.256 136.039C11.872 135.805 11.568 135.426 11.344 134.903C11.12 134.381 11.008 133.687 11.008 132.823V130.343H12.336V132.679C12.336 133.362 12.448 133.821 12.672 134.055C12.8853 134.29 13.152 134.407 13.472 134.407C13.8347 134.407 14.1227 134.263 14.336 133.975C14.5493 133.687 14.656 133.287 14.656 132.775C14.656 132.285 14.544 131.847 14.32 131.463C14.096 131.069 13.7653 130.786 13.328 130.615L14.528 130.279C15.0293 130.471 15.4187 130.818 15.696 131.319C15.9733 131.81 16.112 132.434 16.112 133.191Z" fill="#181616"/>
<path d="M192.188 297.856C191.628 298.108 191.068 298.299 190.508 298.43C189.958 298.561 189.426 298.626 188.912 298.626C187.764 298.626 186.868 298.351 186.224 297.8C185.59 297.24 185.272 296.451 185.272 295.434V292.2H186.294V295.322C186.294 296.078 186.532 296.666 187.008 297.086C187.494 297.506 188.161 297.716 189.01 297.716C189.514 297.716 190.037 297.651 190.578 297.52C191.12 297.38 191.656 297.184 192.188 296.932V297.856ZM192.006 302V292.2H193.014V302H192.006ZM199.251 302.07C198.485 302.07 197.813 301.911 197.235 301.594C196.656 301.267 196.203 300.824 195.877 300.264C195.55 299.695 195.387 299.046 195.387 298.318C195.387 297.59 195.541 296.946 195.849 296.386C196.166 295.826 196.595 295.387 197.137 295.07C197.687 294.743 198.303 294.58 198.985 294.58C199.675 294.58 200.287 294.739 200.819 295.056C201.36 295.364 201.785 295.803 202.093 296.372C202.401 296.932 202.555 297.581 202.555 298.318C202.555 298.365 202.55 298.416 202.541 298.472C202.541 298.519 202.541 298.57 202.541 298.626H196.143V297.884H202.009L201.617 298.178C201.617 297.646 201.5 297.175 201.267 296.764C201.043 296.344 200.735 296.017 200.343 295.784C199.951 295.551 199.498 295.434 198.985 295.434C198.481 295.434 198.028 295.551 197.627 295.784C197.225 296.017 196.913 296.344 196.689 296.764C196.465 297.184 196.353 297.665 196.353 298.206V298.36C196.353 298.92 196.474 299.415 196.717 299.844C196.969 300.264 197.314 300.595 197.753 300.838C198.201 301.071 198.709 301.188 199.279 301.188C199.727 301.188 200.142 301.109 200.525 300.95C200.917 300.791 201.253 300.549 201.533 300.222L202.093 300.866C201.766 301.258 201.355 301.557 200.861 301.762C200.375 301.967 199.839 302.07 199.251 302.07ZM208.549 302.07C207.914 302.07 207.34 301.925 206.827 301.636C206.313 301.337 205.903 300.913 205.595 300.362C205.296 299.802 205.147 299.121 205.147 298.318C205.147 297.515 205.296 296.839 205.595 296.288C205.893 295.728 206.299 295.303 206.813 295.014C207.326 294.725 207.905 294.58 208.549 294.58C209.249 294.58 209.874 294.739 210.425 295.056C210.985 295.364 211.423 295.803 211.741 296.372C212.058 296.932 212.217 297.581 212.217 298.318C212.217 299.065 212.058 299.718 211.741 300.278C211.423 300.838 210.985 301.277 210.425 301.594C209.874 301.911 209.249 302.07 208.549 302.07ZM204.755 304.716V294.65H205.707V296.862L205.609 298.332L205.749 299.816V304.716H204.755ZM208.479 301.188C209.001 301.188 209.468 301.071 209.879 300.838C210.289 300.595 210.616 300.259 210.859 299.83C211.101 299.391 211.223 298.887 211.223 298.318C211.223 297.749 211.101 297.249 210.859 296.82C210.616 296.391 210.289 296.055 209.879 295.812C209.468 295.569 209.001 295.448 208.479 295.448C207.956 295.448 207.485 295.569 207.065 295.812C206.654 296.055 206.327 296.391 206.085 296.82C205.851 297.249 205.735 297.749 205.735 298.318C205.735 298.887 205.851 299.391 206.085 299.83C206.327 300.259 206.654 300.595 207.065 300.838C207.485 301.071 207.956 301.188 208.479 301.188ZM217.502 302.07C216.737 302.07 216.065 301.911 215.486 301.594C214.908 301.267 214.455 300.824 214.128 300.264C213.802 299.695 213.638 299.046 213.638 298.318C213.638 297.59 213.792 296.946 214.1 296.386C214.418 295.826 214.847 295.387 215.388 295.07C215.939 294.743 216.555 294.58 217.236 294.58C217.927 294.58 218.538 294.739 219.07 295.056C219.612 295.364 220.036 295.803 220.344 296.372C220.652 296.932 220.806 297.581 220.806 298.318C220.806 298.365 220.802 298.416 220.792 298.472C220.792 298.519 220.792 298.57 220.792 298.626H214.394V297.884H220.26L219.868 298.178C219.868 297.646 219.752 297.175 219.518 296.764C219.294 296.344 218.986 296.017 218.594 295.784C218.202 295.551 217.75 295.434 217.236 295.434C216.732 295.434 216.28 295.551 215.878 295.784C215.477 296.017 215.164 296.344 214.94 296.764C214.716 297.184 214.604 297.665 214.604 298.206V298.36C214.604 298.92 214.726 299.415 214.968 299.844C215.22 300.264 215.566 300.595 216.004 300.838C216.452 301.071 216.961 301.188 217.53 301.188C217.978 301.188 218.394 301.109 218.776 300.95C219.168 300.791 219.504 300.549 219.784 300.222L220.344 300.866C220.018 301.258 219.607 301.557 219.112 301.762C218.627 301.967 218.09 302.07 217.502 302.07ZM224.776 302.084C224.244 302.084 223.716 302.009 223.194 301.86C222.671 301.711 222.209 301.482 221.808 301.174L222.13 300.432C222.484 300.693 222.895 300.894 223.362 301.034C223.828 301.165 224.29 301.23 224.748 301.23C225.205 301.221 225.602 301.155 225.938 301.034C226.274 300.913 226.535 300.745 226.722 300.53C226.908 300.315 227.002 300.073 227.002 299.802C227.002 299.41 226.824 299.107 226.47 298.892C226.115 298.668 225.63 298.556 225.014 298.556H223.754V297.828H224.944C225.308 297.828 225.63 297.781 225.91 297.688C226.19 297.595 226.404 297.459 226.554 297.282C226.712 297.105 226.792 296.895 226.792 296.652C226.792 296.391 226.698 296.167 226.512 295.98C226.334 295.793 226.087 295.653 225.77 295.56C225.452 295.467 225.093 295.42 224.692 295.42C224.328 295.429 223.95 295.485 223.558 295.588C223.166 295.681 222.778 295.826 222.396 296.022L222.116 295.252C222.545 295.028 222.97 294.86 223.39 294.748C223.819 294.627 224.248 294.566 224.678 294.566C225.266 294.547 225.793 294.617 226.26 294.776C226.736 294.935 227.114 295.163 227.394 295.462C227.674 295.751 227.814 296.101 227.814 296.512C227.814 296.876 227.702 297.193 227.478 297.464C227.254 297.735 226.955 297.945 226.582 298.094C226.208 298.243 225.784 298.318 225.308 298.318L225.35 298.052C226.19 298.052 226.843 298.215 227.31 298.542C227.786 298.869 228.024 299.312 228.024 299.872C228.024 300.311 227.879 300.698 227.59 301.034C227.3 301.361 226.908 301.617 226.414 301.804C225.928 301.991 225.382 302.084 224.776 302.084ZM236.184 302.084C235.475 302.084 234.803 301.972 234.168 301.748C233.543 301.515 233.039 301.207 232.656 300.824L233.146 300.026C233.464 300.353 233.888 300.623 234.42 300.838C234.962 301.053 235.55 301.16 236.184 301.16C236.996 301.16 237.617 300.983 238.046 300.628C238.485 300.273 238.704 299.797 238.704 299.2C238.704 298.603 238.49 298.127 238.06 297.772C237.64 297.417 236.973 297.24 236.058 297.24H235.358V296.498L238.382 292.704L238.522 293.096H233.062V292.2H239.362V292.914L236.338 296.708L235.848 296.386H236.226C237.402 296.386 238.28 296.647 238.858 297.17C239.446 297.693 239.74 298.365 239.74 299.186C239.74 299.737 239.61 300.231 239.348 300.67C239.087 301.109 238.69 301.454 238.158 301.706C237.636 301.958 236.978 302.084 236.184 302.084ZM245.179 302.084C244.311 302.084 243.578 301.893 242.981 301.51C242.383 301.118 241.931 300.558 241.623 299.83C241.315 299.093 241.161 298.211 241.161 297.184C241.161 296.073 241.347 295.145 241.721 294.398C242.103 293.642 242.631 293.073 243.303 292.69C243.975 292.307 244.754 292.116 245.641 292.116C246.079 292.116 246.499 292.158 246.901 292.242C247.302 292.326 247.657 292.461 247.965 292.648L247.559 293.46C247.307 293.292 247.017 293.175 246.691 293.11C246.364 293.035 246.019 292.998 245.655 292.998C244.6 292.998 243.755 293.334 243.121 294.006C242.495 294.678 242.183 295.681 242.183 297.016C242.183 297.221 242.192 297.478 242.211 297.786C242.239 298.085 242.295 298.383 242.379 298.682L242.029 298.416C242.131 297.931 242.332 297.52 242.631 297.184C242.929 296.839 243.303 296.577 243.751 296.4C244.199 296.223 244.689 296.134 245.221 296.134C245.874 296.134 246.448 296.255 246.943 296.498C247.437 296.741 247.825 297.081 248.105 297.52C248.385 297.959 248.525 298.477 248.525 299.074C248.525 299.681 248.38 300.213 248.091 300.67C247.801 301.118 247.4 301.468 246.887 301.72C246.383 301.963 245.813 302.084 245.179 302.084ZM245.137 301.23C245.603 301.23 246.014 301.146 246.369 300.978C246.733 300.801 247.017 300.553 247.223 300.236C247.428 299.909 247.531 299.531 247.531 299.102C247.531 298.458 247.307 297.945 246.859 297.562C246.42 297.179 245.823 296.988 245.067 296.988C244.563 296.988 244.124 297.081 243.751 297.268C243.377 297.455 243.083 297.711 242.869 298.038C242.654 298.355 242.547 298.719 242.547 299.13C242.547 299.485 242.645 299.825 242.841 300.152C243.037 300.469 243.326 300.731 243.709 300.936C244.101 301.132 244.577 301.23 245.137 301.23ZM259.082 301.524V295.518H255.54L255.456 297.156C255.437 297.651 255.405 298.136 255.358 298.612C255.321 299.088 255.251 299.527 255.148 299.928C255.055 300.32 254.919 300.642 254.742 300.894C254.565 301.137 254.336 301.277 254.056 301.314L253.062 301.132C253.351 301.141 253.589 301.039 253.776 300.824C253.963 300.6 254.107 300.297 254.21 299.914C254.313 299.531 254.387 299.097 254.434 298.612C254.481 298.117 254.518 297.613 254.546 297.1L254.644 294.65H260.076V301.524H259.082ZM252.754 303.778V301.132H261.224V303.778H260.286V302H253.692V303.778H252.754ZM263.161 302V294.65H264.155V297.898H268.789V294.65H269.783V302H268.789V298.752H264.155V302H263.161ZM272.608 302V294.65H273.602V302H272.608ZM273.112 293.026C272.907 293.026 272.734 292.956 272.594 292.816C272.454 292.676 272.384 292.508 272.384 292.312C272.384 292.116 272.454 291.953 272.594 291.822C272.734 291.682 272.907 291.612 273.112 291.612C273.318 291.612 273.49 291.677 273.63 291.808C273.77 291.939 273.84 292.102 273.84 292.298C273.84 292.503 273.77 292.676 273.63 292.816C273.5 292.956 273.327 293.026 273.112 293.026ZM276.436 302V294.65H279.684C280.515 294.65 281.168 294.809 281.644 295.126C282.13 295.443 282.372 295.91 282.372 296.526C282.372 297.123 282.144 297.585 281.686 297.912C281.229 298.229 280.627 298.388 279.88 298.388L280.076 298.094C280.954 298.094 281.598 298.257 282.008 298.584C282.419 298.911 282.624 299.382 282.624 299.998C282.624 300.633 282.391 301.127 281.924 301.482C281.467 301.827 280.753 302 279.782 302H276.436ZM277.402 301.216H279.74C280.366 301.216 280.837 301.118 281.154 300.922C281.481 300.717 281.644 300.39 281.644 299.942C281.644 299.494 281.5 299.167 281.21 298.962C280.921 298.757 280.464 298.654 279.838 298.654H277.402V301.216ZM277.402 297.912H279.614C280.184 297.912 280.618 297.805 280.916 297.59C281.224 297.375 281.378 297.063 281.378 296.652C281.378 296.241 281.224 295.933 280.916 295.728C280.618 295.523 280.184 295.42 279.614 295.42H277.402V297.912Z" fill="#A0A0A0"/>
<defs>
<linearGradient id="paint0_linear_4_38413" x1="240.614" y1="259.5" x2="97.7622" y2="261.432" gradientUnits="userSpaceOnUse">
<stop stop-color="#A9CD50" stop-opacity="0.3"/>
<stop offset="1" stop-color="#FF398B" stop-opacity="0.3"/>
</linearGradient>
</defs>
</svg>
