<svg width="318" height="341" viewBox="0 0 318 341" fill="none" xmlns="http://www.w3.org/2000/svg">
<path d="M25.2324 280H317" stroke="#A0A0A0" stroke-width="1.5" stroke-linecap="round"/>
<path fill-rule="evenodd" clip-rule="evenodd" d="M26.3418 280H303.9V229C241.9 213.213 197.798 168.952 158.098 129.108C122.86 93.7422 91.0903 61.8574 53.3509 56.4575C43.8894 55.1037 34.9373 56.801 26.3418 60.9312V280Z" fill="url(#paint0_linear_33_40159)"/>
<line x1="25.8433" y1="280" x2="25.8433" y2="56" stroke="#A0A0A0" stroke-dasharray="6 6"/>
<line x1="234.123" y1="280" x2="234.123" y2="56" stroke="#A0A0A0" stroke-dasharray="6 6"/>
<circle cx="30.3125" cy="53" r="9.5" fill="#FFC4DC" stroke="#FAFFEE" stroke-width="3"/>
<circle cx="234.232" cy="195" r="9.5" fill="#A9CD50" stroke="#FAFFEE" stroke-width="3"/>
<path fill-rule="evenodd" clip-rule="evenodd" d="M218.258 126C212.735 126 208.258 130.477 208.258 136V149.25C208.258 154.773 212.735 159.25 218.258 159.25H229.828L234.24 168L238.652 159.25H250.987C256.51 159.25 260.987 154.773 260.987 149.25V136C260.987 130.477 256.51 126 250.987 126H218.258Z" fill="#A9CD50"/>
<mask id="path-8-inside-1_33_40159" fill="white">
<path fill-rule="evenodd" clip-rule="evenodd" d="M14.373 0C8.8502 0 4.37305 4.47715 4.37305 10V23.25C4.37305 28.7728 8.8502 33.25 14.373 33.25H25.9429L30.3549 42L34.767 33.25H47.1022C52.625 33.25 57.1022 28.7728 57.1022 23.25V10C57.1022 4.47715 52.625 0 47.1022 0H14.373Z"/>
</mask>
<path d="M25.9429 33.25L26.8358 32.7998L26.5586 32.25H25.9429V33.25ZM30.3549 42L29.462 42.4502L30.3549 44.2211L31.2478 42.4502L30.3549 42ZM34.767 33.25V32.25H34.1513L33.8741 32.7998L34.767 33.25ZM5.37305 10C5.37305 5.02944 9.40248 1 14.373 1V-1C8.29791 -1 3.37305 3.92487 3.37305 10H5.37305ZM5.37305 23.25V10H3.37305V23.25H5.37305ZM14.373 32.25C9.40248 32.25 5.37305 28.2206 5.37305 23.25H3.37305C3.37305 29.3251 8.29791 34.25 14.373 34.25V32.25ZM25.9429 32.25H14.373V34.25H25.9429V32.25ZM25.0499 33.7002L29.462 42.4502L31.2478 41.5498L26.8358 32.7998L25.0499 33.7002ZM31.2478 42.4502L35.6599 33.7002L33.8741 32.7998L29.462 41.5498L31.2478 42.4502ZM47.1022 32.25H34.767V34.25H47.1022V32.25ZM56.1022 23.25C56.1022 28.2206 52.0727 32.25 47.1022 32.25V34.25C53.1773 34.25 58.1022 29.3251 58.1022 23.25H56.1022ZM56.1022 10V23.25H58.1022V10H56.1022ZM47.1022 1C52.0727 1 56.1022 5.02944 56.1022 10H58.1022C58.1022 3.92487 53.1773 -1 47.1022 -1V1ZM14.373 1H47.1022V-1H14.373V1Z" fill="#A0A0A0" mask="url(#path-8-inside-1_33_40159)"/>
<path d="M22.2786 300.824L22.6566 300.082C23.0859 300.455 23.5666 300.735 24.0986 300.922C24.6399 301.099 25.1812 301.193 25.7226 301.202C26.2639 301.202 26.7586 301.123 27.2066 300.964C27.6639 300.805 28.0326 300.572 28.3126 300.264C28.5926 299.947 28.7326 299.564 28.7326 299.116C28.7326 298.547 28.5039 298.108 28.0466 297.8C27.5986 297.492 26.9732 297.338 26.1706 297.338H24.0706V296.498H26.1146C26.8052 296.498 27.3419 296.353 27.7246 296.064C28.1166 295.765 28.3126 295.355 28.3126 294.832C28.3126 294.459 28.2006 294.141 27.9766 293.88C27.7619 293.609 27.4632 293.404 27.0806 293.264C26.7072 293.115 26.2872 293.035 25.8206 293.026C25.3539 293.007 24.8686 293.068 24.3646 293.208C23.8699 293.339 23.3892 293.549 22.9226 293.838L22.5866 292.984C23.1652 292.639 23.7672 292.401 24.3926 292.27C25.0179 292.13 25.6246 292.083 26.2126 292.13C26.8006 292.177 27.3279 292.312 27.7946 292.536C28.2706 292.76 28.6486 293.054 28.9286 293.418C29.2086 293.782 29.3486 294.216 29.3486 294.72C29.3486 295.187 29.2272 295.597 28.9846 295.952C28.7512 296.307 28.4199 296.582 27.9906 296.778C27.5706 296.965 27.0712 297.058 26.4926 297.058L26.5486 296.75C27.2019 296.75 27.7666 296.853 28.2426 297.058C28.7279 297.263 29.1012 297.557 29.3626 297.94C29.6332 298.313 29.7686 298.752 29.7686 299.256C29.7686 299.732 29.6472 300.157 29.4046 300.53C29.1712 300.894 28.8446 301.202 28.4246 301.454C28.0139 301.697 27.5519 301.874 27.0386 301.986C26.5252 302.089 25.9886 302.117 25.4286 302.07C24.8686 302.023 24.3179 301.902 23.7766 301.706C23.2352 301.501 22.7359 301.207 22.2786 300.824ZM36.667 302V300.376L36.625 300.11V297.394C36.625 296.769 36.4476 296.288 36.093 295.952C35.7476 295.616 35.2296 295.448 34.539 295.448C34.063 295.448 33.6103 295.527 33.181 295.686C32.7516 295.845 32.3876 296.055 32.089 296.316L31.641 295.574C32.0143 295.257 32.4623 295.014 32.985 294.846C33.5076 294.669 34.0583 294.58 34.637 294.58C35.589 294.58 36.3216 294.818 36.835 295.294C37.3576 295.761 37.619 296.475 37.619 297.436V302H36.667ZM34.133 302.07C33.5823 302.07 33.1016 301.981 32.691 301.804C32.2896 301.617 31.9816 301.365 31.767 301.048C31.5523 300.721 31.445 300.348 31.445 299.928C31.445 299.545 31.5336 299.2 31.711 298.892C31.8976 298.575 32.1963 298.323 32.607 298.136C33.027 297.94 33.587 297.842 34.287 297.842H36.821V298.584H34.315C33.6056 298.584 33.111 298.71 32.831 298.962C32.5603 299.214 32.425 299.527 32.425 299.9C32.425 300.32 32.5883 300.656 32.915 300.908C33.2416 301.16 33.699 301.286 34.287 301.286C34.847 301.286 35.3276 301.16 35.729 300.908C36.1396 300.647 36.4383 300.273 36.625 299.788L36.849 300.474C36.6623 300.959 36.3356 301.347 35.869 301.636C35.4116 301.925 34.833 302.07 34.133 302.07ZM44.0591 302.07C43.4244 302.07 42.8504 301.925 42.3371 301.636C41.8237 301.337 41.4131 300.913 41.1051 300.362C40.8064 299.802 40.6571 299.121 40.6571 298.318C40.6571 297.515 40.8064 296.839 41.1051 296.288C41.4037 295.728 41.8097 295.303 42.3231 295.014C42.8364 294.725 43.4151 294.58 44.0591 294.58C44.7591 294.58 45.3844 294.739 45.9351 295.056C46.4951 295.364 46.9337 295.803 47.2511 296.372C47.5684 296.932 47.7271 297.581 47.7271 298.318C47.7271 299.065 47.5684 299.718 47.2511 300.278C46.9337 300.838 46.4951 301.277 45.9351 301.594C45.3844 301.911 44.7591 302.07 44.0591 302.07ZM40.2651 304.716V294.65H41.2171V296.862L41.1191 298.332L41.2591 299.816V304.716H40.2651ZM43.9891 301.188C44.5117 301.188 44.9784 301.071 45.3891 300.838C45.7997 300.595 46.1264 300.259 46.3691 299.83C46.6117 299.391 46.7331 298.887 46.7331 298.318C46.7331 297.749 46.6117 297.249 46.3691 296.82C46.1264 296.391 45.7997 296.055 45.3891 295.812C44.9784 295.569 44.5117 295.448 43.9891 295.448C43.4664 295.448 42.9951 295.569 42.5751 295.812C42.1644 296.055 41.8377 296.391 41.5951 296.82C41.3617 297.249 41.2451 297.749 41.2451 298.318C41.2451 298.887 41.3617 299.391 41.5951 299.83C41.8377 300.259 42.1644 300.595 42.5751 300.838C42.9951 301.071 43.4664 301.188 43.9891 301.188ZM54.3857 302V300.376L54.3437 300.11V297.394C54.3437 296.769 54.1664 296.288 53.8117 295.952C53.4664 295.616 52.9484 295.448 52.2577 295.448C51.7817 295.448 51.329 295.527 50.8997 295.686C50.4704 295.845 50.1064 296.055 49.8077 296.316L49.3597 295.574C49.733 295.257 50.181 295.014 50.7037 294.846C51.2264 294.669 51.777 294.58 52.3557 294.58C53.3077 294.58 54.0404 294.818 54.5537 295.294C55.0764 295.761 55.3377 296.475 55.3377 297.436V302H54.3857ZM51.8517 302.07C51.301 302.07 50.8204 301.981 50.4097 301.804C50.0084 301.617 49.7004 301.365 49.4857 301.048C49.271 300.721 49.1637 300.348 49.1637 299.928C49.1637 299.545 49.2524 299.2 49.4297 298.892C49.6164 298.575 49.915 298.323 50.3257 298.136C50.7457 297.94 51.3057 297.842 52.0057 297.842H54.5397V298.584H52.0337C51.3244 298.584 50.8297 298.71 50.5497 298.962C50.279 299.214 50.1437 299.527 50.1437 299.9C50.1437 300.32 50.307 300.656 50.6337 300.908C50.9604 301.16 51.4177 301.286 52.0057 301.286C52.5657 301.286 53.0464 301.16 53.4477 300.908C53.8584 300.647 54.157 300.273 54.3437 299.788L54.5677 300.474C54.381 300.959 54.0544 301.347 53.5877 301.636C53.1304 301.925 52.5517 302.07 51.8517 302.07ZM59.8074 302.084C59.2754 302.084 58.7481 302.009 58.2254 301.86C57.7028 301.711 57.2408 301.482 56.8394 301.174L57.1614 300.432C57.5161 300.693 57.9268 300.894 58.3934 301.034C58.8601 301.165 59.3221 301.23 59.7794 301.23C60.2368 301.221 60.6334 301.155 60.9694 301.034C61.3054 300.913 61.5668 300.745 61.7534 300.53C61.9401 300.315 62.0334 300.073 62.0334 299.802C62.0334 299.41 61.8561 299.107 61.5014 298.892C61.1468 298.668 60.6614 298.556 60.0454 298.556H58.7854V297.828H59.9754C60.3394 297.828 60.6614 297.781 60.9414 297.688C61.2214 297.595 61.4361 297.459 61.5854 297.282C61.7441 297.105 61.8234 296.895 61.8234 296.652C61.8234 296.391 61.7301 296.167 61.5434 295.98C61.3661 295.793 61.1188 295.653 60.8014 295.56C60.4841 295.467 60.1248 295.42 59.7234 295.42C59.3594 295.429 58.9814 295.485 58.5894 295.588C58.1974 295.681 57.8101 295.826 57.4274 296.022L57.1474 295.252C57.5768 295.028 58.0014 294.86 58.4214 294.748C58.8508 294.627 59.2801 294.566 59.7094 294.566C60.2974 294.547 60.8248 294.617 61.2914 294.776C61.7674 294.935 62.1454 295.163 62.4254 295.462C62.7054 295.751 62.8454 296.101 62.8454 296.512C62.8454 296.876 62.7334 297.193 62.5094 297.464C62.2854 297.735 61.9868 297.945 61.6134 298.094C61.2401 298.243 60.8154 298.318 60.3394 298.318L60.3814 298.052C61.2214 298.052 61.8748 298.215 62.3414 298.542C62.8174 298.869 63.0554 299.312 63.0554 299.872C63.0554 300.311 62.9108 300.698 62.6214 301.034C62.3321 301.361 61.9401 301.617 61.4454 301.804C60.9601 301.991 60.4141 302.084 59.8074 302.084Z" fill="#A0A0A0"/>
<path d="M16.2324 204.596H6.28042L6.79242 204.1L6.79242 208.292H5.03242L5.03242 198.82H6.79242L6.79242 203.012L6.28042 202.532H16.2324V204.596ZM16.2324 197.453H7.68842L7.68842 193.277C7.68842 192.242 7.88042 191.432 8.26442 190.845C8.64842 190.248 9.19242 189.949 9.89642 189.949C10.5898 189.949 11.1338 190.226 11.5284 190.781C11.9124 191.336 12.1044 192.072 12.1044 192.989L11.6084 192.749C11.6084 191.714 11.8004 190.946 12.1844 190.445C12.5578 189.933 13.1071 189.677 13.8324 189.677C14.5898 189.677 15.1818 189.96 15.6084 190.525C16.0244 191.09 16.2324 191.949 16.2324 193.101V197.453ZM14.7764 195.549V193.261C14.7764 192.717 14.6911 192.306 14.5204 192.029C14.3391 191.752 14.0671 191.613 13.7044 191.613C13.3204 191.613 13.0378 191.741 12.8564 191.997C12.6751 192.253 12.5844 192.653 12.5844 193.197V195.549H14.7764ZM11.2564 195.549V193.453C11.2564 192.941 11.1658 192.557 10.9844 192.301C10.7924 192.034 10.5258 191.901 10.1844 191.901C9.83242 191.901 9.57109 192.034 9.40042 192.301C9.22976 192.557 9.14442 192.941 9.14442 193.453V195.549H11.2564ZM16.3444 183.739C16.3444 184.613 16.1578 185.392 15.7844 186.075C15.4004 186.757 14.8778 187.296 14.2164 187.691C13.5551 188.085 12.8031 188.283 11.9604 188.283C11.1071 188.283 10.3551 188.085 9.70442 187.691C9.04309 187.296 8.52576 186.757 8.15242 186.075C7.77909 185.392 7.59242 184.613 7.59242 183.739C7.59242 182.853 7.77909 182.069 8.15242 181.387C8.52576 180.693 9.03776 180.155 9.68842 179.771C10.3391 179.376 11.0964 179.179 11.9604 179.179C12.8031 179.179 13.5551 179.376 14.2164 179.771C14.8778 180.155 15.4004 180.693 15.7844 181.387C16.1578 182.069 16.3444 182.853 16.3444 183.739ZM14.6324 183.739C14.6324 183.248 14.5258 182.811 14.3124 182.427C14.0991 182.043 13.7898 181.744 13.3844 181.531C12.9791 181.307 12.5044 181.195 11.9604 181.195C11.4058 181.195 10.9311 181.307 10.5364 181.531C10.1311 181.744 9.82176 182.043 9.60842 182.427C9.39509 182.811 9.28842 183.243 9.28842 183.723C9.28842 184.213 9.39509 184.651 9.60842 185.035C9.82176 185.408 10.1311 185.707 10.5364 185.931C10.9311 186.155 11.4058 186.267 11.9604 186.267C12.5044 186.267 12.9791 186.155 13.3844 185.931C13.7898 185.707 14.0991 185.408 14.3124 185.035C14.5258 184.651 14.6324 184.219 14.6324 183.739ZM16.2324 172.06H13.3204L13.6564 171.772V174.332C13.6564 175.505 13.4111 176.428 12.9204 177.1C12.4191 177.761 11.6991 178.092 10.7604 178.092C9.75776 178.092 8.99509 177.74 8.47242 177.036C7.94976 176.321 7.68842 175.372 7.68842 174.188L7.68842 170.268H16.2324V172.06ZM16.2324 178.204L12.9684 175.9V173.852L16.2324 176.06V178.204ZM12.6804 172.06H8.84042L9.36842 171.772V174.124C9.36842 174.743 9.48576 175.223 9.72042 175.564C9.94442 175.895 10.3124 176.06 10.8244 176.06C11.7844 176.06 12.2644 175.436 12.2644 174.188V171.772L12.6804 172.06ZM16.2324 163.156H7.68842L7.68842 158.98C7.68842 157.945 7.88042 157.135 8.26442 156.548C8.64842 155.951 9.19242 155.652 9.89642 155.652C10.5898 155.652 11.1338 155.929 11.5284 156.484C11.9124 157.039 12.1044 157.775 12.1044 158.692L11.6084 158.452C11.6084 157.417 11.8004 156.649 12.1844 156.148C12.5578 155.636 13.1071 155.38 13.8324 155.38C14.5898 155.38 15.1818 155.663 15.6084 156.228C16.0244 156.793 16.2324 157.652 16.2324 158.804V163.156ZM14.7764 161.252V158.964C14.7764 158.42 14.6911 158.009 14.5204 157.732C14.3391 157.455 14.0671 157.316 13.7044 157.316C13.3204 157.316 13.0378 157.444 12.8564 157.7C12.6751 157.956 12.5844 158.356 12.5844 158.9V161.252H14.7764ZM11.2564 161.252V159.156C11.2564 158.644 11.1658 158.26 10.9844 158.004C10.7924 157.737 10.5258 157.604 10.1844 157.604C9.83242 157.604 9.57109 157.737 9.40042 158.004C9.22976 158.26 9.14442 158.644 9.14442 159.156V161.252H11.2564ZM16.2324 148.066H14.5044L14.1364 148.178H11.1124C10.5258 148.178 10.0724 148.354 9.75242 148.706C9.42176 149.058 9.25642 149.591 9.25642 150.306C9.25642 150.786 9.33109 151.26 9.48042 151.73C9.62976 152.188 9.83776 152.578 10.1044 152.898L8.64842 153.682C8.29642 153.223 8.03509 152.679 7.86442 152.05C7.68309 151.41 7.59242 150.748 7.59242 150.066C7.59242 148.828 7.89109 147.874 8.48842 147.202C9.07509 146.519 9.98709 146.178 11.2244 146.178H16.2324V148.066ZM16.3444 150.754C16.3444 151.394 16.2378 151.954 16.0244 152.434C15.8004 152.914 15.4964 153.287 15.1124 153.554C14.7178 153.81 14.2751 153.938 13.7844 153.938C13.3044 153.938 12.8724 153.826 12.4884 153.602C12.1044 153.367 11.8004 152.988 11.5764 152.466C11.3524 151.943 11.2404 151.25 11.2404 150.386V147.906H12.5684V150.242C12.5684 150.924 12.6804 151.383 12.9044 151.618C13.1178 151.852 13.3844 151.97 13.7044 151.97C14.0671 151.97 14.3551 151.826 14.5684 151.538C14.7818 151.25 14.8884 150.85 14.8884 150.338C14.8884 149.847 14.7764 149.41 14.5524 149.026C14.3284 148.631 13.9978 148.348 13.5604 148.178L14.7604 147.842C15.2618 148.034 15.6511 148.38 15.9284 148.882C16.2058 149.372 16.3444 149.996 16.3444 150.754ZM16.2324 143.703H7.68842L7.68842 137.143H9.38442V142.167L8.93642 141.703H16.2324V143.703ZM16.2324 130.503H14.5044L14.1364 130.615H11.1124C10.5258 130.615 10.0724 130.791 9.75242 131.143C9.42176 131.495 9.25642 132.029 9.25642 132.743C9.25642 133.223 9.33109 133.698 9.48042 134.167C9.62976 134.626 9.83776 135.015 10.1044 135.335L8.64842 136.119C8.29642 135.661 8.03509 135.117 7.86442 134.487C7.68309 133.847 7.59242 133.186 7.59242 132.503C7.59242 131.266 7.89109 130.311 8.48842 129.639C9.07509 128.957 9.98709 128.615 11.2244 128.615H16.2324V130.503ZM16.3444 133.191C16.3444 133.831 16.2378 134.391 16.0244 134.871C15.8004 135.351 15.4964 135.725 15.1124 135.991C14.7178 136.247 14.2751 136.375 13.7844 136.375C13.3044 136.375 12.8724 136.263 12.4884 136.039C12.1044 135.805 11.8004 135.426 11.5764 134.903C11.3524 134.381 11.2404 133.687 11.2404 132.823V130.343H12.5684V132.679C12.5684 133.362 12.6804 133.821 12.9044 134.055C13.1178 134.29 13.3844 134.407 13.7044 134.407C14.0671 134.407 14.3551 134.263 14.5684 133.975C14.7818 133.687 14.8884 133.287 14.8884 132.775C14.8884 132.285 14.7764 131.847 14.5524 131.463C14.3284 131.069 13.9978 130.786 13.5604 130.615L14.7604 130.279C15.2618 130.471 15.6511 130.818 15.9284 131.319C16.2058 131.81 16.3444 132.434 16.3444 133.191Z" fill="#181616"/>
<path d="M190.831 298.192C190.317 298.407 189.818 298.565 189.333 298.668C188.847 298.771 188.376 298.822 187.919 298.822C186.668 298.822 185.702 298.523 185.021 297.926C184.349 297.319 184.013 296.451 184.013 295.322V292.2H185.819V295.126C185.819 295.817 186.019 296.344 186.421 296.708C186.822 297.072 187.396 297.254 188.143 297.254C188.591 297.254 189.039 297.203 189.487 297.1C189.944 296.997 190.383 296.839 190.803 296.624L190.831 298.192ZM190.551 302V292.2H192.357V302H190.551ZM198.393 302.098C197.563 302.098 196.835 301.935 196.209 301.608C195.593 301.272 195.113 300.815 194.767 300.236C194.431 299.657 194.263 298.999 194.263 298.262C194.263 297.515 194.427 296.857 194.753 296.288C195.089 295.709 195.547 295.257 196.125 294.93C196.713 294.603 197.381 294.44 198.127 294.44C198.855 294.44 199.504 294.599 200.073 294.916C200.643 295.233 201.091 295.681 201.417 296.26C201.744 296.839 201.907 297.52 201.907 298.304C201.907 298.379 201.903 298.463 201.893 298.556C201.893 298.649 201.889 298.738 201.879 298.822H195.649V297.66H200.955L200.269 298.024C200.279 297.595 200.19 297.217 200.003 296.89C199.817 296.563 199.56 296.307 199.233 296.12C198.916 295.933 198.547 295.84 198.127 295.84C197.698 295.84 197.32 295.933 196.993 296.12C196.676 296.307 196.424 296.568 196.237 296.904C196.06 297.231 195.971 297.618 195.971 298.066V298.346C195.971 298.794 196.074 299.191 196.279 299.536C196.485 299.881 196.774 300.147 197.147 300.334C197.521 300.521 197.95 300.614 198.435 300.614C198.855 300.614 199.233 300.549 199.569 300.418C199.905 300.287 200.204 300.082 200.465 299.802L201.403 300.88C201.067 301.272 200.643 301.575 200.129 301.79C199.625 301.995 199.047 302.098 198.393 302.098ZM207.966 302.098C207.359 302.098 206.804 301.958 206.3 301.678C205.805 301.398 205.408 300.978 205.11 300.418C204.82 299.849 204.676 299.13 204.676 298.262C204.676 297.385 204.816 296.666 205.096 296.106C205.385 295.546 205.777 295.131 206.272 294.86C206.766 294.58 207.331 294.44 207.966 294.44C208.703 294.44 209.352 294.599 209.912 294.916C210.481 295.233 210.929 295.677 211.256 296.246C211.592 296.815 211.76 297.487 211.76 298.262C211.76 299.037 211.592 299.713 211.256 300.292C210.929 300.861 210.481 301.305 209.912 301.622C209.352 301.939 208.703 302.098 207.966 302.098ZM203.822 304.716V294.524H205.488V296.288L205.432 298.276L205.572 300.264V304.716H203.822ZM207.77 300.6C208.19 300.6 208.563 300.507 208.89 300.32C209.226 300.133 209.492 299.863 209.688 299.508C209.884 299.153 209.982 298.738 209.982 298.262C209.982 297.777 209.884 297.361 209.688 297.016C209.492 296.661 209.226 296.391 208.89 296.204C208.563 296.017 208.19 295.924 207.77 295.924C207.35 295.924 206.972 296.017 206.636 296.204C206.3 296.391 206.034 296.661 205.838 297.016C205.642 297.361 205.544 297.777 205.544 298.262C205.544 298.738 205.642 299.153 205.838 299.508C206.034 299.863 206.3 300.133 206.636 300.32C206.972 300.507 207.35 300.6 207.77 300.6ZM216.987 302.098C216.157 302.098 215.429 301.935 214.803 301.608C214.187 301.272 213.707 300.815 213.361 300.236C213.025 299.657 212.857 298.999 212.857 298.262C212.857 297.515 213.021 296.857 213.347 296.288C213.683 295.709 214.141 295.257 214.719 294.93C215.307 294.603 215.975 294.44 216.721 294.44C217.449 294.44 218.098 294.599 218.667 294.916C219.237 295.233 219.685 295.681 220.011 296.26C220.338 296.839 220.501 297.52 220.501 298.304C220.501 298.379 220.497 298.463 220.487 298.556C220.487 298.649 220.483 298.738 220.473 298.822H214.243V297.66H219.549L218.863 298.024C218.873 297.595 218.784 297.217 218.597 296.89C218.411 296.563 218.154 296.307 217.827 296.12C217.51 295.933 217.141 295.84 216.721 295.84C216.292 295.84 215.914 295.933 215.587 296.12C215.27 296.307 215.018 296.568 214.831 296.904C214.654 297.231 214.565 297.618 214.565 298.066V298.346C214.565 298.794 214.668 299.191 214.873 299.536C215.079 299.881 215.368 300.147 215.741 300.334C216.115 300.521 216.544 300.614 217.029 300.614C217.449 300.614 217.827 300.549 218.163 300.418C218.499 300.287 218.798 300.082 219.059 299.802L219.997 300.88C219.661 301.272 219.237 301.575 218.723 301.79C218.219 301.995 217.641 302.098 216.987 302.098ZM224.658 302.126C224.089 302.126 223.524 302.061 222.964 301.93C222.414 301.79 221.914 301.594 221.466 301.342L221.956 300.04C222.32 300.245 222.731 300.404 223.188 300.516C223.646 300.628 224.103 300.684 224.56 300.684C224.952 300.684 225.288 300.647 225.568 300.572C225.848 300.488 226.063 300.367 226.212 300.208C226.371 300.049 226.45 299.867 226.45 299.662C226.45 299.363 226.32 299.139 226.058 298.99C225.806 298.831 225.442 298.752 224.966 298.752H223.524V297.576H224.826C225.125 297.576 225.377 297.543 225.582 297.478C225.797 297.413 225.96 297.315 226.072 297.184C226.184 297.053 226.24 296.899 226.24 296.722C226.24 296.545 226.17 296.391 226.03 296.26C225.9 296.12 225.708 296.017 225.456 295.952C225.204 295.877 224.901 295.84 224.546 295.84C224.173 295.84 223.786 295.887 223.384 295.98C222.992 296.073 222.591 296.209 222.18 296.386L221.732 295.098C222.208 294.883 222.67 294.72 223.118 294.608C223.576 294.487 224.028 294.421 224.476 294.412C225.158 294.384 225.764 294.454 226.296 294.622C226.828 294.79 227.248 295.033 227.556 295.35C227.864 295.667 228.018 296.041 228.018 296.47C228.018 296.825 227.906 297.147 227.682 297.436C227.468 297.716 227.169 297.935 226.786 298.094C226.413 298.253 225.984 298.332 225.498 298.332L225.554 297.954C226.385 297.954 227.038 298.122 227.514 298.458C227.99 298.785 228.228 299.233 228.228 299.802C228.228 300.259 228.074 300.665 227.766 301.02C227.458 301.365 227.034 301.636 226.492 301.832C225.96 302.028 225.349 302.126 224.658 302.126ZM233.214 302V300.782L237.106 297.086C237.432 296.778 237.675 296.507 237.834 296.274C237.992 296.041 238.095 295.826 238.142 295.63C238.198 295.425 238.226 295.233 238.226 295.056C238.226 294.608 238.072 294.263 237.764 294.02C237.456 293.768 237.003 293.642 236.406 293.642C235.93 293.642 235.496 293.726 235.104 293.894C234.721 294.062 234.39 294.319 234.11 294.664L232.836 293.684C233.218 293.171 233.732 292.774 234.376 292.494C235.029 292.205 235.757 292.06 236.56 292.06C237.269 292.06 237.885 292.177 238.408 292.41C238.94 292.634 239.346 292.956 239.626 293.376C239.915 293.796 240.06 294.295 240.06 294.874C240.06 295.191 240.018 295.509 239.934 295.826C239.85 296.134 239.691 296.461 239.458 296.806C239.224 297.151 238.884 297.539 238.436 297.968L235.09 301.146L234.712 300.46H240.438V302H233.214ZM245.422 302.14C244.61 302.14 243.905 302.019 243.308 301.776C242.711 301.533 242.249 301.193 241.922 300.754C241.595 300.306 241.432 299.783 241.432 299.186C241.432 298.589 241.591 298.085 241.908 297.674C242.225 297.263 242.683 296.951 243.28 296.736C243.877 296.521 244.591 296.414 245.422 296.414C246.253 296.414 246.967 296.521 247.564 296.736C248.171 296.951 248.633 297.268 248.95 297.688C249.277 298.099 249.44 298.598 249.44 299.186C249.44 299.783 249.272 300.306 248.936 300.754C248.609 301.193 248.143 301.533 247.536 301.776C246.939 302.019 246.234 302.14 245.422 302.14ZM245.422 300.712C246.094 300.712 246.626 300.572 247.018 300.292C247.41 300.012 247.606 299.625 247.606 299.13C247.606 298.645 247.41 298.262 247.018 297.982C246.626 297.702 246.094 297.562 245.422 297.562C244.75 297.562 244.223 297.702 243.84 297.982C243.457 298.262 243.266 298.645 243.266 299.13C243.266 299.625 243.457 300.012 243.84 300.292C244.223 300.572 244.75 300.712 245.422 300.712ZM245.422 297.366C244.666 297.366 244.017 297.268 243.476 297.072C242.935 296.867 242.515 296.573 242.216 296.19C241.927 295.798 241.782 295.331 241.782 294.79C241.782 294.23 241.931 293.749 242.23 293.348C242.538 292.937 242.967 292.62 243.518 292.396C244.069 292.172 244.703 292.06 245.422 292.06C246.15 292.06 246.789 292.172 247.34 292.396C247.891 292.62 248.32 292.937 248.628 293.348C248.936 293.749 249.09 294.23 249.09 294.79C249.09 295.331 248.941 295.798 248.642 296.19C248.353 296.573 247.933 296.867 247.382 297.072C246.831 297.268 246.178 297.366 245.422 297.366ZM245.422 296.246C246.001 296.246 246.458 296.125 246.794 295.882C247.13 295.63 247.298 295.294 247.298 294.874C247.298 294.435 247.125 294.095 246.78 293.852C246.435 293.609 245.982 293.488 245.422 293.488C244.862 293.488 244.414 293.609 244.078 293.852C243.742 294.095 243.574 294.435 243.574 294.874C243.574 295.294 243.737 295.63 244.064 295.882C244.4 296.125 244.853 296.246 245.422 296.246ZM260.174 301.188V296.008H257.304L257.262 297.212C257.243 297.641 257.215 298.057 257.178 298.458C257.141 298.85 257.08 299.214 256.996 299.55C256.912 299.877 256.791 300.147 256.632 300.362C256.473 300.577 256.263 300.717 256.002 300.782L254.266 300.516C254.546 300.516 254.77 300.427 254.938 300.25C255.115 300.063 255.251 299.811 255.344 299.494C255.447 299.167 255.521 298.799 255.568 298.388C255.615 297.968 255.647 297.534 255.666 297.086L255.764 294.524H261.924V301.188H260.174ZM254 303.666V300.516H263.03V303.666H261.392V302H255.624V303.666H254ZM264.593 302V294.524H266.343V297.562H270.109V294.524H271.859V302H270.109V299.046H266.343V302H264.593ZM274.204 302V294.524H275.954V302H274.204ZM275.086 293.292C274.76 293.292 274.489 293.189 274.274 292.984C274.069 292.779 273.966 292.531 273.966 292.242C273.966 291.943 274.069 291.696 274.274 291.5C274.489 291.295 274.76 291.192 275.086 291.192C275.413 291.192 275.679 291.29 275.884 291.486C276.099 291.673 276.206 291.911 276.206 292.2C276.206 292.508 276.104 292.769 275.898 292.984C275.693 293.189 275.422 293.292 275.086 293.292ZM278.32 302V294.524H281.974C282.879 294.524 283.588 294.692 284.102 295.028C284.624 295.364 284.886 295.84 284.886 296.456C284.886 297.063 284.643 297.539 284.158 297.884C283.672 298.22 283.028 298.388 282.226 298.388L282.436 297.954C283.341 297.954 284.013 298.122 284.452 298.458C284.9 298.785 285.124 299.265 285.124 299.9C285.124 300.563 284.876 301.081 284.382 301.454C283.887 301.818 283.136 302 282.128 302H278.32ZM279.986 300.726H281.988C282.464 300.726 282.823 300.651 283.066 300.502C283.308 300.343 283.43 300.105 283.43 299.788C283.43 299.452 283.318 299.205 283.094 299.046C282.87 298.887 282.52 298.808 282.044 298.808H279.986V300.726ZM279.986 297.646H281.82C282.268 297.646 282.604 297.567 282.828 297.408C283.061 297.24 283.178 297.007 283.178 296.708C283.178 296.4 283.061 296.171 282.828 296.022C282.604 295.873 282.268 295.798 281.82 295.798H279.986V297.646Z" fill="#FF7CB2"/>
<path d="M30.83 326.65V320.64H27.48L27.42 322.34C27.4 322.867 27.3667 323.373 27.32 323.86C27.28 324.34 27.2133 324.773 27.12 325.16C27.0333 325.54 26.9133 325.85 26.76 326.09C26.6133 326.33 26.42 326.47 26.18 326.51L25.37 326.36C25.6367 326.373 25.8567 326.277 26.03 326.07C26.21 325.863 26.3467 325.573 26.44 325.2C26.54 324.827 26.6133 324.39 26.66 323.89C26.7067 323.39 26.74 322.85 26.76 322.27L26.84 320H31.56V326.65H30.83ZM25.11 328.57L25.12 326.36H32.61V328.57H31.92V327H25.81L25.8 328.57H25.11ZM37.2095 327V325.84L37.1795 325.65V323.71C37.1795 323.263 37.0528 322.92 36.7995 322.68C36.5528 322.44 36.1828 322.32 35.6895 322.32C35.3495 322.32 35.0261 322.377 34.7195 322.49C34.4128 322.603 34.1528 322.753 33.9395 322.94L33.6195 322.41C33.8861 322.183 34.2061 322.01 34.5795 321.89C34.9528 321.763 35.3461 321.7 35.7595 321.7C36.4395 321.7 36.9628 321.87 37.3295 322.21C37.7028 322.543 37.8895 323.053 37.8895 323.74V327H37.2095ZM35.3995 327.05C35.0061 327.05 34.6628 326.987 34.3695 326.86C34.0828 326.727 33.8628 326.547 33.7095 326.32C33.5561 326.087 33.4795 325.82 33.4795 325.52C33.4795 325.247 33.5428 325 33.6695 324.78C33.8028 324.553 34.0161 324.373 34.3095 324.24C34.6095 324.1 35.0095 324.03 35.5095 324.03H37.3195V324.56H35.5295C35.0228 324.56 34.6695 324.65 34.4695 324.83C34.2761 325.01 34.1795 325.233 34.1795 325.5C34.1795 325.8 34.2961 326.04 34.5295 326.22C34.7628 326.4 35.0895 326.49 35.5095 326.49C35.9095 326.49 36.2528 326.4 36.5395 326.22C36.8328 326.033 37.0461 325.767 37.1795 325.42L37.3395 325.91C37.2061 326.257 36.9728 326.533 36.6395 326.74C36.3128 326.947 35.8995 327.05 35.3995 327.05ZM39.7795 327V321.75H40.4895V324.07H43.7995V321.75H44.5095V327H43.7995V324.68H40.4895V327H39.7795ZM46.5276 327V321.75H47.2376V327H46.5276ZM46.8876 320.59C46.7409 320.59 46.6176 320.54 46.5176 320.44C46.4176 320.34 46.3676 320.22 46.3676 320.08C46.3676 319.94 46.4176 319.823 46.5176 319.73C46.6176 319.63 46.7409 319.58 46.8876 319.58C47.0342 319.58 47.1576 319.627 47.2576 319.72C47.3576 319.813 47.4076 319.93 47.4076 320.07C47.4076 320.217 47.3576 320.34 47.2576 320.44C47.1642 320.54 47.0409 320.59 46.8876 320.59ZM48.812 328.46L49.252 326.61L49.332 327.04C49.1786 327.04 49.0486 326.99 48.942 326.89C48.842 326.79 48.792 326.66 48.792 326.5C48.792 326.34 48.842 326.21 48.942 326.11C49.0486 326.01 49.1753 325.96 49.322 325.96C49.4753 325.96 49.5986 326.013 49.692 326.12C49.792 326.227 49.842 326.353 49.842 326.5C49.842 326.553 49.8386 326.607 49.832 326.66C49.8253 326.713 49.812 326.773 49.792 326.84C49.772 326.907 49.7453 326.987 49.712 327.08L49.292 328.46H48.812ZM54.7283 327V320.3L55.0483 320.64H53.0783V320H55.4483V327H54.7283ZM57.0016 325.16V324.64L60.7116 320H61.5116L57.8316 324.64L57.4416 324.52H63.0716V325.16H57.0016ZM60.9516 327V325.16L60.9716 324.52V322.9H61.6716V327H60.9516ZM68.5601 327.06C68.0601 327.06 67.5834 326.98 67.1301 326.82C66.6767 326.653 66.3167 326.433 66.0501 326.16L66.4001 325.59C66.6201 325.823 66.9201 326.017 67.3001 326.17C67.6867 326.323 68.1034 326.4 68.5501 326.4C69.1434 326.4 69.5934 326.27 69.9001 326.01C70.2134 325.743 70.3701 325.397 70.3701 324.97C70.3701 324.67 70.2967 324.413 70.1501 324.2C70.0101 323.98 69.7701 323.81 69.4301 323.69C69.0901 323.57 68.6234 323.51 68.0301 323.51H66.5401L66.9001 320H70.7301V320.64H67.1901L67.5601 320.29L67.2501 323.23L66.8801 322.87H68.1901C68.8967 322.87 69.4634 322.957 69.8901 323.13C70.3167 323.303 70.6234 323.547 70.8101 323.86C71.0034 324.167 71.1001 324.527 71.1001 324.94C71.1001 325.333 71.0067 325.693 70.8201 326.02C70.6334 326.34 70.3534 326.593 69.9801 326.78C69.6067 326.967 69.1334 327.06 68.5601 327.06ZM71.8941 325.16V324.64L75.6041 320H76.4041L72.7241 324.64L72.3341 324.52H77.9641V325.16H71.8941ZM75.8441 327V325.16L75.8641 324.52V322.9H76.5641V327H75.8441ZM81.4955 327.06C80.8755 327.06 80.3521 326.923 79.9255 326.65C79.4988 326.37 79.1755 325.97 78.9555 325.45C78.7355 324.923 78.6255 324.293 78.6255 323.56C78.6255 322.767 78.7588 322.103 79.0255 321.57C79.2988 321.03 79.6755 320.623 80.1555 320.35C80.6355 320.077 81.1921 319.94 81.8255 319.94C82.1388 319.94 82.4388 319.97 82.7255 320.03C83.0121 320.09 83.2655 320.187 83.4855 320.32L83.1955 320.9C83.0155 320.78 82.8088 320.697 82.5755 320.65C82.3421 320.597 82.0955 320.57 81.8355 320.57C81.0821 320.57 80.4788 320.81 80.0255 321.29C79.5788 321.77 79.3555 322.487 79.3555 323.44C79.3555 323.587 79.3621 323.77 79.3755 323.99C79.3955 324.203 79.4355 324.417 79.4955 324.63L79.2455 324.44C79.3188 324.093 79.4621 323.8 79.6755 323.56C79.8888 323.313 80.1555 323.127 80.4755 323C80.7955 322.873 81.1455 322.81 81.5255 322.81C81.9921 322.81 82.4021 322.897 82.7555 323.07C83.1088 323.243 83.3855 323.487 83.5855 323.8C83.7855 324.113 83.8855 324.483 83.8855 324.91C83.8855 325.343 83.7821 325.723 83.5755 326.05C83.3688 326.37 83.0821 326.62 82.7155 326.8C82.3555 326.973 81.9488 327.06 81.4955 327.06ZM81.4655 326.45C81.7988 326.45 82.0921 326.39 82.3455 326.27C82.6055 326.143 82.8088 325.967 82.9555 325.74C83.1021 325.507 83.1755 325.237 83.1755 324.93C83.1755 324.47 83.0155 324.103 82.6955 323.83C82.3821 323.557 81.9555 323.42 81.4155 323.42C81.0555 323.42 80.7421 323.487 80.4755 323.62C80.2088 323.753 79.9988 323.937 79.8455 324.17C79.6921 324.397 79.6155 324.657 79.6155 324.95C79.6155 325.203 79.6855 325.447 79.8255 325.68C79.9655 325.907 80.1721 326.093 80.4455 326.24C80.7255 326.38 81.0655 326.45 81.4655 326.45ZM89.9864 327.05C89.4797 327.05 89.0231 326.937 88.6164 326.71C88.2164 326.477 87.8997 326.16 87.6664 325.76C87.4331 325.353 87.3164 324.89 87.3164 324.37C87.3164 323.843 87.4331 323.38 87.6664 322.98C87.8997 322.58 88.2164 322.267 88.6164 322.04C89.0164 321.813 89.4731 321.7 89.9864 321.7C90.5064 321.7 90.9664 321.813 91.3664 322.04C91.7731 322.267 92.0897 322.58 92.3164 322.98C92.5497 323.38 92.6664 323.843 92.6664 324.37C92.6664 324.89 92.5497 325.353 92.3164 325.76C92.0897 326.16 91.7731 326.477 91.3664 326.71C90.9597 326.937 90.4997 327.05 89.9864 327.05ZM89.9864 326.42C90.3664 326.42 90.7031 326.337 90.9964 326.17C91.2897 325.997 91.5197 325.757 91.6864 325.45C91.8597 325.137 91.9464 324.777 91.9464 324.37C91.9464 323.957 91.8597 323.597 91.6864 323.29C91.5197 322.983 91.2897 322.747 90.9964 322.58C90.7031 322.407 90.3697 322.32 89.9964 322.32C89.6231 322.32 89.2897 322.407 88.9964 322.58C88.7031 322.747 88.4697 322.983 88.2964 323.29C88.1231 323.597 88.0364 323.957 88.0364 324.37C88.0364 324.777 88.1231 325.137 88.2964 325.45C88.4697 325.757 88.7031 325.997 88.9964 326.17C89.2897 326.337 89.6197 326.42 89.9864 326.42ZM94.1838 327V321.75H98.9038V327H98.1938V322.18L98.3738 322.37H94.7138L94.8938 322.18V327H94.1838ZM100.922 327V321.75H101.632V325.92L105.142 321.75H105.772V327H105.062V322.82L101.562 327H100.922ZM108.807 327V322.18L108.987 322.37H106.817V321.75H111.507V322.37H109.337L109.517 322.18V327H108.807ZM115.793 327V325.84L115.763 325.65V323.71C115.763 323.263 115.637 322.92 115.383 322.68C115.137 322.44 114.767 322.32 114.273 322.32C113.933 322.32 113.61 322.377 113.303 322.49C112.997 322.603 112.737 322.753 112.523 322.94L112.203 322.41C112.47 322.183 112.79 322.01 113.163 321.89C113.537 321.763 113.93 321.7 114.343 321.7C115.023 321.7 115.547 321.87 115.913 322.21C116.287 322.543 116.473 323.053 116.473 323.74V327H115.793ZM113.983 327.05C113.59 327.05 113.247 326.987 112.953 326.86C112.667 326.727 112.447 326.547 112.293 326.32C112.14 326.087 112.063 325.82 112.063 325.52C112.063 325.247 112.127 325 112.253 324.78C112.387 324.553 112.6 324.373 112.893 324.24C113.193 324.1 113.593 324.03 114.093 324.03H115.903V324.56H114.113C113.607 324.56 113.253 324.65 113.053 324.83C112.86 325.01 112.763 325.233 112.763 325.5C112.763 325.8 112.88 326.04 113.113 326.22C113.347 326.4 113.673 326.49 114.093 326.49C114.493 326.49 114.837 326.4 115.123 326.22C115.417 326.033 115.63 325.767 115.763 325.42L115.923 325.91C115.79 326.257 115.557 326.533 115.223 326.74C114.897 326.947 114.483 327.05 113.983 327.05ZM118.364 327V321.75H119.074V324.07H122.384V321.75H123.094V327H122.384V324.68H119.074V327H118.364ZM125.112 327V321.75H125.822V325.92L129.332 321.75H129.962V327H129.252V322.82L125.752 327H125.112ZM131.136 327L133.356 324.12L133.346 324.47L131.236 321.75H132.036L133.766 324L133.466 323.99L135.196 321.75H135.976L133.846 324.5L133.856 324.12L136.096 327H135.286L133.456 324.6L133.736 324.64L131.936 327H131.136ZM146.107 327L144.307 324.4L144.897 324.05L146.957 327H146.107ZM143.127 324.66V324.05H144.787V324.66H143.127ZM144.967 324.45L144.287 324.35L146.037 321.75H146.807L144.967 324.45ZM139.887 327H139.037L141.097 324.05L141.677 324.4L139.887 327ZM143.347 327H142.637V321.75H143.347V327ZM142.857 324.66H141.207V324.05H142.857V324.66ZM141.037 324.45L139.187 321.75H139.957L141.697 324.35L141.037 324.45ZM148.139 327V321.75H148.849V327H148.139ZM148.499 320.59C148.352 320.59 148.229 320.54 148.129 320.44C148.029 320.34 147.979 320.22 147.979 320.08C147.979 319.94 148.029 319.823 148.129 319.73C148.229 319.63 148.352 319.58 148.499 319.58C148.646 319.58 148.769 319.627 148.869 319.72C148.969 319.813 149.019 319.93 149.019 320.07C149.019 320.217 148.969 320.34 148.869 320.44C148.776 320.54 148.652 320.59 148.499 320.59ZM150.873 327V321.75H151.583V324.07H154.893V321.75H155.603V327H154.893V324.68H151.583V327H150.873ZM159.781 327.05C159.275 327.05 158.818 326.937 158.411 326.71C158.011 326.477 157.695 326.16 157.461 325.76C157.228 325.353 157.111 324.89 157.111 324.37C157.111 323.843 157.228 323.38 157.461 322.98C157.695 322.58 158.011 322.267 158.411 322.04C158.811 321.813 159.268 321.7 159.781 321.7C160.301 321.7 160.761 321.813 161.161 322.04C161.568 322.267 161.885 322.58 162.111 322.98C162.345 323.38 162.461 323.843 162.461 324.37C162.461 324.89 162.345 325.353 162.111 325.76C161.885 326.16 161.568 326.477 161.161 326.71C160.755 326.937 160.295 327.05 159.781 327.05ZM159.781 326.42C160.161 326.42 160.498 326.337 160.791 326.17C161.085 325.997 161.315 325.757 161.481 325.45C161.655 325.137 161.741 324.777 161.741 324.37C161.741 323.957 161.655 323.597 161.481 323.29C161.315 322.983 161.085 322.747 160.791 322.58C160.498 322.407 160.165 322.32 159.791 322.32C159.418 322.32 159.085 322.407 158.791 322.58C158.498 322.747 158.265 322.983 158.091 323.29C157.918 323.597 157.831 323.957 157.831 324.37C157.831 324.777 157.918 325.137 158.091 325.45C158.265 325.757 158.498 325.997 158.791 326.17C159.085 326.337 159.415 326.42 159.781 326.42ZM167.829 327L165.669 324.4L166.259 324.05L168.669 327H167.829ZM163.979 327V321.75H164.689V327H163.979ZM164.469 324.66V324.05H166.159V324.66H164.469ZM166.319 324.45L165.659 324.35L167.749 321.75H168.519L166.319 324.45ZM172.496 328.99C172.25 328.99 172.013 328.95 171.786 328.87C171.566 328.79 171.376 328.67 171.216 328.51L171.546 327.98C171.68 328.107 171.823 328.203 171.976 328.27C172.136 328.343 172.313 328.38 172.506 328.38C172.74 328.38 172.94 328.313 173.106 328.18C173.28 328.053 173.443 327.827 173.596 327.5L173.936 326.73L174.016 326.62L176.176 321.75H176.876L174.246 327.63C174.1 327.97 173.936 328.24 173.756 328.44C173.583 328.64 173.393 328.78 173.186 328.86C172.98 328.947 172.75 328.99 172.496 328.99ZM173.896 327.15L171.476 321.75H172.216L174.356 326.57L173.896 327.15ZM181.303 324.78C180.996 324.913 180.686 325.02 180.373 325.1C180.066 325.173 179.759 325.21 179.453 325.21C178.833 325.21 178.343 325.07 177.983 324.79C177.623 324.503 177.443 324.063 177.443 323.47V321.75H178.143V323.43C178.143 323.83 178.273 324.13 178.533 324.33C178.793 324.53 179.143 324.63 179.583 324.63C179.849 324.63 180.129 324.597 180.423 324.53C180.716 324.457 181.013 324.353 181.313 324.22L181.303 324.78ZM181.243 327V321.75H181.953V327H181.243ZM187.229 327V325.84L187.199 325.65V323.71C187.199 323.263 187.072 322.92 186.819 322.68C186.572 322.44 186.202 322.32 185.709 322.32C185.369 322.32 185.046 322.377 184.739 322.49C184.432 322.603 184.172 322.753 183.959 322.94L183.639 322.41C183.906 322.183 184.226 322.01 184.599 321.89C184.972 321.763 185.366 321.7 185.779 321.7C186.459 321.7 186.982 321.87 187.349 322.21C187.722 322.543 187.909 323.053 187.909 323.74V327H187.229ZM185.419 327.05C185.026 327.05 184.682 326.987 184.389 326.86C184.102 326.727 183.882 326.547 183.729 326.32C183.576 326.087 183.499 325.82 183.499 325.52C183.499 325.247 183.562 325 183.689 324.78C183.822 324.553 184.036 324.373 184.329 324.24C184.629 324.1 185.029 324.03 185.529 324.03H187.339V324.56H185.549C185.042 324.56 184.689 324.65 184.489 324.83C184.296 325.01 184.199 325.233 184.199 325.5C184.199 325.8 184.316 326.04 184.549 326.22C184.782 326.4 185.109 326.49 185.529 326.49C185.929 326.49 186.272 326.4 186.559 326.22C186.852 326.033 187.066 325.767 187.199 325.42L187.359 325.91C187.226 326.257 186.992 326.533 186.659 326.74C186.332 326.947 185.919 327.05 185.419 327.05ZM191.999 327.05C191.479 327.05 191.012 326.937 190.599 326.71C190.192 326.477 189.872 326.16 189.639 325.76C189.406 325.353 189.289 324.89 189.289 324.37C189.289 323.843 189.406 323.38 189.639 322.98C189.872 322.58 190.192 322.267 190.599 322.04C191.012 321.813 191.479 321.7 191.999 321.7C192.446 321.7 192.849 321.787 193.209 321.96C193.569 322.133 193.852 322.393 194.059 322.74L193.529 323.1C193.349 322.833 193.126 322.637 192.859 322.51C192.592 322.383 192.302 322.32 191.989 322.32C191.616 322.32 191.279 322.407 190.979 322.58C190.679 322.747 190.442 322.983 190.269 323.29C190.096 323.597 190.009 323.957 190.009 324.37C190.009 324.783 190.096 325.143 190.269 325.45C190.442 325.757 190.679 325.997 190.979 326.17C191.279 326.337 191.616 326.42 191.989 326.42C192.302 326.42 192.592 326.357 192.859 326.23C193.126 326.103 193.349 325.91 193.529 325.65L194.059 326.01C193.852 326.35 193.569 326.61 193.209 326.79C192.849 326.963 192.446 327.05 191.999 327.05ZM195.434 327V321.75H196.144V324.07H199.454V321.75H200.164V327H199.454V324.68H196.144V327H195.434ZM202.182 327V321.75H202.892V325.92L206.402 321.75H207.032V327H206.322V322.82L202.822 327H202.182ZM209.067 327V321.75H209.777V326.38H212.987V321.75H213.697V327H209.067ZM213.877 328.27V326.94L214.057 327H212.987V326.38H214.547V328.27H213.877ZM218.163 323.6C218.823 323.607 219.323 323.753 219.663 324.04C220.009 324.327 220.183 324.74 220.183 325.28C220.183 325.84 219.996 326.27 219.623 326.57C219.256 326.87 218.723 327.017 218.023 327.01L215.903 327V321.75H216.613V323.58L218.163 323.6ZM217.983 326.47C218.469 326.477 218.836 326.38 219.083 326.18C219.336 325.973 219.463 325.673 219.463 325.28C219.463 324.887 219.339 324.6 219.093 324.42C218.846 324.233 218.476 324.137 217.983 324.13L216.613 324.11V326.45L217.983 326.47ZM228.005 327L225.845 324.4L226.435 324.05L228.845 327H228.005ZM224.155 327V321.75H224.865V327H224.155ZM224.645 324.66V324.05H226.335V324.66H224.645ZM226.495 324.45L225.835 324.35L227.925 321.75H228.695L226.495 324.45ZM229.005 326.99L229.055 326.38C229.102 326.387 229.145 326.397 229.185 326.41C229.232 326.417 229.272 326.42 229.305 326.42C229.518 326.42 229.688 326.34 229.815 326.18C229.948 326.02 230.048 325.807 230.115 325.54C230.182 325.273 230.228 324.973 230.255 324.64C230.282 324.3 230.305 323.96 230.325 323.62L230.415 321.75H234.265V327H233.555V322.16L233.735 322.37H230.875L231.045 322.15L230.965 323.67C230.945 324.123 230.908 324.557 230.855 324.97C230.808 325.383 230.732 325.747 230.625 326.06C230.525 326.373 230.385 326.62 230.205 326.8C230.025 326.973 229.795 327.06 229.515 327.06C229.435 327.06 229.352 327.053 229.265 327.04C229.185 327.027 229.098 327.01 229.005 326.99ZM236.373 328.99C236.127 328.99 235.89 328.95 235.663 328.87C235.443 328.79 235.253 328.67 235.093 328.51L235.423 327.98C235.557 328.107 235.7 328.203 235.853 328.27C236.013 328.343 236.19 328.38 236.383 328.38C236.617 328.38 236.817 328.313 236.983 328.18C237.157 328.053 237.32 327.827 237.473 327.5L237.813 326.73L237.893 326.62L240.053 321.75H240.753L238.123 327.63C237.977 327.97 237.813 328.24 237.633 328.44C237.46 328.64 237.27 328.78 237.063 328.86C236.857 328.947 236.627 328.99 236.373 328.99ZM237.773 327.15L235.353 321.75H236.093L238.233 326.57L237.773 327.15ZM244.141 327.06C243.715 327.06 243.335 326.99 243.001 326.85C242.675 326.71 242.395 326.497 242.161 326.21C241.928 325.923 241.751 325.57 241.631 325.15C241.511 324.723 241.451 324.23 241.451 323.67C241.451 323.17 241.498 322.733 241.591 322.36C241.685 321.98 241.815 321.653 241.981 321.38C242.148 321.107 242.341 320.877 242.561 320.69C242.788 320.497 243.031 320.343 243.291 320.23C243.558 320.11 243.831 320.02 244.111 319.96L246.471 319.41L246.591 320.07L244.371 320.57C244.231 320.603 244.061 320.65 243.861 320.71C243.668 320.77 243.468 320.86 243.261 320.98C243.061 321.1 242.875 321.267 242.701 321.48C242.528 321.693 242.388 321.97 242.281 322.31C242.181 322.643 242.131 323.06 242.131 323.56C242.131 323.667 242.135 323.753 242.141 323.82C242.148 323.88 242.155 323.947 242.161 324.02C242.175 324.087 242.185 324.187 242.191 324.32L241.881 324.06C241.955 323.653 242.105 323.3 242.331 323C242.558 322.693 242.841 322.457 243.181 322.29C243.528 322.117 243.911 322.03 244.331 322.03C244.818 322.03 245.251 322.137 245.631 322.35C246.011 322.557 246.308 322.847 246.521 323.22C246.741 323.593 246.851 324.027 246.851 324.52C246.851 325.007 246.738 325.443 246.511 325.83C246.291 326.217 245.978 326.52 245.571 326.74C245.165 326.953 244.688 327.06 244.141 327.06ZM244.221 326.47C244.595 326.47 244.925 326.387 245.211 326.22C245.498 326.047 245.721 325.813 245.881 325.52C246.048 325.227 246.131 324.897 246.131 324.53C246.131 324.17 246.048 323.85 245.881 323.57C245.721 323.29 245.498 323.07 245.211 322.91C244.925 322.743 244.591 322.66 244.211 322.66C243.838 322.66 243.508 322.74 243.221 322.9C242.935 323.053 242.708 323.27 242.541 323.55C242.381 323.83 242.301 324.153 242.301 324.52C242.301 324.887 242.381 325.217 242.541 325.51C242.708 325.803 242.935 326.037 243.221 326.21C243.515 326.383 243.848 326.47 244.221 326.47ZM248.317 328.99C248.07 328.99 247.833 328.95 247.607 328.87C247.387 328.79 247.197 328.67 247.037 328.51L247.367 327.98C247.5 328.107 247.643 328.203 247.797 328.27C247.957 328.343 248.133 328.38 248.327 328.38C248.56 328.38 248.76 328.313 248.927 328.18C249.1 328.053 249.263 327.827 249.417 327.5L249.757 326.73L249.837 326.62L251.997 321.75H252.697L250.067 327.63C249.92 327.97 249.757 328.24 249.577 328.44C249.403 328.64 249.213 328.78 249.007 328.86C248.8 328.947 248.57 328.99 248.317 328.99ZM249.717 327.15L247.297 321.75H248.037L250.177 326.57L249.717 327.15ZM253.011 328.46L253.451 326.61L253.531 327.04C253.378 327.04 253.248 326.99 253.141 326.89C253.041 326.79 252.991 326.66 252.991 326.5C252.991 326.34 253.041 326.21 253.141 326.11C253.248 326.01 253.375 325.96 253.521 325.96C253.675 325.96 253.798 326.013 253.891 326.12C253.991 326.227 254.041 326.353 254.041 326.5C254.041 326.553 254.038 326.607 254.031 326.66C254.025 326.713 254.011 326.773 253.991 326.84C253.971 326.907 253.945 326.987 253.911 327.08L253.491 328.46H253.011ZM261.588 327V325.11L261.718 325.26H259.938C259.264 325.26 258.738 325.113 258.358 324.82C257.978 324.527 257.788 324.1 257.788 323.54C257.788 322.94 257.991 322.493 258.398 322.2C258.804 321.9 259.348 321.75 260.028 321.75H262.237V327H261.588ZM257.748 327L259.188 324.98H259.928L258.518 327H257.748ZM261.588 324.9V322.16L261.718 322.37H260.048C259.561 322.37 259.181 322.463 258.908 322.65C258.641 322.837 258.507 323.14 258.507 323.56C258.507 324.34 259.004 324.73 259.998 324.73H261.718L261.588 324.9ZM268.112 327L265.952 324.4L266.542 324.05L268.952 327H268.112ZM264.262 327V321.75H264.972V327H264.262ZM264.752 324.66V324.05H266.442V324.66H264.752ZM266.602 324.45L265.942 324.35L268.032 321.75H268.802L266.602 324.45ZM270.073 327V321.75H270.783V327H270.073ZM270.433 320.59C270.286 320.59 270.163 320.54 270.063 320.44C269.963 320.34 269.913 320.22 269.913 320.08C269.913 319.94 269.963 319.823 270.063 319.73C270.163 319.63 270.286 319.58 270.433 319.58C270.579 319.58 270.703 319.627 270.803 319.72C270.903 319.813 270.953 319.93 270.953 320.07C270.953 320.217 270.903 320.34 270.803 320.44C270.709 320.54 270.586 320.59 270.433 320.59ZM275.424 327V321.75H276.144L278.524 325.78H278.224L280.644 321.75H281.304V327H280.654V322.56L280.784 322.62L278.524 326.36H278.204L275.924 322.58L276.074 322.55V327H275.424ZM286.584 327V325.84L286.554 325.65V323.71C286.554 323.263 286.428 322.92 286.174 322.68C285.928 322.44 285.558 322.32 285.064 322.32C284.724 322.32 284.401 322.377 284.094 322.49C283.788 322.603 283.528 322.753 283.314 322.94L282.994 322.41C283.261 322.183 283.581 322.01 283.954 321.89C284.328 321.763 284.721 321.7 285.134 321.7C285.814 321.7 286.338 321.87 286.704 322.21C287.078 322.543 287.264 323.053 287.264 323.74V327H286.584ZM284.774 327.05C284.381 327.05 284.038 326.987 283.744 326.86C283.458 326.727 283.238 326.547 283.084 326.32C282.931 326.087 282.854 325.82 282.854 325.52C282.854 325.247 282.918 325 283.044 324.78C283.178 324.553 283.391 324.373 283.684 324.24C283.984 324.1 284.384 324.03 284.884 324.03H286.694V324.56H284.904C284.398 324.56 284.044 324.65 283.844 324.83C283.651 325.01 283.554 325.233 283.554 325.5C283.554 325.8 283.671 326.04 283.904 326.22C284.138 326.4 284.464 326.49 284.884 326.49C285.284 326.49 285.628 326.4 285.914 326.22C286.208 326.033 286.421 325.767 286.554 325.42L286.714 325.91C286.581 326.257 286.348 326.533 286.014 326.74C285.688 326.947 285.274 327.05 284.774 327.05ZM289.155 327V321.75H289.865V324.01H291.465V324.66H289.865V327H289.155ZM293.675 327.05C293.175 327.05 292.725 326.937 292.325 326.71C291.931 326.477 291.621 326.16 291.395 325.76C291.168 325.353 291.055 324.89 291.055 324.37C291.055 323.843 291.168 323.38 291.395 322.98C291.621 322.58 291.931 322.267 292.325 322.04C292.725 321.813 293.175 321.7 293.675 321.7C294.175 321.7 294.621 321.813 295.015 322.04C295.408 322.267 295.718 322.58 295.945 322.98C296.171 323.38 296.285 323.843 296.285 324.37C296.285 324.89 296.171 325.353 295.945 325.76C295.718 326.16 295.408 326.477 295.015 326.71C294.621 326.937 294.175 327.05 293.675 327.05ZM293.675 326.43C294.041 326.43 294.368 326.343 294.655 326.17C294.941 325.997 295.168 325.757 295.335 325.45C295.501 325.137 295.585 324.777 295.585 324.37C295.585 323.957 295.501 323.597 295.335 323.29C295.168 322.983 294.941 322.747 294.655 322.58C294.368 322.407 294.041 322.32 293.675 322.32C293.315 322.32 292.988 322.407 292.695 322.58C292.408 322.747 292.181 322.983 292.015 323.29C291.848 323.597 291.765 323.957 291.765 324.37C291.765 324.777 291.848 325.137 292.015 325.45C292.181 325.757 292.408 325.997 292.695 326.17C292.988 326.343 293.315 326.43 293.675 326.43ZM298.612 327V322.18L298.792 322.37H296.622V321.75H301.312V322.37H299.142L299.322 322.18V327H298.612ZM304.598 323.6C305.258 323.607 305.758 323.753 306.098 324.04C306.445 324.327 306.618 324.74 306.618 325.28C306.618 325.84 306.431 326.27 306.058 326.57C305.691 326.87 305.158 327.017 304.458 327.01L302.338 327V321.75H303.048V323.58L304.598 323.6ZM304.418 326.47C304.905 326.477 305.271 326.38 305.518 326.18C305.771 325.973 305.898 325.673 305.898 325.28C305.898 324.887 305.775 324.6 305.528 324.42C305.281 324.233 304.911 324.137 304.418 324.13L303.048 324.11V326.45L304.418 326.47ZM27.01 339V334.18L27.19 334.37H25.02V333.75H29.71V334.37H27.54L27.72 334.18V339H27.01ZM33.9966 339V337.84L33.9666 337.65V335.71C33.9666 335.263 33.8399 334.92 33.5866 334.68C33.3399 334.44 32.9699 334.32 32.4766 334.32C32.1366 334.32 31.8132 334.377 31.5066 334.49C31.1999 334.603 30.9399 334.753 30.7266 334.94L30.4066 334.41C30.6732 334.183 30.9932 334.01 31.3666 333.89C31.7399 333.763 32.1332 333.7 32.5466 333.7C33.2266 333.7 33.7499 333.87 34.1166 334.21C34.4899 334.543 34.6766 335.053 34.6766 335.74V339H33.9966ZM32.1866 339.05C31.7932 339.05 31.4499 338.987 31.1566 338.86C30.8699 338.727 30.6499 338.547 30.4966 338.32C30.3432 338.087 30.2666 337.82 30.2666 337.52C30.2666 337.247 30.3299 337 30.4566 336.78C30.5899 336.553 30.8032 336.373 31.0966 336.24C31.3966 336.1 31.7966 336.03 32.2966 336.03H34.1066V336.56H32.3166C31.8099 336.56 31.4566 336.65 31.2566 336.83C31.0632 337.01 30.9666 337.233 30.9666 337.5C30.9666 337.8 31.0832 338.04 31.3166 338.22C31.5499 338.4 31.8766 338.49 32.2966 338.49C32.6966 338.49 33.0399 338.4 33.3266 338.22C33.6199 338.033 33.8332 337.767 33.9666 337.42L34.1266 337.91C33.9932 338.257 33.7599 338.533 33.4266 338.74C33.0999 338.947 32.6866 339.05 32.1866 339.05ZM40.4166 339L38.2566 336.4L38.8466 336.05L41.2566 339H40.4166ZM36.5666 339V333.75H37.2766V339H36.5666ZM37.0566 336.66V336.05H38.7466V336.66H37.0566ZM38.9066 336.45L38.2466 336.35L40.3366 333.75H41.1066L38.9066 336.45ZM42.3772 339V333.75H43.0872V339H42.3772ZM42.7372 332.59C42.5905 332.59 42.4672 332.54 42.3672 332.44C42.2672 332.34 42.2172 332.22 42.2172 332.08C42.2172 331.94 42.2672 331.823 42.3672 331.73C42.4672 331.63 42.5905 331.58 42.7372 331.58C42.8839 331.58 43.0072 331.627 43.1072 331.72C43.2072 331.813 43.2572 331.93 43.2572 332.07C43.2572 332.217 43.2072 332.34 43.1072 332.44C43.0139 332.54 42.8905 332.59 42.7372 332.59ZM53.9588 339L52.1588 336.4L52.7488 336.05L54.8088 339H53.9588ZM50.9788 336.66V336.05H52.6388V336.66H50.9788ZM52.8188 336.45L52.1388 336.35L53.8888 333.75H54.6588L52.8188 336.45ZM47.7388 339H46.8888L48.9488 336.05L49.5288 336.4L47.7388 339ZM51.1988 339H50.4888V333.75H51.1988V339ZM50.7088 336.66H49.0588V336.05H50.7088V336.66ZM48.8888 336.45L47.0388 333.75H47.8088L49.5488 336.35L48.8888 336.45ZM58.6077 339V333.75H63.3277V339H62.6177V334.18L62.7977 334.37H59.1377L59.3177 334.18V339H58.6077ZM68.0559 339.05C67.6026 339.05 67.1926 338.947 66.8259 338.74C66.4593 338.527 66.1659 338.223 65.9459 337.83C65.7326 337.43 65.6259 336.943 65.6259 336.37C65.6259 335.797 65.7326 335.313 65.9459 334.92C66.1593 334.52 66.4493 334.217 66.8159 334.01C67.1826 333.803 67.5959 333.7 68.0559 333.7C68.5559 333.7 69.0026 333.813 69.3959 334.04C69.7959 334.26 70.1093 334.573 70.3359 334.98C70.5626 335.38 70.6759 335.843 70.6759 336.37C70.6759 336.903 70.5626 337.37 70.3359 337.77C70.1093 338.17 69.7959 338.483 69.3959 338.71C69.0026 338.937 68.5559 339.05 68.0559 339.05ZM65.3459 340.94V333.75H66.0259V335.33L65.9559 336.38L66.0559 337.44V340.94H65.3459ZM68.0059 338.42C68.3793 338.42 68.7126 338.337 69.0059 338.17C69.2993 337.997 69.5326 337.757 69.7059 337.45C69.8793 337.137 69.9659 336.777 69.9659 336.37C69.9659 335.963 69.8793 335.607 69.7059 335.3C69.5326 334.993 69.2993 334.753 69.0059 334.58C68.7126 334.407 68.3793 334.32 68.0059 334.32C67.6326 334.32 67.2959 334.407 66.9959 334.58C66.7026 334.753 66.4693 334.993 66.2959 335.3C66.1293 335.607 66.0459 335.963 66.0459 336.37C66.0459 336.777 66.1293 337.137 66.2959 337.45C66.4693 337.757 66.7026 337.997 66.9959 338.17C67.2959 338.337 67.6326 338.42 68.0059 338.42ZM74.3614 339.05C73.8547 339.05 73.3981 338.937 72.9914 338.71C72.5914 338.477 72.2747 338.16 72.0414 337.76C71.8081 337.353 71.6914 336.89 71.6914 336.37C71.6914 335.843 71.8081 335.38 72.0414 334.98C72.2747 334.58 72.5914 334.267 72.9914 334.04C73.3914 333.813 73.8481 333.7 74.3614 333.7C74.8814 333.7 75.3414 333.813 75.7414 334.04C76.1481 334.267 76.4647 334.58 76.6914 334.98C76.9247 335.38 77.0414 335.843 77.0414 336.37C77.0414 336.89 76.9247 337.353 76.6914 337.76C76.4647 338.16 76.1481 338.477 75.7414 338.71C75.3347 338.937 74.8747 339.05 74.3614 339.05ZM74.3614 338.42C74.7414 338.42 75.0781 338.337 75.3714 338.17C75.6647 337.997 75.8947 337.757 76.0614 337.45C76.2347 337.137 76.3214 336.777 76.3214 336.37C76.3214 335.957 76.2347 335.597 76.0614 335.29C75.8947 334.983 75.6647 334.747 75.3714 334.58C75.0781 334.407 74.7447 334.32 74.3714 334.32C73.9981 334.32 73.6647 334.407 73.3714 334.58C73.0781 334.747 72.8447 334.983 72.6714 335.29C72.4981 335.597 72.4114 335.957 72.4114 336.37C72.4114 336.777 72.4981 337.137 72.6714 337.45C72.8447 337.757 73.0781 337.997 73.3714 338.17C73.6647 338.337 73.9947 338.42 74.3614 338.42ZM80.9188 339.06C80.4922 339.06 80.1122 338.99 79.7788 338.85C79.4522 338.71 79.1722 338.497 78.9388 338.21C78.7055 337.923 78.5288 337.57 78.4088 337.15C78.2888 336.723 78.2288 336.23 78.2288 335.67C78.2288 335.17 78.2755 334.733 78.3688 334.36C78.4622 333.98 78.5922 333.653 78.7588 333.38C78.9255 333.107 79.1188 332.877 79.3388 332.69C79.5655 332.497 79.8088 332.343 80.0688 332.23C80.3355 332.11 80.6088 332.02 80.8888 331.96L83.2488 331.41L83.3688 332.07L81.1488 332.57C81.0088 332.603 80.8388 332.65 80.6388 332.71C80.4455 332.77 80.2455 332.86 80.0388 332.98C79.8388 333.1 79.6522 333.267 79.4788 333.48C79.3055 333.693 79.1655 333.97 79.0588 334.31C78.9588 334.643 78.9088 335.06 78.9088 335.56C78.9088 335.667 78.9122 335.753 78.9188 335.82C78.9255 335.88 78.9322 335.947 78.9388 336.02C78.9522 336.087 78.9622 336.187 78.9688 336.32L78.6588 336.06C78.7322 335.653 78.8822 335.3 79.1088 335C79.3355 334.693 79.6188 334.457 79.9588 334.29C80.3055 334.117 80.6888 334.03 81.1088 334.03C81.5955 334.03 82.0288 334.137 82.4088 334.35C82.7888 334.557 83.0855 334.847 83.2988 335.22C83.5188 335.593 83.6288 336.027 83.6288 336.52C83.6288 337.007 83.5155 337.443 83.2888 337.83C83.0688 338.217 82.7555 338.52 82.3488 338.74C81.9422 338.953 81.4655 339.06 80.9188 339.06ZM80.9988 338.47C81.3722 338.47 81.7022 338.387 81.9888 338.22C82.2755 338.047 82.4988 337.813 82.6588 337.52C82.8255 337.227 82.9088 336.897 82.9088 336.53C82.9088 336.17 82.8255 335.85 82.6588 335.57C82.4988 335.29 82.2755 335.07 81.9888 334.91C81.7022 334.743 81.3688 334.66 80.9888 334.66C80.6155 334.66 80.2855 334.74 79.9988 334.9C79.7122 335.053 79.4855 335.27 79.3188 335.55C79.1588 335.83 79.0788 336.153 79.0788 336.52C79.0788 336.887 79.1588 337.217 79.3188 337.51C79.4855 337.803 79.7122 338.037 79.9988 338.21C80.2922 338.383 80.6255 338.47 80.9988 338.47ZM84.1613 338.99L84.2113 338.38C84.258 338.387 84.3013 338.397 84.3413 338.41C84.388 338.417 84.428 338.42 84.4613 338.42C84.6747 338.42 84.8447 338.34 84.9713 338.18C85.1047 338.02 85.2047 337.807 85.2713 337.54C85.338 337.273 85.3847 336.973 85.4113 336.64C85.438 336.3 85.4613 335.96 85.4813 335.62L85.5713 333.75H89.4213V339H88.7113V334.16L88.8913 334.37H86.0313L86.2013 334.15L86.1213 335.67C86.1013 336.123 86.0647 336.557 86.0113 336.97C85.9647 337.383 85.888 337.747 85.7813 338.06C85.6813 338.373 85.5413 338.62 85.3613 338.8C85.1813 338.973 84.9513 339.06 84.6713 339.06C84.5913 339.06 84.508 339.053 84.4213 339.04C84.3413 339.027 84.2547 339.01 84.1613 338.99ZM93.6897 339.05C93.143 339.05 92.663 338.937 92.2497 338.71C91.8364 338.477 91.513 338.16 91.2797 337.76C91.0464 337.353 90.9297 336.89 90.9297 336.37C90.9297 335.85 91.0397 335.39 91.2597 334.99C91.4864 334.59 91.793 334.277 92.1797 334.05C92.573 333.817 93.013 333.7 93.4997 333.7C93.993 333.7 94.4297 333.813 94.8097 334.04C95.1964 334.26 95.4997 334.573 95.7197 334.98C95.9397 335.38 96.0497 335.843 96.0497 336.37C96.0497 336.403 96.0464 336.44 96.0397 336.48C96.0397 336.513 96.0397 336.55 96.0397 336.59H91.4697V336.06H95.6597L95.3797 336.27C95.3797 335.89 95.2964 335.553 95.1297 335.26C94.9697 334.96 94.7497 334.727 94.4697 334.56C94.1897 334.393 93.8664 334.31 93.4997 334.31C93.1397 334.31 92.8164 334.393 92.5297 334.56C92.243 334.727 92.0197 334.96 91.8597 335.26C91.6997 335.56 91.6197 335.903 91.6197 336.29V336.4C91.6197 336.8 91.7064 337.153 91.8797 337.46C92.0597 337.76 92.3064 337.997 92.6197 338.17C92.9397 338.337 93.303 338.42 93.7097 338.42C94.0297 338.42 94.3264 338.363 94.5997 338.25C94.8797 338.137 95.1197 337.963 95.3197 337.73L95.7197 338.19C95.4864 338.47 95.193 338.683 94.8397 338.83C94.493 338.977 94.1097 339.05 93.6897 339.05ZM97.6213 339V333.75H98.3413L100.721 337.78H100.421L102.841 333.75H103.501V339H102.851V334.56L102.981 334.62L100.721 338.36H100.401L98.1213 334.58L98.2713 334.55V339H97.6213ZM105.522 339V333.75H106.232V337.92L109.742 333.75H110.372V339H109.662V334.82L106.162 339H105.522Z" fill="#929292"/>
<defs>
<linearGradient id="paint0_linear_33_40159" x1="240.659" y1="259.5" x2="97.9195" y2="261.429" gradientUnits="userSpaceOnUse">
<stop stop-color="#A9CD50" stop-opacity="0.3"/>
<stop offset="1" stop-color="#FF398B" stop-opacity="0.3"/>
</linearGradient>
</defs>
</svg>
